<svg xmlns="http://www.w3.org/2000/svg" xmlns:xlink="http://www.w3.org/1999/xlink" viewBox="0 0 1366 768" xmlns:v="https://vecta.io/nano"><g fill="#f20833"><path d="M814.1 486.4c-.6.4-1.2.7-1.9 1s-1.4.5-2.2.7-1.6.2-2.5.2c-1.5 0-3-.3-4.2-.8a7.99 7.99 0 0 1-3.2-2.2c-.9-.9-1.6-2-2.1-3.2s-.7-2.6-.7-4 .3-2.7.8-4c.5-1.2 1.2-2.3 2.1-3.3.9-.9 2-1.7 3.2-2.2 1.3-.5 2.6-.8 4.1-.8.9 0 1.7.1 2.4.2s1.4.3 2 .5 1.2.5 1.7.8a15.26 15.26 0 0 1 1.6 1.1L813 473l-1.2-.9c-.4-.3-.8-.5-1.2-.7s-.9-.3-1.4-.4-1.1-.2-1.7-.2c-.9 0-1.8.2-2.5.6s-1.5.9-2 1.5c-.6.6-1 1.4-1.4 2.2s-.5 1.8-.5 2.7a8.21 8.21 0 0 0 .5 2.8c.3.9.8 1.6 1.4 2.3.6.6 1.3 1.1 2.1 1.5s1.7.5 2.8.5c.9 0 1.8-.1 2.6-.4s1.5-.6 2.1-1.1V480h-5.1v-3h8.4v8.3l-1.8 1.1zm9.6-15.6v-3.3h3.7v3.3h-3.7zm.1 17.2v-15h3.5v15h-3.5zm22.1-15h3.6l-6.1 15.1h-3.1l-6.1-15.1h3.7l4 11 4-11z"/><use xlink:href="#B"/><path d="M889 468.2h3.5v16.7h10.4v3.1H889v-19.8zm21 2.6v-3.3h3.7v3.3H910zm.2 17.2v-15h3.5v15h-3.5zm19.8-14.8v2.8h-3.9v12h-3.5v-12h-1.9v-2.9h1.9V472c0-1.7.4-2.9 1.2-3.7s1.9-1.2 3.4-1.2c.6 0 1.1 0 1.6.1l1.2.3v2.9l-1-.3c-.3-.1-.7-.1-1-.1-1.3 0-2 .8-2 2.3v.8h4zm10.1 11.4c.8.7 1.7 1 2.8 1 .8 0 1.6-.2 2.2-.5a6.78 6.78 0 0 0 1.8-1.3l2 1.8c-.7.8-1.6 1.5-2.6 2s-2.2.8-3.6.8c-1.1 0-2.1-.2-3-.6s-1.7-.9-2.4-1.6-1.2-1.5-1.6-2.5a8.29 8.29 0 0 1-.6-3.2c0-1.1.2-2.1.5-3 .4-.9.9-1.8 1.5-2.5.7-.7 1.4-1.3 2.3-1.7s1.9-.6 2.9-.6c1.2 0 2.2.2 3.1.7.9.4 1.6 1 2.2 1.8.6.7 1 1.6 1.3 2.6s.5 2 .5 3.1v1h-11c.5 1.1 1 2 1.7 2.7zm6.2-5.1c-.1-.5-.2-1.1-.4-1.5-.2-.5-.4-.9-.8-1.2a4.44 4.44 0 0 0-1.1-.8c-.4-.2-.9-.3-1.5-.3-1.1 0-1.9.4-2.6 1.1s-1.1 1.7-1.3 2.8h7.7zm10.2 8.5v-3.9h3.8v3.9h-3.8zm27.5-13.6c.1.3.4.5.7.8.4.2.8.5 1.4.7l2.3.7 2.8.9c.8.3 1.5.7 2 1.2s.9 1 1.2 1.6.4 1.3.4 2.2-.2 1.8-.5 2.5-.8 1.4-1.4 1.9-1.4.9-2.2 1.2c-.9.3-1.8.4-2.9.4-1.5 0-3-.3-4.4-.8s-2.7-1.3-3.9-2.4l2.1-2.5c1 .8 1.9 1.5 2.9 1.9s2.1.7 3.3.7c1.1 0 1.9-.2 2.6-.7.6-.5.9-1.1.9-1.8 0-.4-.1-.7-.2-1s-.4-.5-.7-.8c-.3-.2-.8-.5-1.4-.7l-2.3-.7c-1.1-.2-2-.5-2.8-.8s-1.5-.7-2.1-1.1c-.6-.5-1-1-1.3-1.6s-.4-1.4-.4-2.3.2-1.7.5-2.4.8-1.3 1.4-1.8 1.3-.9 2.1-1.2 1.7-.4 2.7-.4c1.5 0 2.8.2 3.9.6s2.3 1 3.3 1.9l-1.9 2.6c-.9-.7-1.8-1.2-2.7-1.5s-1.8-.5-2.7-.5c-1 0-1.8.2-2.4.7s-.8 1-.8 1.7c.3.2.3.5.5.8zm27.5 13.6v-1.8c-.5.6-1.2 1.1-2 1.5s-1.8.6-2.9.6c-.7 0-1.4-.1-2-.3s-1.2-.5-1.7-.9-.9-.9-1.2-1.4c-.3-.6-.4-1.2-.4-2v-.1a4.65 4.65 0 0 1 .5-2.1c.3-.6.7-1.1 1.3-1.5.5-.4 1.2-.7 1.9-.9s1.6-.3 2.4-.3c.9 0 1.7.1 2.3.2s1.2.3 1.8.5v-.4c0-1-.3-1.8-.9-2.4-.6-.5-1.5-.8-2.7-.8-.8 0-1.6.1-2.3.3s-1.3.4-2 .7l-.9-2.7c.8-.4 1.7-.7 2.5-.9.9-.2 1.9-.3 3.1-.3 2.2 0 3.9.6 5 1.7s1.6 2.7 1.6 4.7v8.9h-3.4zm.1-6.3c-.4-.2-.9-.3-1.5-.4s-1.2-.2-1.9-.2c-1.1 0-1.9.2-2.5.6s-.9 1-.9 1.8v.1c0 .7.3 1.3.8 1.6.6.4 1.2.6 2.1.6.6 0 1.1-.1 1.6-.2.5-.2.9-.4 1.3-.6.4-.3.6-.6.8-1s.3-.8.3-1.3v-1zm21-8.7h3.6l-6.1 15.1h-3.1l-6.1-15.1h3.7l4 11 4-11z"/><use xlink:href="#B" x="186.7"/><path d="M1075.7 468.2h3.5v16.7h10.4v3.1h-13.9v-19.8zm21 2.6v-3.3h3.7v3.3h-3.7zm.2 17.2v-15h3.5v15h-3.5zm22-15h3.6l-6.1 15.1h-3.1l-6.1-15.1h3.7l4 11 4-11zm13.6 11.6c.8.7 1.7 1 2.8 1 .8 0 1.6-.2 2.2-.5a6.78 6.78 0 0 0 1.8-1.3l2 1.8c-.7.8-1.6 1.5-2.6 2s-2.2.8-3.6.8c-1.1 0-2.1-.2-3-.6s-1.7-.9-2.4-1.6-1.2-1.5-1.6-2.5a8.29 8.29 0 0 1-.6-3.2c0-1.1.2-2.1.5-3 .4-.9.9-1.8 1.5-2.5.7-.7 1.4-1.3 2.3-1.7s1.9-.6 2.9-.6c1.2 0 2.2.2 3.1.7.9.4 1.6 1 2.2 1.8.6.7 1 1.6 1.3 2.6s.5 2 .5 3.1v1h-11c.4 1.1.9 2 1.7 2.7zm6.2-5.1c-.1-.5-.2-1.1-.4-1.5s-.4-.9-.8-1.2a4.44 4.44 0 0 0-1.1-.8c-.4-.2-.9-.3-1.5-.3-1.1 0-1.9.4-2.6 1.1s-1.1 1.7-1.3 2.8h7.7zm20.9 6.1c-.3.6-.7 1.1-1.2 1.5s-1.1.7-1.8.9-1.4.3-2.2.3a9.6 9.6 0 0 1-3.3-.6c-1.1-.4-2.1-.9-3.1-1.7l1.5-2.3c.8.6 1.6 1.1 2.5 1.4.8.3 1.6.5 2.4.5.7 0 1.3-.1 1.7-.4s.6-.7.6-1.2v-.1c0-.3-.1-.5-.3-.7s-.4-.4-.7-.6-.7-.3-1.1-.4-.8-.3-1.3-.4l-1.7-.6a5.3 5.3 0 0 1-1.5-.8c-.4-.3-.8-.7-1.1-1.2s-.4-1.1-.4-1.8v-.1c0-.7.1-1.3.4-1.9s.7-1 1.1-1.4c.5-.4 1-.7 1.7-.9s1.3-.3 2.1-.3c.9 0 1.9.2 2.9.5s1.8.7 2.6 1.2l-1.4 2.4c-.7-.4-1.4-.8-2.2-1-.7-.3-1.4-.4-2-.4-.7 0-1.2.1-1.5.4-.4.3-.6.6-.6 1.1v.1c0 .3.1.5.3.7s.4.4.8.5c.3.2.7.3 1.1.5.4.1.8.3 1.3.4l1.6.6c.5.2 1 .5 1.5.8.4.3.8.7 1.1 1.2s.4 1 .4 1.7v.1c.2.8.1 1.5-.2 2zm-702.2-67.4c-.8-2.2-1.8-4.4-3-6.6-6.4-11.8-18.3-23.7-33.2-31.6l-.8-.4c-17.9-9.3-40-12.8-62.2-4.1-1 .4-2.1.8-3.1 1.3l.5.3h.1c-8.8 5.7-13.8 24.4-14.5 24.8l5-5.1 6.7 5.1s27.3 30.2 83.5 16.3 21 0 21 0z"/><path d="M380.9 322.6l37.2 26.3c27.6 14.3 39.4 53 25.2 82.4-14.5 29.8-49.1 81.1-193.1 60.2 0 0 19.1-69.1 93.2-127.2 30-23.5 56-25.1 74.7-15.4m9.8-19.1c-14-7.3-30.1-9.6-46.6-6.8-17 2.9-34.2 11.1-51.2 24.4-78.8 61.7-99.7 135.3-100.6 138.4-1.6 5.9 1.7 9.5 5.1 14.7 2 3.1.9 5 4.1 6.6 2.1 1.1 6 5.3 8.4 5.6 35.4 5.1 67 6.4 94.1 3.7 24.3-2.4 45.7-8 63.6-16.8 34.3-16.8 49.4-41.7 57.8-59 9.1-18.8 10.7-41.6 4.3-62.5-6.5-21.2-20.7-38.8-39-48.3h0z"/></g><path d="M246.1 501.2c-1.9-1-3.5-2.6-4.6-4.5-30.4-58-43.5-107.4-38.9-146.8 4.1-34.7 21-55.3 33.4-67.9 22.3-22.6 58.9-28.4 86.8-13.9 12 6.2 49.4 31.5 27.3 96.9-30.9 91.5-90.5 133.8-93 135.5-2.5 1.8-5.7 2.3-8.7 1.6-.7-.2-1.5-.5-2.3-.9z" fill="#fff"/><path d="M317.9 277.6c22.8 11.8 37.1 39.5 22.1 83.9-30.1 89.2-89 130.1-89 130.1-67.6-128.9-30.7-178.5-7.4-202.1 19.5-19.5 51.3-23.8 74.3-11.9m9.9-19c-32.1-16.6-73.9-9.9-99.4 15.9-13.5 13.7-32 36.2-36.4 74.2-2.3 19.7-.5 41.8 5.3 65.5 6.5 26.4 18.2 55.8 34.8 87.5 2.1 3.9 5.3 7.1 9.1 9.1a19.78 19.78 0 0 0 4.8 1.8c6 1.5 12.3.3 17.3-3.2 2.6-1.8 65-46.1 97-140.9 8.5-25.3 9.6-48 3.2-67.7-6-18.7-18.4-33.3-35.7-42.2h0zm180.7 178.2V336.5h22.1v80.4h50v19.9h-72.1zm90.5-85.2v-19.3h23v19.3h-23zm.6 85.2V360h21.8v76.8h-21.8zm84.3-86.7a26.2 26.2 0 0 0-5.2-.5c-5.3 0-7.9 2.8-7.9 8.3v3h17.6v17.8h-17.3v58.2h-21.8v-58.2h-9v-17.9h9v-4.9c0-8.5 2-14.7 6.1-18.7s10-5.9 17.7-5.9c3.4 0 6.4.2 8.8.6s4.7.9 6.7 1.6v18.1c-1.6-.7-3.2-1.2-4.7-1.5zm91.8 53.2c0 .8-.1 1.7-.2 2.7H722c1 5 3.2 8.7 6.5 11.3 3.3 2.5 7.4 3.8 12.3 3.8 3.6 0 6.9-.6 9.7-1.9 2.9-1.2 5.8-3.2 8.9-6l12.5 11c-3.6 4.5-8 8-13.2 10.5s-11.2 3.8-18.2 3.8c-5.7 0-11.1-1-16-2.9s-9.2-4.6-12.8-8.2c-3.6-3.5-6.4-7.7-8.4-12.5s-3-10.2-3-16.1v-.3c0-5.4.9-10.6 2.8-15.5s4.5-9.1 7.8-12.8c3.3-3.6 7.3-6.5 12-8.6 4.6-2.1 9.8-3.2 15.4-3.2 6.4 0 11.9 1.1 16.6 3.4s8.6 5.4 11.7 9.2c3.1 3.9 5.4 8.3 6.9 13.3s2.2 10.2 2.2 15.7v3.3zm-26.3-22.7c-2.8-3-6.4-4.5-11-4.5s-8.3 1.5-11.1 4.4c-2.8 3-4.7 6.9-5.5 11.9h32.8c-.8-4.9-2.5-8.8-5.2-11.8z" fill="#f20833"/><g fill="none" stroke="#f20833" stroke-miterlimit="10"><path d="M873.4 415.6c-2 4.9-4.5 9.1-7.7 12.5s-6.9 5.9-11.1 7.7c-4.2 1.7-8.6 2.6-13.2 2.6-5.8 0-10.6-1.1-14.4-3.4s-7-4.9-9.5-8v9.9h-21.8V332.2h21.8V371c2.7-3.6 5.9-6.6 9.7-8.9s8.5-3.5 14.3-3.5c4.5 0 8.8.9 13 2.6s7.9 4.3 11.2 7.7c3.2 3.4 5.8 7.5 7.8 12.5 2 4.9 2.9 10.6 2.9 17v.3c-.1 6.3-1.1 11.9-3 16.9zm-18.9-17.3c0-3.2-.5-6.1-1.5-8.7s-2.4-4.9-4.1-6.8-3.7-3.3-5.9-4.3-4.7-1.5-7.2-1.5-5 .5-7.2 1.5-4.2 2.5-5.9 4.3-3 4.1-4 6.8c-1 2.6-1.5 5.6-1.5 8.7v.3c0 3.2.5 6.1 1.5 8.7s2.3 4.9 4 6.8 3.6 3.3 5.9 4.3c2.2 1 4.7 1.5 7.2 1.5s5-.5 7.2-1.5 4.2-2.5 5.9-4.3a21.54 21.54 0 0 0 4.1-6.7c1-2.6 1.5-5.5 1.5-8.8v-.3zm86.6 38.5v-8.3c-2.7 3-5.9 5.3-9.6 7.1s-8.3 2.7-13.6 2.7c-3.6 0-7-.5-10.2-1.5s-6-2.5-8.4-4.5-4.3-4.5-5.7-7.4-2.1-6.3-2.1-10.1v-.3c0-4.2.8-7.8 2.3-10.9s3.7-5.6 6.4-7.6 6-3.5 9.7-4.5c3.8-1 8-1.5 12.5-1.5 3.9 0 7.3.3 10.2.9s5.8 1.3 8.5 2.3v-1.3c0-4.6-1.4-8.1-4.2-10.5s-6.9-3.6-12.3-3.6c-4.2 0-7.9.4-11.1 1.1a64.05 64.05 0 0 0-10.1 3.1l-5.4-16.6c4.2-1.8 8.6-3.3 13.2-4.4s10.1-1.7 16.6-1.7c11.9 0 20.6 2.9 26.1 8.7 5.4 5.8 8.2 13.9 8.2 24.4V437h-21zm.4-30.9c-1.9-.9-4-1.6-6.4-2.1-2.3-.5-4.8-.8-7.5-.8-4.7 0-8.4.9-11 2.7-2.7 1.8-4 4.4-4 7.9v.3c0 3 1.1 5.3 3.3 6.9s5.1 2.4 8.6 2.4c5.2 0 9.3-1.2 12.4-3.7s4.7-5.7 4.7-9.7v-3.9zm91.7 30.9v-42.7c0-5.1-1.1-9-3.4-11.7-2.3-2.6-5.5-3.9-9.7-3.9s-7.5 1.3-10 3.9c-2.4 2.6-3.7 6.5-3.7 11.7v42.7h-21.8V360h21.8v11c1.2-1.6 2.6-3.2 4.1-4.7s3.1-2.8 4.9-4 3.8-2.1 6-2.7c2.2-.7 4.7-1 7.5-1 8.3 0 14.7 2.5 19.3 7.6 4.5 5.1 6.8 12 6.8 20.9v49.7h-21.8zm93.9 0l-20.1-31.4-7.6 8v23.4h-21.8V332.2h21.8V388l25.6-28h26.1l-29.2 30.2 30.2 46.6h-25z"/><g stroke-width="2"><path d="M463.3 429.8c-.9-14.7-33.8 17.8-77.7 7.7-23.5-5.4-49.7-23.6-58.4-36.3m113.5 47.9c-14 5.3-35.2 13-59.8 7.4-23.5-5.4-49.7-23.6-58.4-36.3m117.1 43.2c-13.5 4.8-37.3 16.2-65.8 9.6-23.5-5.4-49.7-23.6-58.4-36.3m92.7 52.2c-5.4 1.3-11.3 2.3-17.6 2.6a81.07 81.07 0 0 1-21.5-1.9c-23.5-5.4-49.7-23.6-58.4-36.3m103.8 34.3c-13.7 5-36.8 15.4-64.3 9.1-23.5-5.4-49.7-23.6-58.4-36.3m44.2 41c-17.6-4-36.8-15.3-48.9-26"/><path d="M399.5 496c-.9-14.7-33.8 17.8-77.7 7.7-13.2-3-27.3-10.1-38.7-18"/></g></g><defs ><path id="B" d="M859.5 484.6c.8.7 1.7 1 2.8 1 .8 0 1.6-.2 2.2-.5a6.78 6.78 0 0 0 1.8-1.3l2 1.8c-.7.8-1.6 1.5-2.6 2s-2.2.8-3.6.8c-1.1 0-2.1-.2-3-.6s-1.7-.9-2.4-1.6-1.2-1.5-1.6-2.5a8.29 8.29 0 0 1-.6-3.2c0-1.1.2-2.1.5-3 .4-.9.9-1.8 1.5-2.5.7-.7 1.4-1.3 2.3-1.7s1.9-.6 2.9-.6c1.2 0 2.2.2 3.1.7.9.4 1.6 1 2.2 1.8.6.7 1 1.6 1.3 2.6s.5 2 .5 3.1v1h-11c.4 1.1.9 2 1.7 2.7zm6.1-5.1c-.1-.5-.2-1.1-.4-1.5-.2-.5-.4-.9-.8-1.2a4.44 4.44 0 0 0-1.1-.8c-.4-.2-.9-.3-1.5-.3-1.1 0-1.9.4-2.6 1.1s-1.1 1.7-1.3 2.8h7.7z"/></defs></svg>