<svg xmlns="http://www.w3.org/2000/svg" xmlnsXlink="http://www.w3.org/1999/xlink" viewBox="0 0 1366 768" xmlns="https://vecta.io/nano"><path d="M818.1 489.1c-.6.4-1.2.7-1.9 1s-1.4.5-2.2.7-1.6.2-2.5.2c-1.6 0-3-.3-4.3-.8s-2.4-1.2-3.3-2.2c-.9-.9-1.6-2-2.1-3.3s-.7-2.6-.7-4.1a10.57 10.57 0 0 1 .8-4c.5-1.3 1.2-2.4 2.1-3.3s2-1.7 3.3-2.2c1.3-.6 2.7-.8 4.2-.8.9 0 1.7.1 2.4.2s1.4.3 2 .5 1.2.5 1.7.8 1.1.7 1.6 1.2l-2.2 2.7-1.2-.9c-.4-.3-.8-.5-1.3-.7-.4-.2-.9-.3-1.4-.4s-1.1-.2-1.7-.2c-.9 0-1.8.2-2.6.6s-1.5.9-2.1 1.5-1 1.4-1.4 2.3-.5 1.8-.5 2.8.2 2 .5 2.9.8 1.6 1.4 2.3c.6.6 1.3 1.1 2.1 1.5s1.8.5 2.8.5 1.8-.1 2.7-.4c.8-.3 1.6-.6 2.2-1.1v-3.8h-5.1v-3.1h8.5v8.4l-1.8 1.2zm9.8-15.9v-3.3h3.8v3.3h-3.8zm.1 17.5v-15.1h3.5v15.1H828z"/><use xlinkHref="#B"/><path d="M864 487.2c.8.7 1.7 1 2.9 1 .9 0 1.6-.2 2.2-.5s1.2-.8 1.9-1.3l2 1.8c-.7.9-1.6 1.5-2.6 2.1-1 .5-2.2.8-3.6.8-1.1 0-2.1-.2-3-.6s-1.8-.9-2.5-1.6-1.2-1.5-1.6-2.5a8.29 8.29 0 0 1-.6-3.2c0-1.1.2-2.1.5-3.1.4-1 .9-1.8 1.5-2.5.7-.7 1.4-1.3 2.3-1.7s1.9-.6 3-.6c1.2 0 2.3.2 3.2.7.9.4 1.7 1 2.3 1.8.6.7 1.1 1.6 1.4 2.6s.5 2 .5 3.1v1h-11.1c.1 1.1.6 2 1.3 2.7zm6.3-5.2c-.1-.6-.2-1.1-.4-1.6s-.4-.9-.8-1.3c-.3-.4-.7-.6-1.2-.8s-1-.3-1.5-.3c-1.1 0-2 .4-2.6 1.1-.7.7-1.1 1.7-1.3 2.9h7.8zm23.6-11.4h3.5v16.9H908v3.2h-14v-20.1zm21.3 2.6v-3.3h3.8v3.3h-3.8zm.1 17.5v-15.1h3.5v15.1h-3.5zm20.1-15v2.9h-4v12.1h-3.5v-12.1H926v-2.9h1.9v-1.1c0-1.7.4-2.9 1.2-3.7s2-1.2 3.5-1.2c.6 0 1.1 0 1.6.1l1.2.3v2.9l-1-.3c-.3-.1-.7-.1-1-.1-1.3 0-2 .8-2 2.3v.8h4zm10.2 11.5c.8.7 1.7 1 2.9 1 .9 0 1.6-.2 2.2-.5s1.2-.8 1.9-1.3l2 1.8c-.7.9-1.6 1.5-2.6 2.1-1 .5-2.2.8-3.6.8-1.1 0-2.1-.2-3-.6s-1.8-.9-2.5-1.6-1.2-1.5-1.6-2.5a8.29 8.29 0 0 1-.6-3.2c0-1.1.2-2.1.5-3.1.4-1 .9-1.8 1.5-2.5.7-.7 1.4-1.3 2.3-1.7s1.9-.6 3-.6c1.2 0 2.3.2 3.2.7.9.4 1.7 1 2.3 1.8.6.7 1.1 1.6 1.4 2.6s.5 2 .5 3.1v1h-11.1c.1 1.1.6 2 1.3 2.7zm6.3-5.2c-.1-.6-.2-1.1-.4-1.6s-.4-.9-.8-1.3c-.3-.4-.7-.6-1.2-.8-.4-.2-1-.3-1.5-.3-1.1 0-2 .4-2.6 1.1-.7.7-1.1 1.7-1.3 2.9h7.8zm10.3 8.7v-3.9h3.8v3.9h-3.8zm27.8-13.8c.1.3.4.6.7.8.4.2.8.5 1.5.7l2.4.7 2.8.9c.8.3 1.5.7 2 1.2s.9 1 1.2 1.6.4 1.4.4 2.2c0 1-.2 1.8-.5 2.5-.4.7-.8 1.4-1.5 1.9-.6.5-1.4.9-2.3 1.2s-1.8.4-2.9.4c-1.5 0-3-.3-4.4-.8s-2.7-1.3-3.9-2.4l2.1-2.5c1 .8 2 1.5 2.9 1.9 1 .4 2.1.7 3.4.7 1.1 0 2-.2 2.6-.7s1-1.1 1-1.9c0-.4-.1-.7-.2-1s-.4-.5-.7-.8c-.3-.2-.8-.5-1.4-.7l-2.3-.7c-1.1-.2-2-.5-2.9-.8-.8-.3-1.5-.7-2.1-1.1-.6-.5-1-1-1.3-1.7s-.4-1.4-.4-2.4c0-.9.2-1.7.5-2.4s.8-1.3 1.4-1.8 1.3-.9 2.2-1.2c.8-.3 1.8-.4 2.7-.4 1.5 0 2.8.2 4 .6s2.3 1.1 3.3 1.9l-1.9 2.7c-.9-.7-1.8-1.2-2.7-1.5-.9-.4-1.8-.5-2.7-.5-1 0-1.8.2-2.4.7s-.9 1-.9 1.7c.1.4.1.7.3 1zm27.9 13.8v-1.9c-.5.6-1.2 1.1-2 1.5s-1.8.6-2.9.6c-.7 0-1.4-.1-2.1-.3s-1.2-.5-1.7-.9-.9-.9-1.2-1.5-.4-1.3-.4-2v-.1a4.65 4.65 0 0 1 .5-2.1c.3-.6.7-1.1 1.3-1.5.5-.4 1.2-.7 1.9-.9.8-.2 1.6-.3 2.4-.3.9 0 1.7.1 2.3.2s1.3.3 1.8.5v-.4c0-1-.3-1.8-1-2.4-.6-.6-1.6-.8-2.8-.8-.9 0-1.6.1-2.3.3s-1.3.4-2 .7l-.9-2.8c.8-.4 1.7-.7 2.6-.9s1.9-.3 3.2-.3c2.3 0 3.9.6 5 1.7s1.6 2.7 1.6 4.7v9h-3.3zm0-6.5c-.4-.2-1-.3-1.6-.4s-1.2-.2-1.9-.2c-1.1 0-1.9.2-2.5.6s-.9 1-.9 1.8v.1c0 .7.3 1.3.8 1.7.6.4 1.3.6 2.1.6.6 0 1.1-.1 1.6-.2.5-.2.9-.4 1.3-.6.4-.3.6-.6.8-1s.3-.8.3-1.3v-1.1z"/><use xlinkHref="#B" x="188.9"/><use xlinkHref="#C"/><path d="M1082.8 470.6h3.5v16.9h10.5v3.2h-14v-20.1zm21.2 2.6v-3.3h3.8v3.3h-3.8zm.2 17.5v-15.1h3.5v15.1h-3.5z"/><use xlinkHref="#B" x="276.2"/><use xlinkHref="#C" x="87.3"/><path d="M1167.6 488.3c-.3.6-.7 1.1-1.2 1.5s-1.1.7-1.8.9-1.4.3-2.2.3a9.6 9.6 0 0 1-3.3-.6c-1.1-.4-2.2-.9-3.1-1.7l1.5-2.3c.8.6 1.7 1.1 2.5 1.4.9.3 1.7.5 2.4.5s1.3-.1 1.7-.4.6-.7.6-1.2v-.1c0-.3-.1-.5-.3-.7s-.4-.4-.7-.6-.7-.3-1.1-.4-.8-.3-1.3-.4l-1.7-.6a5.3 5.3 0 0 1-1.5-.8c-.4-.3-.8-.7-1.1-1.2s-.4-1.1-.4-1.8v-.1c0-.7.1-1.3.4-1.9s.7-1.1 1.1-1.5c.5-.4 1.1-.7 1.7-.9.7-.2 1.4-.3 2.1-.3 1 0 1.9.2 2.9.5s1.9.7 2.7 1.3l-1.4 2.5c-.7-.4-1.5-.8-2.2-1-.7-.3-1.4-.4-2.1-.4s-1.2.1-1.6.4-.6.6-.6 1.1v.1c0 .3.1.5.3.7s.4.4.8.5c.3.2.7.3 1.1.5.4.1.8.3 1.3.4l1.7.6a5.3 5.3 0 0 1 1.5.8c.4.3.8.7 1.1 1.2s.4 1.1.4 1.7v.1c.2.6.1 1.3-.2 1.9z"/><path d="M457.5 377.2s6.7 43.1 4.3 41.9-6.9 16.3-7.5 17.5-25.9 27.4-28.4 30.1c-2.4 2.8-51.4 23.6-55.3 25.2S299 470.7 299 470.7l10.3-45.4s35-62.5 31.9-62.5c-3 0 10.8-24.5 14.1-24.6s18.9-4.2 15.3-6 9.3-4.1 9.3-4.1l20.8-5.2 20.8 14.3 36 40z" fill="#fff"/><path d="M457.5 420.1c-.8-2.2-1.8-4.4-3-6.7-6.5-12-18.5-23.9-33.5-31.9l-.9-.4c-18.1-9.4-40.5-13-62.9-4.2-1 .4-2.1.8-3.1 1.3l.5.3.1.1c-8.9 5.7-14 24.6-14.7 25.1l5.1-5.2 6.8 5.2s27.6 30.5 84.4 16.5 21.2-.1 21.2-.1z"/><path d="M462.5 417.1c0-14.9-35.3 15.7-78.9 2.7-23.4-7-48.7-27.1-56.6-40.5-75.6 60-88.7 109-89.6 112-.8 3-.3 6.2 1.4 8.8 1 1.6 2.5 2.9 4.1 3.7 1.1.5 2.2.9 3.4 1.1 65.6 9.5 117.1 5.4 153.1-12.2 31.7-15.5 50.8-52.2 58.6-68.2.1-.2 9.6-15.6 4.5-7.4z" fill="none" stroke="#000" stroke-width="2" stroke-linejoin="round" stroke-miterlimit="10"/><path d="M380 323.4l37.6 26.6c27.9 14.4 39.9 53.6 25.4 83.3-14.6 30.2-49.6 82-195.2 60.9 0 0 19.3-69.9 94.2-128.6 30.3-23.8 56.6-25.4 75.6-15.6m10-19.3c-14.2-7.3-30.5-9.7-47.1-6.9-17.2 2.9-34.6 11.2-51.8 24.7-79.6 62.4-100.9 136.8-101.7 139.9-1.7 6 1.7 9.6 5.1 14.8 2.1 3.2.9 5 4.2 6.7 2.1 1.1 6.1 5.3 8.5 5.7 35.8 5.2 67.8 6.5 95.1 3.8 24.6-2.4 46.2-8.1 64.3-17 34.7-17 50-42.2 58.5-59.7 9.2-19.1 10.8-42.1 4.4-63.2-6.7-21.5-21-39.3-39.5-48.8h0z"/><path d="M243.8 504a10.24 10.24 0 0 1-4.6-4.6c-30.8-58.7-44-108.6-39.4-148.4 4.1-35.1 21.2-56 33.8-68.6 22.6-22.8 59.5-28.7 87.8-14.1 12.1 6.3 50 31.9 27.6 98-31.3 92.5-91.5 135.3-94 137-2.6 1.8-5.7 2.4-8.8 1.6-.9-.2-1.7-.5-2.4-.9z" fill="#fff"/><path d="M316.4 277.9c23.1 11.9 37.5 40 22.3 84.9-30.5 90.2-90 131.6-90 131.6-68.3-130.3-31.1-180.6-7.5-204.4 19.7-19.8 51.9-24.2 75.2-12.1m9.9-19.3c-32.4-16.8-74.7-10-100.5 16.1-13.7 13.8-32.4 36.6-36.8 75-2.3 19.9-.5 42.2 5.4 66.3 6.6 26.7 18.4 56.5 35.2 88.5 2.1 4 5.3 7.2 9.2 9.2a19.78 19.78 0 0 0 4.8 1.8c6 1.5 12.4.3 17.5-3.3 2.7-1.9 65.7-46.6 98.1-142.5 8.6-25.5 9.7-48.6 3.3-68.4-6.1-18.9-18.6-33.6-36.2-42.7h0zm182.8 180.3V337.5h22.3v81.3H582v20.1h-72.9zm91.6-86.2v-19.6h23.2v19.6h-23.2zm.5 86.2v-77.7h22v77.7h-22zm85.3-87.7c-1.5-.3-3.3-.5-5.2-.5-5.3 0-8 2.8-8 8.4v3h17.8v18h-17.5v58.8h-22v-58.8h-9.1V362h9.1v-5c0-8.6 2.1-14.9 6.2-18.9s10.1-6 17.9-6c3.5 0 6.5.2 8.9.6 2.5.4 4.7.9 6.7 1.6v18.3c-1.7-.6-3.3-1.1-4.8-1.4zm92.8 53.8c0 .8-.1 1.7-.2 2.8H725c1.1 5 3.3 8.8 6.6 11.4s7.5 3.8 12.4 3.8c3.7 0 7-.6 9.9-1.9s5.9-3.3 9-6.1l12.6 11.2c-3.7 4.5-8.1 8.1-13.3 10.7s-11.4 3.8-18.4 3.8c-5.8 0-11.2-1-16.2-2.9s-9.3-4.7-12.9-8.3-6.5-7.8-8.5-12.7-3-10.3-3-16.3v-.3c0-5.5.9-10.7 2.8-15.7 1.9-4.9 4.5-9.2 7.9-12.9s7.4-6.6 12.1-8.7 9.9-3.2 15.6-3.2c6.5 0 12.1 1.2 16.8 3.5s8.7 5.4 11.8 9.3 5.5 8.4 7 13.5 2.2 10.4 2.2 15.9v.3c0 1.1-.1 2-.1 2.8zm-26.6-23c-2.8-3-6.5-4.6-11.2-4.6-4.6 0-8.4 1.5-11.2 4.5-2.9 3-4.7 7-5.6 12h33.2c-.7-4.8-2.4-8.8-5.2-11.9z"/><g fill="none" stroke="#000" stroke-linejoin="round" stroke-miterlimit="10"><path d="M878.1 417.4c-2 5-4.6 9.2-7.8 12.6s-7 6-11.2 7.8c-4.3 1.7-8.7 2.6-13.3 2.6-5.9 0-10.7-1.2-14.6-3.5-3.8-2.3-7-5-9.6-8.1v10.1h-22V333.1h22v39.2c2.7-3.6 6-6.6 9.8-9 3.8-2.3 8.6-3.5 14.4-3.5 4.5 0 8.9.9 13.2 2.6s8 4.3 11.3 7.8c3.3 3.4 5.9 7.6 7.9 12.6s3 10.7 3 17.2v.3c-.1 6.4-1.1 12.1-3.1 17.1zm-19-17.5c0-3.2-.5-6.2-1.5-8.8-1-2.7-2.4-5-4.1-6.9s-3.7-3.4-6-4.4-4.7-1.5-7.3-1.5-5 .5-7.3 1.5-4.3 2.5-5.9 4.4c-1.7 1.9-3 4.2-4.1 6.9-1 2.7-1.5 5.6-1.5 8.8v.3c0 3.2.5 6.2 1.5 8.8 1 2.7 2.4 5 4.1 6.9s3.7 3.4 5.9 4.4c2.3 1 4.7 1.5 7.3 1.5s5-.5 7.3-1.5 4.3-2.5 6-4.4 3.1-4.2 4.1-6.8 1.5-5.6 1.5-8.9v-.3zm87.5 39v-8.4c-2.7 3-5.9 5.4-9.7 7.2s-8.4 2.7-13.8 2.7c-3.7 0-7.1-.5-10.4-1.5-3.2-1-6.1-2.5-8.5-4.6-2.4-2-4.3-4.5-5.7-7.5-1.4-2.9-2.1-6.4-2.1-10.2v-.3c0-4.3.8-7.9 2.3-11s3.7-5.7 6.4-7.7c2.8-2 6-3.6 9.9-4.6 3.8-1 8-1.5 12.7-1.5 4 0 7.4.3 10.4.9 2.9.6 5.8 1.4 8.6 2.3v-1.3c0-4.6-1.4-8.2-4.2-10.6s-7-3.6-12.5-3.6c-4.3 0-8 .4-11.2 1.1s-6.6 1.8-10.2 3.1l-5.5-16.8c4.3-1.8 8.7-3.3 13.3-4.5s10.2-1.7 16.8-1.7c12.1 0 20.9 2.9 26.4 8.8s8.3 14.1 8.3 24.6v45.1h-21.3zm.4-31.3c-1.9-.9-4.1-1.6-6.4-2.1a36.9 36.9 0 0 0-7.6-.8c-4.7 0-8.5.9-11.2 2.8-2.7 1.8-4.1 4.5-4.1 8v.3c0 3 1.1 5.3 3.3 7 2.2 1.6 5.1 2.5 8.7 2.5 5.2 0 9.4-1.3 12.5-3.8s4.7-5.8 4.7-9.9v-4zm92.8 31.3v-43.2c0-5.2-1.2-9.1-3.5-11.8-2.3-2.6-5.6-4-9.9-4s-7.6 1.3-10.1 4c-2.5 2.6-3.7 6.6-3.7 11.8v43.2h-22v-77.7h22v11.1c1.3-1.7 2.6-3.2 4.1-4.7s3.2-2.8 5-4 3.9-2.1 6.1-2.8 4.7-1 7.5-1c8.4 0 14.9 2.6 19.5 7.7s6.9 12.2 6.9 21.2V439h-21.9zm94.9 0l-20.3-31.7-7.7 8.1v23.6h-22V333.1h22v56.4l25.8-28.3h26.4l-29.6 30.6 30.6 47.1h-25.2z"/><g stroke-width="2" stroke-linecap="round"><path d="M463.4 431.8c-.9-14.8-34.2 18-78.6 7.8-23.8-5.5-50.3-23.9-59.1-36.7m114.8 48.4c-14.2 5.4-35.6 13.2-60.5 7.5-23.8-5.5-50.3-23.9-59.1-36.7m118.5 43.7c-13.6 4.8-37.8 16.3-66.5 9.7-23.8-5.5-50.3-23.9-59.1-36.7m93.8 52.7c-5.5 1.3-11.5 2.3-17.8 2.6-6.8.3-14.1-.2-21.7-1.9-23.8-5.5-50.3-23.9-59.1-36.7m104.9 34.7c-13.9 5.1-37.3 15.5-65 9.2-23.8-5.5-50.3-23.9-59.1-36.7m44.8 41.5c-17.8-4.1-37.2-15.5-49.5-26.3"/><path d="M398.8 498.8c-.9-14.8-34.2 18-78.6 7.8-13.4-3.1-27.6-10.2-39.1-18.2"/></g></g><defs ><path id="B" d="M850.3 475.5h3.6l-6.2 15.2h-3.1l-6.2-15.2h3.7l4.1 11.1 4.1-11.1z"/><path id="C" d="M1052.9 487.2c.8.7 1.7 1 2.9 1 .9 0 1.6-.2 2.2-.5s1.2-.8 1.9-1.3l2 1.8c-.7.9-1.6 1.5-2.6 2.1-1 .5-2.2.8-3.6.8-1.1 0-2.1-.2-3-.6s-1.8-.9-2.5-1.6-1.2-1.5-1.6-2.5a8.29 8.29 0 0 1-.6-3.2c0-1.1.2-2.1.5-3.1.4-1 .9-1.8 1.5-2.5.7-.7 1.4-1.3 2.3-1.7s1.9-.6 3-.6c1.2 0 2.3.2 3.2.7.9.4 1.7 1 2.3 1.8.6.7 1.1 1.6 1.4 2.6s.5 2 .5 3.1v1h-11.1c0 1.1.5 2 1.3 2.7zm6.2-5.2c-.1-.6-.2-1.1-.4-1.6s-.4-.9-.8-1.3c-.3-.4-.7-.6-1.2-.8-.4-.2-1-.3-1.5-.3-1.1 0-2 .4-2.6 1.1-.7.7-1.1 1.7-1.3 2.9h7.8z"/></defs></svg>