<svg xmlns="http://www.w3.org/2000/svg" width="267" height="57" fill="none" viewBox="0 0 267 57">
    <path fill="#590111" d="M56.948 26.827s1.403 9.07.912 8.791c-.514-.255-1.45 3.42-1.59 3.675-.14.256-5.824 5.582-5.988 6.327-.514 2.442-10.337 6-11.156 6.35-.818.348-15.646-5.49-15.646-5.49l2.175-9.536s7.39-13.118 6.735-13.14c-.631 0 2.292-5.141 2.97-5.164.679-.024 3.977-.884 3.252-1.256-.725-.372 3.882 1.163 3.882 1.163h2.807l4.093-.117 7.554 8.397z"/>
    <path fill="url(#paint0_radial)" d="M56.948 35.851c-.164-.465-.374-.93-.632-1.395-1.356-2.512-3.906-5.024-7.086-6.699l-.187-.093c-3.836-1.977-8.56-2.721-13.285-.884-.21.093-.444.163-.655.28l.117.07h.024c-1.871 1.209-2.947 5.186-3.11 5.279l7.086 4.512 11.623 2.512 2.012-1c.538-1.256 4.654-1.024 4.093-2.582z"/>
    <path fill="url(#paint1_linear)" d="M58 35.223c0-3.117-7.46 3.303-16.675.558-4.935-1.465-10.291-5.698-11.952-8.512-15.974 12.606-18.757 22.91-18.92 23.537-.164.628-.07 1.303.28 1.86.21.327.515.606.865.768.234.117.468.187.725.233 13.87 2 24.745 1.14 32.346-2.558 6.69-3.257 10.735-10.978 12.396-14.35 0-.024 2.011-3.257.935-1.536z"/>
    <path fill="#BA0D0D" d="M48.528 21.105c5.894 3.024 8.42 11.257 5.38 17.514C50.82 44.945 43.43 55.853 12.65 51.41c0 0 4.07-14.676 19.903-27.026 6.408-4.978 11.975-5.327 15.974-3.28zm2.105-4.047c-2.994-1.535-6.432-2.047-9.963-1.442-3.625.605-7.32 2.35-10.946 5.187C12.884 33.92 8.418 49.55 8.231 50.202c-.351 1.255.374 2.023 1.076 3.116.444.675.187 1.047.888 1.419.445.232 1.287 1.116 1.801 1.186 7.554 1.093 14.314 1.35 20.09.79 5.193-.51 9.777-1.697 13.589-3.558 7.344-3.581 10.571-8.861 12.349-12.536 1.941-4 2.292-8.838.935-13.28-1.38-4.536-4.42-8.28-8.326-10.28z"/>
    <path fill="#F20833" d="M11.786 53.48c-.421-.208-.749-.557-.983-.976-6.502-12.327-9.308-22.816-8.326-31.19.866-7.373 4.49-11.768 7.134-14.42C14.405 2.126 22.193.87 28.18 3.94c2.572 1.326 10.548 6.699 5.847 20.584-6.596 19.444-19.342 28.422-19.88 28.794-.538.372-1.216.489-1.848.349-.187-.047-.35-.093-.514-.186z"/>
    <path fill="#BA0D0D" d="M27.128 5.964c4.888 2.512 7.929 8.396 4.724 17.84-6.431 18.955-19.014 27.653-19.014 27.653-14.43-27.375-6.572-37.934-1.59-42.935 4.163-4.186 10.945-5.093 15.88-2.558zm2.105-4.047C22.38-1.595 13.446-.176 7.997 5.313c-2.9 2.884-6.83 7.675-7.788 15.746-.492 4.186-.117 8.884 1.146 13.931 1.38 5.606 3.882 11.862 7.437 18.584.444.837 1.123 1.512 1.965 1.93.327.163.654.303 1.005.373 1.287.302 2.62.07 3.695-.698.562-.396 13.893-9.792 20.746-29.934 1.824-5.373 2.058-10.21.678-14.374-1.286-3.954-3.93-7.047-7.648-8.954z"/>
    <path fill="#000" d="M70.458 47.34V17.287h6.8v24.089H92.64v5.964H70.458zm27.837-25.53v-5.801h7.069v5.8h-7.07zm.202 25.53V24.333h6.698V47.34h-6.698zm25.885-25.99c-.472-.098-1.01-.163-1.582-.163-1.616 0-2.424.82-2.424 2.49v.886h5.419v5.309h-5.318V47.34h-6.698V29.905h-2.794V24.53h2.76v-1.442c0-2.557.64-4.425 1.885-5.605 1.245-1.18 3.063-1.77 5.453-1.77 1.043 0 1.952.066 2.726.164.741.099 1.448.263 2.054.46v5.44c-.505-.197-1.01-.328-1.481-.426zm28.241 15.962c0 .229-.034.491-.068.819h-16.426c.337 1.475.976 2.622 2.02 3.376 1.01.753 2.255 1.147 3.77 1.147 1.111 0 2.12-.197 2.996-.558.875-.36 1.784-.983 2.726-1.802l3.837 3.31c-1.09 1.328-2.469 2.402-4.039 3.146-1.582.754-3.467 1.148-5.588 1.148-1.75 0-3.399-.296-4.914-.853-1.515-.557-2.827-1.376-3.938-2.458-1.111-1.049-1.953-2.294-2.592-3.769-.606-1.442-.909-3.048-.909-4.817v-.131c0-1.64.303-3.18.875-4.622.572-1.475 1.38-2.72 2.39-3.834 1.044-1.082 2.255-1.934 3.669-2.59 1.414-.622 2.996-.95 4.746-.95 1.953 0 3.669.328 5.117 1.016 1.39.654 2.619 1.593 3.601 2.753.943 1.147 1.65 2.491 2.121 3.999.471 1.507.673 3.08.673 4.686v.099c-.034.36-.034.655-.067.885zm-8.079-6.817c-.841-.918-1.986-1.344-3.399-1.344-1.414 0-2.559.459-3.4 1.344-.875.884-1.448 2.064-1.683 3.572h10.098c-.236-1.475-.774-2.655-1.616-3.572z"/>
    <path fill="#F20833" d="M181.336 41.175c-.612 1.493-1.394 2.754-2.414 3.782-.986 1.029-2.142 1.792-3.435 2.323-1.292.53-2.686.796-4.08.796-1.802 0-3.298-.332-4.488-1.028-1.19-.697-2.176-1.493-2.958-2.422v3.019h-6.766V15.892h6.766v11.746c.816-1.095 1.836-1.991 2.992-2.688 1.156-.697 2.652-1.061 4.42-1.061 1.394 0 2.754.265 4.046.796 1.293.53 2.449 1.294 3.469 2.322 1.02 1.029 1.802 2.29 2.414 3.783.612 1.493.918 3.218.918 5.143v.1c.034 1.923-.272 3.649-.884 5.142zm-6.264-4.768c0-.92-.157-1.775-.439-2.535-.283-.76-.69-1.426-1.161-1.965-.485-.52-1.059-.95-1.693-1.267-.659-.285-1.349-.444-2.07-.444-.753 0-1.443.159-2.07.444-.659.285-1.192.697-1.694 1.267s-.847 1.204-1.16 1.965c-.283.76-.439 1.616-.439 2.535v.095c0 .919.156 1.774.439 2.535.282.76.658 1.425 1.16 1.964.471.539 1.035.95 1.694 1.268.658.285 1.348.443 2.07.443.752 0 1.442-.158 2.07-.443.658-.286 1.223-.697 1.693-1.268.502-.538.878-1.204 1.161-1.933.282-.76.439-1.616.439-2.535v-.126zm27.589 11.252v-2.44c-.797.867-1.793 1.573-2.922 2.087-1.129.513-2.491.77-4.118.77-1.057 0-2.109-.152-3.121-.45-.963-.288-1.827-.738-2.557-1.316-.731-.578-1.295-1.316-1.727-2.15-.432-.867-.631-1.83-.631-2.954v-.097c0-1.22.233-2.311.698-3.21.464-.899 1.095-1.637 1.926-2.215.83-.578 1.826-1.028 2.955-1.317 1.129-.288 2.424-.449 3.819-.449 1.195 0 2.225.096 3.121.257.881.156 1.747.382 2.59.674v-.385c0-1.349-.431-2.376-1.261-3.082-.831-.707-2.092-1.06-3.753-1.06-1.262 0-2.391.097-3.354.321-.963.225-1.992.514-3.055.9l-1.66-4.88c1.262-.547 2.623-.964 3.985-1.317 1.394-.321 3.088-.514 5.047-.514 3.62 0 6.276.867 7.904 2.569 1.66 1.701 2.49 4.077 2.49 7.16v13.098h-6.376zm-.775-9.557c-.573-.232-1.248-.406-1.956-.55-.708-.146-1.484-.204-2.327-.204-1.451 0-2.564.232-3.407.725-.809.493-1.248 1.189-1.248 2.088v.087c0 .783.337 1.391 1.012 1.826.675.435 1.552.638 2.665.638 1.585 0 2.867-.319 3.811-.986.945-.666 1.45-1.507 1.45-2.58v-1.044zm27.317 9.974v-12.71c0-1.529-.335-2.7-1.036-3.447-.702-.78-1.704-1.17-2.974-1.17-1.27 0-2.306.39-3.041 1.17-.735.78-1.103 1.918-1.103 3.446v12.711H214.4V25.255h6.649v3.25c.368-.487.802-.942 1.237-1.397.468-.455.969-.845 1.503-1.17.568-.358 1.17-.618 1.838-.813.668-.195 1.437-.293 2.272-.293 2.54 0 4.511.748 5.881 2.243 1.37 1.496 2.072 3.576 2.072 6.21v14.791h-6.649zm29.236 0l-6.264-9.662-2.361 2.458v7.204h-6.811V15.892h6.811v17.136l7.974-8.585h8.146l-9.138 9.292 9.446 14.341h-7.803z"/>
    <defs>
        <radialGradient id="paint0_radial" cx="0" cy="0" r="1" gradientTransform="matrix(9.376 4.13818 -3.6684 8.3116 19.933 40.893)" gradientUnits="userSpaceOnUse">
            <stop offset=".086" stop-color="#F00833"/>
            <stop offset=".502" stop-color="#F20833"/>
            <stop offset=".609" stop-color="#E40730"/>
            <stop offset=".855" stop-color="#C90529"/>
            <stop offset="1" stop-color="#BF0427"/>
        </radialGradient>
        <linearGradient id="paint1_linear" x1="16.369" x2="46.9" y1="39.286" y2="52.904" gradientUnits="userSpaceOnUse">
            <stop offset=".086" stop-color="#F00833"/>
            <stop offset=".502" stop-color="#F20833"/>
            <stop offset=".572" stop-color="#E40730"/>
            <stop offset=".732" stop-color="#C90529"/>
            <stop offset=".826" stop-color="#BF0427"/>
            <stop offset=".865" stop-color="#C20428"/>
            <stop offset=".889" stop-color="#CA052A"/>
            <stop offset=".91" stop-color="#D9062D"/>
            <stop offset=".928" stop-color="#EE0832"/>
            <stop offset=".93" stop-color="#F00833"/>
            <stop offset="1" stop-color="#BF0427"/>
        </linearGradient>
    </defs>
</svg>
