<?xml version="1.0" encoding="UTF-8" standalone="no"?><!DOCTYPE svg PUBLIC "-//W3C//DTD SVG 1.1//EN" "http://www.w3.org/Graphics/SVG/1.1/DTD/svg11.dtd"><svg width="500px" height="100%" viewBox="0 0 144 120" version="1.1" xmlns="http://www.w3.org/2000/svg" xmlnsXlink="http://www.w3.org/1999/xlink" xmlSpace="preserve" xmlnsserif="http://www.serif.com/" style="fill-rule:evenodd;clip-rule:evenodd;stroke-linejoin:round;stroke-miterlimit:2;"><rect id="Lifebanks" x="0" y="0" width="144" height="120" style="fill:none;"/><g><path d="M6.886,64.577c0,1.061 0.87,1.921 1.942,1.921l43.306,-0c1.073,-0 1.942,-0.86 1.942,-1.921c0,-1.06 -0.869,-1.92 -1.942,-1.92l-43.306,-0c-1.072,-0 -1.942,0.86 -1.942,1.92Z" style="fill:#f5dfec;fill-rule:nonzero;"/><path d="M82.03,64.198c-0,1.258 1.031,2.278 2.303,2.278l51.389,0c1.273,0 2.304,-1.02 2.304,-2.278c0,-1.259 -1.031,-2.279 -2.304,-2.279l-51.389,-0c-1.272,-0 -2.303,1.02 -2.303,2.279Z" style="fill:#f5dfec;fill-rule:nonzero;"/><path d="M18.364,53.07c-0,1.259 1.031,2.279 2.304,2.279l51.389,0c1.272,0 2.304,-1.02 2.304,-2.279c0,-1.258 -1.032,-2.278 -2.304,-2.278l-51.389,-0c-1.273,-0 -2.304,1.02 -2.304,2.278Z" style="fill:#f5dfec;fill-rule:nonzero;"/><path d="M106.908,71.83c0,1.258 -0.808,2.278 -1.805,2.278l-40.256,0c-0.997,0 -1.805,-1.02 -1.805,-2.278c-0,-1.259 0.808,-2.28 1.805,-2.28l40.256,0c0.997,0 1.805,1.021 1.805,2.28Z" style="fill:#f5dfec;fill-rule:nonzero;"/><path d="M122.409,72.181c0,1.258 -1.032,2.279 -2.304,2.279l-6.235,-0c-1.273,-0 -2.304,-1.021 -2.304,-2.279c-0,-1.259 1.031,-2.279 2.304,-2.279l6.235,0c1.272,0 2.304,1.02 2.304,2.279Z" style="fill:#f5dfec;fill-rule:nonzero;"/><path d="M108.397,39.058c0,1.258 -1.032,2.279 -2.304,2.279l-6.235,-0c-1.273,-0 -2.305,-1.021 -2.305,-2.279c0,-1.259 1.032,-2.279 2.305,-2.279l6.235,0c1.272,0 2.304,1.02 2.304,2.279Z" style="fill:#f5dfec;fill-rule:nonzero;"/><path d="M95.083,36.447c-0,2.853 2.339,5.167 5.224,5.167c2.886,-0 5.226,-2.314 5.226,-5.167c-0,-2.854 -2.34,-5.167 -5.226,-5.167c-2.885,0 -5.224,2.313 -5.224,5.167Z" style="fill:#f5dfec;fill-rule:nonzero;"/><path d="M116.991,56.101c-0,5.438 -4.458,9.845 -9.956,9.845c-5.498,0 -9.956,-4.407 -9.956,-9.845c0,-5.437 4.458,-9.844 9.956,-9.844c5.498,-0 9.956,4.407 9.956,9.844Z" style="fill:#f5dfec;fill-rule:nonzero;"/><path d="M100.223,55.627c0,6.453 -5.291,11.685 -11.816,11.685c-6.526,-0 -11.817,-5.232 -11.817,-11.685c0,-6.453 5.291,-11.685 11.817,-11.685c6.525,0 11.816,5.232 11.816,11.685Z" style="fill:#f5dfec;fill-rule:nonzero;"/><path d="M103.491,75.426c0,3.526 -2.889,6.382 -6.454,6.382c-3.564,0 -6.454,-2.856 -6.454,-6.382c-0,-3.525 2.89,-6.382 6.454,-6.382c3.565,-0 6.454,2.857 6.454,6.382Z" style="fill:#f5dfec;fill-rule:nonzero;"/><path d="M30.093,69.131c-0,2.97 -2.435,5.379 -5.439,5.379c-3.004,-0 -5.439,-2.409 -5.439,-5.379c-0,-2.97 2.435,-5.378 5.439,-5.378c3.004,-0 5.439,2.408 5.439,5.378Z" style="fill:#f5dfec;fill-rule:nonzero;"/><path d="M42.617,72.36c0,4.118 -3.375,7.455 -7.539,7.455c-4.164,0 -7.539,-3.337 -7.539,-7.455c-0,-4.118 3.375,-7.456 7.539,-7.456c4.164,0 7.539,3.338 7.539,7.456Z" style="fill:#f5dfec;fill-rule:nonzero;"/><path d="M52.662,70.784c-0,4.117 -3.376,7.455 -7.54,7.455c-4.164,-0 -7.54,-3.338 -7.54,-7.455c0,-4.118 3.376,-7.456 7.54,-7.456c4.164,-0 7.54,3.338 7.54,7.456Z" style="fill:#f5dfec;fill-rule:nonzero;"/><path d="M44.628,45.295c-0,4.886 -4.006,8.847 -8.947,8.847c-4.941,0 -8.947,-3.961 -8.947,-8.847c0,-4.886 4.006,-8.847 8.947,-8.847c4.941,-0 8.947,3.961 8.947,8.847Z" style="fill:#f5dfec;fill-rule:nonzero;"/><path d="M62.295,42.549c-0,6.402 -5.249,11.591 -11.722,11.591c-6.473,0 -11.722,-5.189 -11.722,-11.591c0,-6.402 5.249,-11.591 11.722,-11.591c6.473,-0 11.722,5.189 11.722,11.591Z" style="fill:#f5dfec;fill-rule:nonzero;"/><path d="M31.367,50.007c-0,2.282 -1.872,4.133 -4.181,4.133c-2.308,0 -4.18,-1.851 -4.18,-4.133c0,-2.283 1.872,-4.134 4.18,-4.134c2.309,-0 4.181,1.851 4.181,4.134Z" style="fill:#f5dfec;fill-rule:nonzero;"/><path d="M39.158,61.822l-5.435,1.926l7.232,3.841l-1.797,-5.767Z" style="fill:#f5dfec;fill-rule:nonzero;"/><path d="M68.795,24.422c-19.839,-0 -35.98,15.961 -35.98,35.58c-0,19.618 16.141,35.579 35.98,35.579c19.84,0 35.98,-15.961 35.98,-35.579c0,-19.619 -16.14,-35.58 -35.98,-35.58Zm0,71.24c-4.868,0 -9.59,-0.942 -14.036,-2.802c-4.295,-1.797 -8.152,-4.368 -11.463,-7.642c-3.312,-3.276 -5.913,-7.089 -7.728,-11.336c-1.881,-4.396 -2.834,-9.066 -2.834,-13.88c-0,-4.814 0.953,-9.485 2.834,-13.881c1.815,-4.247 4.416,-8.06 7.728,-11.335c3.311,-3.275 7.168,-5.846 11.463,-7.643c4.446,-1.859 9.168,-2.802 14.036,-2.802c4.868,0 9.591,0.943 14.037,2.802c4.295,1.797 8.151,4.368 11.463,7.643c3.312,3.275 5.912,7.088 7.728,11.335c1.881,4.396 2.833,9.067 2.833,13.881c0,4.814 -0.952,9.484 -2.833,13.88c-1.816,4.247 -4.416,8.06 -7.728,11.336c-3.312,3.274 -7.168,5.845 -11.463,7.642c-4.446,1.86 -9.169,2.802 -14.037,2.802Z" style="fill:#f59496;fill-rule:nonzero;"/><path d="M70.217,20.375c-0.323,-0.011 -0.651,-0.019 -0.976,-0.022l0.002,-0.162c0.326,0.004 0.655,0.011 0.98,0.022l-0.006,0.162Zm-2.927,0.003l-0.007,-0.161c0.324,-0.012 0.653,-0.021 0.979,-0.025l0.002,0.162c-0.324,0.004 -0.652,0.012 -0.974,0.024Zm4.876,0.11c-0.323,-0.026 -0.651,-0.049 -0.974,-0.068l0.009,-0.161c0.325,0.019 0.654,0.042 0.979,0.068l-0.014,0.161Zm-6.826,0.007l-0.014,-0.16c0.324,-0.028 0.653,-0.051 0.979,-0.071l0.01,0.161c-0.324,0.02 -0.652,0.043 -0.975,0.07Zm8.767,0.2c-0.321,-0.042 -0.647,-0.081 -0.969,-0.115l0.018,-0.16c0.323,0.034 0.65,0.073 0.972,0.115l-0.021,0.16Zm-10.708,0.011l-0.021,-0.16c0.321,-0.042 0.649,-0.082 0.973,-0.117l0.018,0.16c-0.323,0.035 -0.649,0.075 -0.97,0.117Zm12.637,0.289c-0.318,-0.057 -0.642,-0.112 -0.963,-0.162l0.026,-0.159c0.322,0.05 0.647,0.105 0.966,0.162l-0.029,0.159Zm-14.564,0.015l-0.03,-0.158c0.32,-0.059 0.645,-0.114 0.966,-0.165l0.026,0.16c-0.32,0.05 -0.644,0.105 -0.962,0.163Zm16.476,0.378c-0.316,-0.073 -0.636,-0.143 -0.954,-0.208l0.033,-0.158c0.319,0.066 0.641,0.136 0.958,0.209l-0.037,0.157Zm-18.387,0.019l-0.038,-0.157c0.316,-0.074 0.638,-0.145 0.957,-0.211l0.034,0.158c-0.318,0.066 -0.639,0.137 -0.953,0.21Zm20.277,0.466c-0.312,-0.088 -0.629,-0.174 -0.942,-0.254l0.04,-0.156c0.315,0.081 0.633,0.166 0.947,0.255l-0.045,0.155Zm-22.167,0.023l-0.044,-0.155c0.312,-0.089 0.63,-0.176 0.945,-0.257l0.041,0.156c-0.313,0.081 -0.63,0.167 -0.942,0.256Zm24.034,0.554c-0.308,-0.103 -0.622,-0.204 -0.932,-0.3l0.049,-0.154c0.311,0.096 0.626,0.198 0.935,0.301l-0.052,0.153Zm-25.895,0.026l-0.054,-0.153c0.308,-0.104 0.621,-0.205 0.932,-0.302l0.049,0.153c-0.309,0.097 -0.621,0.198 -0.927,0.302Zm27.733,0.642c-0.301,-0.118 -0.609,-0.234 -0.915,-0.345l0.057,-0.151c0.306,0.111 0.615,0.228 0.918,0.346l-0.06,0.15Zm-29.566,0.028l-0.06,-0.15c0.302,-0.119 0.61,-0.236 0.916,-0.348l0.056,0.152c-0.304,0.111 -0.61,0.227 -0.912,0.346Zm31.368,0.729c-0.295,-0.133 -0.596,-0.264 -0.896,-0.389l0.064,-0.149c0.301,0.127 0.604,0.258 0.9,0.391l-0.068,0.147Zm-33.157,0.025l-0.068,-0.146c0.295,-0.133 0.596,-0.265 0.895,-0.39l0.063,0.148c-0.297,0.125 -0.597,0.256 -0.89,0.388Zm34.919,0.818c-0.288,-0.147 -0.583,-0.292 -0.876,-0.432l0.072,-0.146c0.294,0.141 0.59,0.287 0.879,0.434l-0.075,0.144Zm-36.671,0.023l-0.075,-0.143c0.289,-0.147 0.582,-0.293 0.875,-0.433l0.071,0.145c-0.291,0.14 -0.584,0.285 -0.871,0.431Zm38.389,0.903c-0.282,-0.161 -0.569,-0.32 -0.853,-0.474l0.078,-0.141c0.286,0.154 0.574,0.314 0.857,0.475l-0.082,0.14Zm-40.097,0.022l-0.082,-0.14c0.281,-0.16 0.567,-0.32 0.852,-0.474l0.078,0.141c-0.283,0.154 -0.569,0.313 -0.848,0.473Zm41.766,0.986c-0.273,-0.174 -0.551,-0.347 -0.829,-0.514l0.085,-0.138c0.279,0.168 0.558,0.342 0.832,0.517l-0.088,0.135Zm-43.429,0.02l-0.088,-0.136c0.274,-0.174 0.552,-0.348 0.828,-0.515l0.085,0.138c-0.275,0.166 -0.552,0.339 -0.825,0.513Zm45.045,1.067c-0.264,-0.187 -0.533,-0.373 -0.802,-0.554l0.093,-0.133c0.268,0.181 0.54,0.368 0.804,0.556l-0.095,0.131Zm-46.656,0.018l-0.095,-0.131c0.263,-0.187 0.533,-0.373 0.802,-0.555l0.092,0.134c-0.268,0.18 -0.537,0.366 -0.799,0.552Zm48.217,1.144c-0.255,-0.199 -0.515,-0.398 -0.773,-0.59l0.098,-0.129c0.26,0.193 0.521,0.393 0.777,0.593l-0.102,0.126Zm-49.774,0.018l-0.102,-0.127c0.256,-0.2 0.516,-0.4 0.775,-0.592l0.098,0.128c-0.257,0.192 -0.517,0.391 -0.771,0.591Zm51.276,1.218c-0.244,-0.21 -0.494,-0.421 -0.744,-0.627l0.105,-0.124c0.251,0.207 0.502,0.419 0.746,0.63l-0.107,0.121Zm-52.775,0.017l-0.107,-0.121c0.244,-0.212 0.494,-0.424 0.745,-0.63l0.104,0.124c-0.249,0.205 -0.498,0.416 -0.742,0.627Zm54.213,1.289c-0.233,-0.222 -0.472,-0.444 -0.711,-0.662l0.11,-0.118c0.241,0.217 0.481,0.441 0.715,0.664l-0.114,0.116Zm-55.65,0.017l-0.113,-0.116c0.234,-0.224 0.474,-0.447 0.714,-0.665l0.109,0.119c-0.238,0.217 -0.477,0.44 -0.71,0.662Zm57.023,1.356c-0.221,-0.233 -0.449,-0.467 -0.678,-0.695l0.116,-0.113c0.229,0.229 0.458,0.464 0.68,0.697l-0.118,0.111Zm-58.395,0.017l-0.119,-0.11c0.223,-0.234 0.451,-0.469 0.681,-0.698l0.116,0.113c-0.228,0.229 -0.456,0.463 -0.678,0.695Zm59.699,1.419c-0.21,-0.244 -0.427,-0.488 -0.643,-0.726l0.121,-0.108c0.217,0.24 0.435,0.485 0.646,0.729l-0.124,0.105Zm-61.002,0.019l-0.125,-0.104c0.211,-0.245 0.429,-0.491 0.646,-0.73l0.121,0.107c-0.216,0.239 -0.432,0.484 -0.642,0.727Zm62.233,1.477c-0.198,-0.253 -0.402,-0.507 -0.606,-0.755l0.126,-0.102c0.204,0.249 0.41,0.504 0.609,0.759l-0.129,0.098Zm-63.466,0.023l-0.129,-0.099c0.199,-0.254 0.403,-0.51 0.61,-0.76l0.126,0.102c-0.205,0.249 -0.409,0.504 -0.607,0.757Zm64.622,1.53c-0.185,-0.262 -0.377,-0.526 -0.568,-0.783l0.131,-0.096c0.192,0.259 0.385,0.524 0.571,0.787l-0.134,0.092Zm-65.779,0.027l-0.134,-0.092c0.186,-0.264 0.379,-0.529 0.572,-0.789l0.131,0.095c-0.192,0.259 -0.384,0.524 -0.569,0.786Zm66.858,1.579c-0.173,-0.271 -0.352,-0.543 -0.529,-0.809l0.135,-0.089c0.179,0.267 0.359,0.54 0.532,0.813l-0.138,0.085Zm-67.938,0.033l-0.138,-0.086c0.173,-0.273 0.352,-0.547 0.532,-0.816l0.136,0.089c-0.179,0.268 -0.358,0.541 -0.53,0.813Zm68.935,1.623c-0.159,-0.279 -0.323,-0.559 -0.489,-0.834l0.141,-0.083c0.166,0.276 0.331,0.558 0.491,0.837l-0.143,0.08Zm-69.935,0.039l-0.142,-0.079c0.16,-0.281 0.325,-0.563 0.492,-0.841l0.14,0.083c-0.166,0.276 -0.331,0.558 -0.49,0.837Zm70.85,1.661c-0.145,-0.286 -0.296,-0.574 -0.447,-0.856l0.144,-0.075c0.152,0.282 0.303,0.571 0.449,0.859l-0.146,0.072Zm-71.766,0.048l-0.146,-0.072c0.145,-0.289 0.297,-0.579 0.449,-0.864l0.145,0.076c-0.152,0.283 -0.303,0.573 -0.448,0.86Zm72.595,1.693c-0.13,-0.292 -0.267,-0.587 -0.404,-0.875l0.148,-0.069c0.138,0.29 0.274,0.586 0.405,0.879l-0.149,0.065Zm-73.427,0.059l-0.149,-0.065c0.131,-0.295 0.268,-0.593 0.407,-0.884l0.147,0.068c-0.138,0.291 -0.274,0.587 -0.405,0.881Zm74.17,1.723c-0.116,-0.298 -0.237,-0.6 -0.361,-0.897l0.151,-0.061c0.124,0.298 0.246,0.601 0.363,0.901l-0.153,0.057Zm-74.913,0.069l-0.153,-0.058c0.117,-0.301 0.239,-0.605 0.363,-0.904l0.15,0.061c-0.123,0.298 -0.244,0.601 -0.36,0.901Zm75.569,1.75c-0.102,-0.304 -0.208,-0.611 -0.317,-0.913l0.154,-0.054c0.109,0.303 0.216,0.611 0.318,0.917l-0.155,0.05Zm-76.223,0.076l-0.155,-0.05c0.101,-0.307 0.208,-0.617 0.317,-0.921l0.154,0.054c-0.109,0.303 -0.215,0.611 -0.316,0.917Zm76.787,1.773c-0.086,-0.308 -0.177,-0.621 -0.271,-0.928l0.156,-0.047c0.094,0.309 0.186,0.623 0.272,0.932l-0.157,0.043Zm-77.348,0.077l-0.157,-0.043c0.086,-0.31 0.176,-0.623 0.27,-0.932l0.156,0.046c-0.093,0.308 -0.183,0.62 -0.269,0.929Zm77.82,1.796c-0.071,-0.313 -0.146,-0.629 -0.224,-0.94l0.158,-0.038c0.078,0.312 0.154,0.629 0.225,0.943l-0.159,0.035Zm-78.287,0.078l-0.16,-0.035c0.071,-0.314 0.146,-0.631 0.224,-0.944l0.158,0.039c-0.078,0.311 -0.152,0.627 -0.222,0.94Zm78.665,1.816c-0.055,-0.316 -0.115,-0.635 -0.177,-0.949l0.16,-0.031c0.063,0.315 0.122,0.635 0.178,0.953l-0.161,0.027Zm-79.04,0.079l-0.161,-0.027c0.055,-0.318 0.114,-0.638 0.176,-0.954l0.161,0.031c-0.063,0.314 -0.122,0.634 -0.176,0.95Zm79.325,1.832c-0.04,-0.318 -0.084,-0.64 -0.131,-0.957l0.162,-0.024c0.048,0.319 0.091,0.642 0.131,0.961l-0.162,0.02Zm-79.606,0.079l-0.161,-0.019c0.039,-0.321 0.082,-0.644 0.129,-0.961l0.161,0.023c-0.046,0.316 -0.09,0.638 -0.129,0.957Zm79.796,1.842c-0.024,-0.32 -0.052,-0.644 -0.083,-0.962l0.162,-0.015c0.031,0.319 0.06,0.644 0.084,0.965l-0.163,0.012Zm-79.982,0.08l-0.163,-0.012c0.024,-0.321 0.051,-0.646 0.082,-0.966l0.163,0.016c-0.031,0.318 -0.059,0.642 -0.082,0.962Zm80.079,1.849c-0.009,-0.321 -0.021,-0.646 -0.037,-0.965l0.163,-0.008c0.016,0.321 0.028,0.646 0.037,0.969l-0.163,0.004Zm-80.171,0.08l-0.163,-0.004c0.007,-0.322 0.019,-0.648 0.034,-0.969l0.163,0.008c-0.015,0.319 -0.027,0.644 -0.034,0.965Zm80.334,1.909l-0.163,-0.004c0.008,-0.32 0.013,-0.645 0.013,-0.965l-0,-0.055l0.163,-0l-0,0.055c-0,0.321 -0.004,0.648 -0.013,0.969Zm-80.496,0.025c-0.008,-0.32 -0.012,-0.646 -0.012,-0.969l0.163,-0c0,0.321 0.004,0.646 0.012,0.965l-0.163,0.004Zm80.403,1.911l-0.163,-0.011c0.024,-0.32 0.043,-0.644 0.058,-0.964l0.163,0.007c-0.015,0.322 -0.035,0.648 -0.058,0.968Zm-80.308,0.026c-0.024,-0.32 -0.043,-0.646 -0.059,-0.968l0.163,-0.008c0.015,0.321 0.035,0.645 0.059,0.964l-0.163,0.012Zm80.119,1.904l-0.161,-0.02c0.038,-0.318 0.074,-0.641 0.105,-0.959l0.162,0.015c-0.031,0.32 -0.066,0.644 -0.106,0.964Zm-79.929,0.025c-0.04,-0.319 -0.075,-0.643 -0.107,-0.963l0.162,-0.016c0.032,0.319 0.068,0.642 0.107,0.96l-0.162,0.019Zm79.647,1.893l-0.161,-0.027c0.054,-0.316 0.106,-0.636 0.153,-0.954l0.16,0.024c-0.046,0.318 -0.098,0.64 -0.152,0.957Zm-79.363,0.026c-0.055,-0.317 -0.107,-0.639 -0.154,-0.958l0.161,-0.023c0.047,0.317 0.099,0.638 0.154,0.953l-0.161,0.028Zm78.985,1.876l-0.159,-0.034c0.07,-0.313 0.137,-0.631 0.199,-0.945l0.16,0.03c-0.062,0.316 -0.129,0.636 -0.2,0.949Zm-78.607,0.026c-0.07,-0.314 -0.138,-0.633 -0.201,-0.949l0.161,-0.031c0.062,0.314 0.129,0.632 0.2,0.945l-0.16,0.035Zm78.136,1.857l-0.158,-0.043c0.086,-0.309 0.169,-0.623 0.247,-0.934l0.158,0.038c-0.078,0.313 -0.161,0.628 -0.247,0.939Zm-77.663,0.024c-0.086,-0.31 -0.17,-0.625 -0.248,-0.938l0.158,-0.039c0.078,0.311 0.161,0.626 0.247,0.935l-0.157,0.042Zm77.097,1.836l-0.154,-0.05c0.101,-0.306 0.199,-0.617 0.293,-0.925l0.156,0.046c-0.094,0.31 -0.193,0.622 -0.295,0.929Zm-76.532,0.021c-0.101,-0.305 -0.2,-0.617 -0.294,-0.925l0.156,-0.047c0.094,0.308 0.192,0.618 0.293,0.921l-0.155,0.051Zm75.875,1.812l-0.153,-0.057c0.116,-0.302 0.231,-0.607 0.339,-0.909l0.154,0.053c-0.109,0.304 -0.224,0.611 -0.34,0.913Zm-75.218,0.014c-0.117,-0.3 -0.231,-0.606 -0.34,-0.909l0.154,-0.054c0.108,0.302 0.222,0.606 0.338,0.906l-0.152,0.057Zm74.47,1.784l-0.15,-0.065c0.131,-0.294 0.26,-0.594 0.384,-0.89l0.15,0.061c-0.123,0.298 -0.253,0.599 -0.384,0.894Zm-73.726,0.006c-0.13,-0.292 -0.259,-0.591 -0.383,-0.889l0.151,-0.061c0.124,0.296 0.252,0.595 0.382,0.885l-0.15,0.065Zm0.832,1.749c-0.145,-0.286 -0.289,-0.579 -0.427,-0.869l0.148,-0.069c0.137,0.289 0.28,0.581 0.425,0.867l-0.146,0.071Zm72.058,0.004l-0.146,-0.072c0.145,-0.288 0.289,-0.58 0.427,-0.871l0.147,0.069c-0.138,0.291 -0.282,0.585 -0.428,0.874Zm-71.141,1.704c-0.159,-0.28 -0.317,-0.565 -0.469,-0.848l0.144,-0.076c0.151,0.282 0.308,0.566 0.467,0.845l-0.142,0.079Zm70.219,0.011l-0.142,-0.079c0.159,-0.279 0.316,-0.564 0.469,-0.848l0.144,0.075c-0.153,0.286 -0.311,0.572 -0.471,0.852Zm-69.219,1.652c-0.172,-0.272 -0.344,-0.549 -0.51,-0.825l0.14,-0.083c0.166,0.276 0.337,0.552 0.509,0.822l-0.139,0.086Zm68.214,0.016l-0.138,-0.085c0.172,-0.271 0.344,-0.549 0.511,-0.825l0.14,0.083c-0.167,0.277 -0.34,0.555 -0.513,0.827Zm-67.132,1.597c-0.186,-0.263 -0.372,-0.532 -0.551,-0.8l0.136,-0.089c0.179,0.267 0.363,0.535 0.549,0.797l-0.134,0.092Zm66.047,0.021l-0.134,-0.093c0.185,-0.262 0.371,-0.53 0.55,-0.798l0.136,0.089c-0.18,0.269 -0.366,0.538 -0.552,0.802Zm-64.887,1.539c-0.2,-0.254 -0.397,-0.514 -0.59,-0.773l0.131,-0.095c0.192,0.257 0.39,0.516 0.588,0.77l-0.129,0.098Zm63.723,0.023l-0.129,-0.098c0.199,-0.253 0.396,-0.513 0.589,-0.771l0.131,0.095c-0.193,0.26 -0.391,0.521 -0.591,0.774Zm-62.488,1.481c-0.211,-0.244 -0.422,-0.494 -0.627,-0.745l0.127,-0.101c0.204,0.249 0.414,0.498 0.624,0.741l-0.124,0.105Zm61.25,0.024l-0.124,-0.104c0.211,-0.244 0.421,-0.494 0.626,-0.742l0.126,0.102c-0.205,0.249 -0.417,0.499 -0.628,0.744Zm-59.943,1.419c-0.222,-0.234 -0.445,-0.474 -0.663,-0.714l0.122,-0.108c0.217,0.239 0.439,0.479 0.66,0.712l-0.119,0.11Zm58.633,0.024l-0.118,-0.111c0.221,-0.232 0.444,-0.471 0.66,-0.71l0.122,0.107c-0.218,0.24 -0.441,0.48 -0.664,0.714Zm-57.255,1.355c-0.234,-0.223 -0.468,-0.452 -0.697,-0.681l0.116,-0.114c0.228,0.229 0.461,0.457 0.694,0.679l-0.113,0.116Zm55.876,0.023l-0.113,-0.116c0.234,-0.222 0.467,-0.45 0.695,-0.677l0.116,0.113c-0.228,0.228 -0.463,0.457 -0.698,0.68Zm-54.433,1.289c-0.245,-0.212 -0.49,-0.43 -0.729,-0.648l0.11,-0.118c0.238,0.216 0.483,0.433 0.727,0.645l-0.108,0.121Zm52.989,0.022l-0.107,-0.122c0.244,-0.211 0.488,-0.428 0.727,-0.644l0.11,0.12c-0.239,0.216 -0.485,0.434 -0.73,0.646Zm-51.482,1.22c-0.255,-0.2 -0.511,-0.406 -0.761,-0.612l0.105,-0.124c0.248,0.205 0.504,0.411 0.758,0.61l-0.102,0.126Zm49.976,0.018l-0.101,-0.126c0.254,-0.198 0.509,-0.403 0.758,-0.608l0.104,0.124c-0.25,0.206 -0.506,0.411 -0.761,0.61Zm-48.409,1.15c-0.265,-0.187 -0.531,-0.38 -0.791,-0.574l0.099,-0.129c0.258,0.193 0.523,0.385 0.786,0.573l-0.094,0.13Zm46.846,0.016l-0.095,-0.131c0.262,-0.186 0.527,-0.378 0.785,-0.571l0.099,0.129c-0.26,0.193 -0.526,0.387 -0.789,0.573Zm-45.224,1.077c-0.274,-0.175 -0.549,-0.355 -0.818,-0.537l0.091,-0.133c0.269,0.181 0.543,0.36 0.816,0.535l-0.089,0.135Zm43.605,0.011l-0.089,-0.135c0.272,-0.173 0.546,-0.353 0.813,-0.532l0.092,0.133c-0.269,0.181 -0.543,0.36 -0.816,0.534Zm-41.93,1.002c-0.282,-0.161 -0.567,-0.328 -0.844,-0.497l0.085,-0.137c0.277,0.167 0.559,0.334 0.841,0.494l-0.082,0.14Zm40.26,0.008l-0.082,-0.14c0.28,-0.16 0.562,-0.326 0.838,-0.493l0.085,0.138c-0.277,0.168 -0.56,0.334 -0.841,0.495Zm-38.537,0.923c-0.288,-0.146 -0.581,-0.3 -0.867,-0.455l0.078,-0.141c0.286,0.154 0.576,0.307 0.864,0.453l-0.075,0.143Zm36.82,0.003l-0.074,-0.143c0.287,-0.146 0.576,-0.298 0.86,-0.451l0.078,0.141c-0.284,0.155 -0.576,0.307 -0.864,0.453Zm-1.759,0.843l-0.067,-0.147c0.293,-0.132 0.59,-0.269 0.88,-0.408l0.072,0.145c-0.293,0.14 -0.59,0.278 -0.885,0.41Zm-33.293,0.002c-0.297,-0.133 -0.596,-0.272 -0.889,-0.413l0.071,-0.145c0.292,0.14 0.59,0.278 0.886,0.411l-0.068,0.147Zm31.496,0.755l-0.061,-0.15c0.3,-0.118 0.603,-0.241 0.9,-0.366l0.064,0.149c-0.298,0.125 -0.602,0.249 -0.903,0.367Zm-29.686,0.006c-0.304,-0.12 -0.61,-0.243 -0.91,-0.369l0.064,-0.149c0.299,0.126 0.604,0.249 0.906,0.368l-0.06,0.15Zm27.846,0.665l-0.053,-0.153c0.306,-0.103 0.616,-0.211 0.921,-0.323l0.056,0.152c-0.306,0.111 -0.617,0.22 -0.924,0.324Zm-26,0.007c-0.309,-0.104 -0.622,-0.213 -0.928,-0.325l0.057,-0.151c0.304,0.111 0.615,0.22 0.923,0.323l-0.052,0.153Zm24.129,0.574l-0.044,-0.155c0.31,-0.088 0.625,-0.182 0.935,-0.278l0.049,0.154c-0.311,0.096 -0.627,0.19 -0.94,0.279Zm-22.256,0.007c-0.312,-0.088 -0.628,-0.182 -0.938,-0.278l0.048,-0.155c0.31,0.097 0.625,0.19 0.935,0.278l-0.045,0.155Zm20.36,0.483l-0.038,-0.158c0.316,-0.072 0.635,-0.151 0.948,-0.232l0.041,0.157c-0.315,0.081 -0.635,0.159 -0.951,0.233Zm-18.462,0.006c-0.317,-0.074 -0.638,-0.152 -0.952,-0.233l0.042,-0.156c0.313,0.08 0.632,0.158 0.947,0.231l-0.037,0.158Zm16.543,0.391l-0.03,-0.159c0.32,-0.058 0.642,-0.121 0.958,-0.186l0.034,0.158c-0.318,0.065 -0.641,0.128 -0.962,0.187Zm-14.624,0.004c-0.32,-0.058 -0.644,-0.12 -0.962,-0.186l0.034,-0.158c0.316,0.066 0.639,0.128 0.958,0.186l-0.03,0.158Zm12.688,0.299l-0.022,-0.159c0.321,-0.043 0.646,-0.09 0.966,-0.14l0.026,0.159c-0.322,0.051 -0.648,0.098 -0.97,0.14Zm-10.752,0.004c-0.321,-0.043 -0.648,-0.089 -0.969,-0.14l0.025,-0.159c0.32,0.05 0.645,0.097 0.966,0.139l-0.022,0.16Zm8.802,0.206l-0.013,-0.16c0.323,-0.027 0.649,-0.058 0.972,-0.093l0.017,0.16c-0.323,0.035 -0.652,0.067 -0.976,0.093Zm-6.852,0.003c-0.325,-0.027 -0.653,-0.058 -0.976,-0.093l0.018,-0.16c0.321,0.034 0.648,0.065 0.972,0.092l-0.014,0.161Zm4.896,0.114l-0.006,-0.161c0.324,-0.011 0.652,-0.028 0.975,-0.046l0.01,0.161c-0.325,0.019 -0.654,0.035 -0.979,0.046Zm-2.939,0.001c-0.325,-0.011 -0.655,-0.027 -0.98,-0.046l0.01,-0.161c0.324,0.019 0.652,0.035 0.975,0.046l-0.005,0.161Zm1.457,0.026c-0.16,-0 -0.319,-0.001 -0.477,-0.003l0.001,-0.161c0.326,0.004 0.652,0.004 0.977,-0l0.002,0.161c-0.167,0.002 -0.336,0.003 -0.503,0.003Z" style="fill:#f59496;fill-rule:nonzero;"/><path d="M68.268,12.441l-0.001,-0.161c0.325,-0.004 0.652,-0.004 0.978,-0.001l-0.001,0.161c-0.326,-0.003 -0.651,-0.003 -0.976,0.001Zm2.924,0.055c-0.323,-0.015 -0.65,-0.028 -0.974,-0.037l0.005,-0.162c0.325,0.01 0.653,0.022 0.977,0.038l-0.008,0.161Zm-4.871,0.004l-0.009,-0.161c0.325,-0.017 0.654,-0.029 0.977,-0.039l0.006,0.161c-0.324,0.01 -0.651,0.023 -0.974,0.039Zm6.816,0.129c-0.324,-0.028 -0.651,-0.054 -0.972,-0.076l0.012,-0.161c0.322,0.022 0.65,0.048 0.975,0.077l-0.015,0.16Zm-8.761,0.007l-0.015,-0.16c0.324,-0.029 0.652,-0.056 0.975,-0.078l0.012,0.16c-0.322,0.023 -0.649,0.049 -0.972,0.078Zm10.699,0.204c-0.321,-0.042 -0.647,-0.08 -0.968,-0.115l0.017,-0.161c0.323,0.035 0.65,0.074 0.972,0.116l-0.021,0.16Zm-12.636,0.01l-0.022,-0.16c0.322,-0.042 0.648,-0.081 0.972,-0.117l0.017,0.16c-0.321,0.036 -0.647,0.075 -0.967,0.117Zm14.563,0.278c-0.318,-0.054 -0.641,-0.106 -0.962,-0.154l0.025,-0.16c0.321,0.049 0.645,0.101 0.965,0.155l-0.028,0.159Zm-16.49,0.013l-0.028,-0.159c0.319,-0.055 0.644,-0.107 0.965,-0.156l0.025,0.16c-0.321,0.048 -0.645,0.1 -0.962,0.155Zm18.404,0.352c-0.315,-0.067 -0.635,-0.131 -0.955,-0.192l0.031,-0.159c0.32,0.062 0.642,0.126 0.958,0.193l-0.034,0.158Zm-20.318,0.016l-0.034,-0.157c0.316,-0.068 0.639,-0.133 0.958,-0.195l0.031,0.158c-0.318,0.062 -0.64,0.127 -0.955,0.194Zm22.216,0.426c-0.314,-0.08 -0.632,-0.157 -0.947,-0.231l0.038,-0.157c0.316,0.074 0.635,0.152 0.95,0.232l-0.041,0.156Zm-24.113,0.019l-0.041,-0.156c0.316,-0.081 0.635,-0.159 0.95,-0.233l0.038,0.157c-0.314,0.074 -0.632,0.152 -0.947,0.232Zm25.99,0.499c-0.309,-0.092 -0.624,-0.182 -0.935,-0.268l0.043,-0.156c0.313,0.087 0.629,0.177 0.94,0.27l-0.048,0.154Zm-27.867,0.023l-0.047,-0.155c0.312,-0.093 0.628,-0.184 0.939,-0.271l0.044,0.155c-0.31,0.087 -0.625,0.178 -0.936,0.271Zm29.73,0.574c-0.309,-0.106 -0.62,-0.209 -0.928,-0.308l0.05,-0.153c0.309,0.098 0.622,0.202 0.931,0.308l-0.053,0.153Zm-31.583,0.022l-0.054,-0.152c0.307,-0.106 0.619,-0.21 0.927,-0.309l0.051,0.153c-0.308,0.099 -0.618,0.203 -0.924,0.308Zm33.417,0.648c-0.303,-0.117 -0.611,-0.233 -0.913,-0.344l0.056,-0.152c0.304,0.112 0.613,0.228 0.917,0.346l-0.06,0.15Zm-35.245,0.023l-0.06,-0.15c0.303,-0.118 0.611,-0.234 0.913,-0.346l0.058,0.152c-0.302,0.11 -0.609,0.227 -0.911,0.344Zm37.05,0.721c-0.297,-0.129 -0.599,-0.257 -0.899,-0.38l0.064,-0.15c0.3,0.124 0.603,0.253 0.901,0.383l-0.066,0.147Zm-38.841,0.021l-0.067,-0.148c0.297,-0.13 0.598,-0.258 0.896,-0.381l0.062,0.149c-0.296,0.123 -0.596,0.25 -0.891,0.38Zm40.612,0.796c-0.291,-0.142 -0.588,-0.282 -0.881,-0.417l0.069,-0.147c0.295,0.136 0.592,0.277 0.884,0.419l-0.072,0.145Zm-42.373,0.017l-0.072,-0.145c0.291,-0.141 0.586,-0.282 0.879,-0.417l0.069,0.146c-0.291,0.135 -0.586,0.275 -0.876,0.416Zm44.11,0.869c-0.285,-0.153 -0.576,-0.305 -0.864,-0.452l0.075,-0.143c0.289,0.148 0.58,0.3 0.866,0.453l-0.077,0.142Zm-45.837,0.014l-0.077,-0.142c0.284,-0.153 0.575,-0.305 0.861,-0.452l0.075,0.144c-0.286,0.146 -0.575,0.297 -0.859,0.45Zm47.533,0.942c-0.278,-0.165 -0.561,-0.328 -0.843,-0.487l0.081,-0.14c0.283,0.16 0.567,0.324 0.846,0.488l-0.084,0.139Zm-49.222,0.01l-0.084,-0.138c0.279,-0.165 0.562,-0.328 0.843,-0.487l0.081,0.141c-0.28,0.157 -0.563,0.32 -0.84,0.484Zm50.879,1.012c-0.271,-0.175 -0.548,-0.35 -0.823,-0.519l0.087,-0.137c0.276,0.17 0.553,0.345 0.825,0.521l-0.089,0.135Zm-52.529,0.008l-0.09,-0.135c0.271,-0.175 0.549,-0.35 0.823,-0.52l0.086,0.137c-0.273,0.169 -0.549,0.343 -0.819,0.518Zm54.141,1.079c-0.263,-0.185 -0.533,-0.371 -0.8,-0.551l0.091,-0.133c0.269,0.181 0.54,0.367 0.804,0.553l-0.095,0.131Zm-55.749,0.006l-0.095,-0.132c0.265,-0.186 0.534,-0.372 0.802,-0.552l0.092,0.133c-0.267,0.18 -0.536,0.365 -0.799,0.551Zm57.316,1.146c-0.258,-0.197 -0.519,-0.393 -0.778,-0.584l0.098,-0.129c0.259,0.191 0.522,0.388 0.779,0.585l-0.099,0.128Zm-58.878,0.002l-0.1,-0.127c0.256,-0.197 0.518,-0.393 0.778,-0.584l0.097,0.129c-0.258,0.19 -0.52,0.386 -0.775,0.582Zm60.395,1.21c-0.247,-0.206 -0.5,-0.413 -0.752,-0.614l0.102,-0.126c0.252,0.203 0.507,0.41 0.755,0.616l-0.105,0.124Zm-61.911,0.001l-0.105,-0.124c0.248,-0.206 0.502,-0.412 0.754,-0.615l0.102,0.126c-0.251,0.201 -0.503,0.407 -0.751,0.613Zm63.377,1.27c-0.24,-0.216 -0.484,-0.433 -0.726,-0.643l0.107,-0.121c0.244,0.211 0.489,0.428 0.73,0.645l-0.111,0.119Zm-64.842,-0l-0.109,-0.119c0.239,-0.216 0.484,-0.433 0.728,-0.645l0.108,0.122c-0.244,0.21 -0.488,0.426 -0.727,0.642Zm-1.412,1.328l-0.115,-0.115c0.231,-0.226 0.467,-0.452 0.702,-0.673l0.112,0.117c-0.234,0.22 -0.469,0.446 -0.699,0.671Zm67.667,-0c-0.23,-0.225 -0.465,-0.451 -0.7,-0.671l0.113,-0.117c0.235,0.221 0.471,0.448 0.702,0.673l-0.115,0.115Zm-69.025,1.383l-0.119,-0.11c0.221,-0.234 0.448,-0.47 0.674,-0.701l0.117,0.113c-0.225,0.229 -0.451,0.464 -0.672,0.698Zm70.383,0c-0.222,-0.234 -0.448,-0.469 -0.672,-0.698l0.117,-0.112c0.226,0.229 0.452,0.465 0.674,0.7l-0.119,0.11Zm1.299,1.436c-0.211,-0.243 -0.427,-0.486 -0.642,-0.725l0.121,-0.107c0.216,0.239 0.433,0.484 0.645,0.726l-0.124,0.106Zm-72.982,0.001l-0.124,-0.105c0.212,-0.244 0.429,-0.489 0.645,-0.728l0.122,0.108c-0.216,0.238 -0.432,0.482 -0.643,0.725Zm74.222,1.484c-0.201,-0.25 -0.407,-0.502 -0.612,-0.749l0.125,-0.102c0.207,0.248 0.413,0.5 0.615,0.751l-0.128,0.1Zm-75.464,0.003l-0.127,-0.1c0.201,-0.251 0.408,-0.504 0.615,-0.752l0.126,0.102c-0.206,0.247 -0.413,0.5 -0.614,0.75Zm76.641,1.531c-0.19,-0.258 -0.385,-0.518 -0.581,-0.773l0.13,-0.097c0.196,0.255 0.392,0.516 0.583,0.775l-0.132,0.095Zm-77.82,0.006l-0.132,-0.095c0.191,-0.26 0.388,-0.521 0.584,-0.777l0.13,0.098c-0.196,0.255 -0.392,0.515 -0.582,0.774Zm78.934,1.572c-0.18,-0.265 -0.364,-0.533 -0.548,-0.794l0.133,-0.093c0.185,0.263 0.37,0.531 0.551,0.798l-0.136,0.089Zm-80.051,0.011l-0.135,-0.09c0.18,-0.267 0.366,-0.536 0.552,-0.799l0.133,0.092c-0.185,0.263 -0.37,0.531 -0.55,0.797Zm81.099,1.61c-0.168,-0.271 -0.341,-0.545 -0.516,-0.815l0.138,-0.087c0.175,0.27 0.348,0.546 0.517,0.818l-0.139,0.084Zm-82.15,0.017l-0.139,-0.084c0.169,-0.274 0.344,-0.551 0.519,-0.822l0.137,0.087c-0.174,0.27 -0.348,0.546 -0.517,0.819Zm83.13,1.645c-0.156,-0.278 -0.318,-0.56 -0.481,-0.836l0.141,-0.081c0.163,0.277 0.326,0.559 0.483,0.838l-0.143,0.079Zm-84.113,0.023l-0.143,-0.078c0.158,-0.281 0.321,-0.565 0.485,-0.842l0.141,0.081c-0.163,0.277 -0.326,0.559 -0.483,0.839Zm85.025,1.675c-0.146,-0.285 -0.296,-0.572 -0.447,-0.854l0.144,-0.075c0.152,0.282 0.302,0.57 0.448,0.856l-0.145,0.073Zm-85.94,0.032l-0.146,-0.072c0.147,-0.287 0.298,-0.577 0.45,-0.862l0.145,0.076c-0.152,0.284 -0.303,0.572 -0.449,0.858Zm86.781,1.701c-0.134,-0.291 -0.272,-0.583 -0.412,-0.871l0.147,-0.069c0.14,0.288 0.279,0.582 0.413,0.873l-0.148,0.067Zm-87.625,0.042l-0.148,-0.066c0.134,-0.292 0.273,-0.588 0.414,-0.879l0.147,0.069c-0.14,0.291 -0.279,0.585 -0.413,0.876Zm88.393,1.722c-0.122,-0.296 -0.248,-0.594 -0.375,-0.886l0.15,-0.064c0.127,0.293 0.254,0.592 0.376,0.889l-0.151,0.061Zm-89.164,0.055l-0.151,-0.061c0.122,-0.297 0.249,-0.598 0.378,-0.895l0.15,0.064c-0.129,0.296 -0.256,0.596 -0.377,0.892Zm89.861,1.745c-0.109,-0.301 -0.223,-0.605 -0.339,-0.904l0.152,-0.057c0.116,0.3 0.231,0.605 0.341,0.906l-0.154,0.055Zm-90.558,0.062l-0.154,-0.055c0.11,-0.303 0.225,-0.609 0.34,-0.91l0.153,0.058c-0.116,0.299 -0.23,0.604 -0.339,0.907Zm91.181,1.765c-0.097,-0.305 -0.199,-0.613 -0.302,-0.917l0.155,-0.051c0.104,0.304 0.206,0.614 0.303,0.92l-0.156,0.048Zm-91.804,0.069l-0.156,-0.048c0.098,-0.307 0.199,-0.618 0.303,-0.924l0.155,0.052c-0.104,0.304 -0.205,0.614 -0.302,0.92Zm92.351,1.781c-0.085,-0.309 -0.174,-0.621 -0.264,-0.928l0.157,-0.045c0.09,0.308 0.18,0.621 0.265,0.931l-0.158,0.042Zm-92.895,0.071l-0.157,-0.042c0.084,-0.31 0.172,-0.623 0.263,-0.932l0.156,0.045c-0.09,0.308 -0.178,0.62 -0.262,0.929Zm93.365,1.8c-0.072,-0.312 -0.148,-0.628 -0.226,-0.938l0.159,-0.039c0.078,0.311 0.154,0.628 0.226,0.942l-0.159,0.035Zm-93.832,0.071l-0.159,-0.035c0.071,-0.313 0.147,-0.63 0.225,-0.942l0.158,0.039c-0.077,0.31 -0.153,0.626 -0.224,0.938Zm94.224,1.818c-0.058,-0.316 -0.122,-0.634 -0.187,-0.947l0.16,-0.032c0.065,0.314 0.129,0.633 0.187,0.949l-0.16,0.03Zm-94.613,0.071l-0.161,-0.029c0.059,-0.316 0.121,-0.635 0.186,-0.949l0.16,0.032c-0.065,0.313 -0.127,0.631 -0.185,0.946Zm94.927,1.831c-0.046,-0.316 -0.095,-0.637 -0.147,-0.953l0.161,-0.026c0.053,0.317 0.102,0.639 0.148,0.956l-0.162,0.023Zm-95.238,0.072l-0.162,-0.022c0.045,-0.317 0.095,-0.639 0.147,-0.957l0.161,0.026c-0.052,0.317 -0.101,0.637 -0.146,0.953Zm95.474,1.842c-0.032,-0.318 -0.069,-0.64 -0.108,-0.958l0.162,-0.02c0.039,0.319 0.076,0.643 0.109,0.961l-0.163,0.017Zm-95.707,0.072l-0.163,-0.016c0.033,-0.32 0.069,-0.643 0.107,-0.961l0.162,0.019c-0.038,0.317 -0.074,0.639 -0.106,0.958Zm95.865,1.849c-0.02,-0.32 -0.043,-0.643 -0.069,-0.961l0.163,-0.013c0.026,0.319 0.049,0.643 0.069,0.964l-0.163,0.01Zm-96.02,0.073l-0.163,-0.01c0.02,-0.32 0.042,-0.644 0.068,-0.964l0.163,0.012c-0.026,0.319 -0.049,0.643 -0.068,0.962Zm96.1,1.851c-0.007,-0.318 -0.017,-0.642 -0.03,-0.961l0.163,-0.007c0.013,0.321 0.023,0.645 0.03,0.965l-0.163,0.003Zm-96.177,0.075l-0.163,-0.003c0.007,-0.321 0.016,-0.646 0.029,-0.967l0.163,0.007c-0.013,0.319 -0.022,0.643 -0.029,0.963Zm96.341,1.906l-0.163,-0.003c0.006,-0.319 0.01,-0.643 0.01,-0.964l-0,-0.05l0.163,0l-0,0.05c-0,0.322 -0.004,0.647 -0.01,0.967Zm-96.503,0.026c-0.006,-0.322 -0.01,-0.648 -0.01,-0.968l0.163,0c0,0.32 0.004,0.644 0.01,0.964l-0.163,0.004Zm96.425,1.907l-0.163,-0.01c0.019,-0.318 0.036,-0.641 0.048,-0.962l0.163,0.006c-0.012,0.322 -0.029,0.647 -0.048,0.966Zm-96.346,0.023c-0.02,-0.32 -0.036,-0.645 -0.049,-0.966l0.163,-0.007c0.013,0.321 0.029,0.645 0.049,0.963l-0.163,0.01Zm96.19,1.905l-0.163,-0.016c0.033,-0.318 0.062,-0.64 0.088,-0.96l0.162,0.013c-0.026,0.32 -0.055,0.644 -0.087,0.963Zm-96.033,0.023c-0.032,-0.319 -0.062,-0.643 -0.088,-0.963l0.162,-0.013c0.026,0.319 0.056,0.642 0.089,0.96l-0.163,0.016Zm95.798,1.897l-0.162,-0.022c0.046,-0.318 0.088,-0.639 0.127,-0.956l0.162,0.019c-0.038,0.318 -0.082,0.641 -0.127,0.959Zm-95.562,0.023c-0.046,-0.318 -0.088,-0.641 -0.128,-0.959l0.162,-0.019c0.039,0.317 0.082,0.638 0.128,0.956l-0.162,0.022Zm95.249,1.887l-0.161,-0.029c0.058,-0.316 0.115,-0.635 0.166,-0.95l0.161,0.025c-0.052,0.317 -0.108,0.638 -0.166,0.954Zm-94.935,0.022c-0.058,-0.316 -0.114,-0.636 -0.167,-0.953l0.161,-0.026c0.052,0.316 0.108,0.635 0.167,0.95l-0.161,0.029Zm94.543,1.873l-0.159,-0.036c0.071,-0.312 0.14,-0.63 0.205,-0.942l0.16,0.032c-0.065,0.314 -0.135,0.632 -0.206,0.946Zm-94.15,0.022c-0.071,-0.312 -0.141,-0.63 -0.206,-0.945l0.16,-0.033c0.065,0.315 0.134,0.632 0.205,0.943l-0.159,0.035Zm93.68,1.856l-0.157,-0.042c0.083,-0.308 0.166,-0.622 0.243,-0.934l0.159,0.039c-0.079,0.312 -0.161,0.628 -0.245,0.937Zm-93.209,0.022c-0.085,-0.31 -0.167,-0.625 -0.245,-0.936l0.158,-0.039c0.078,0.31 0.16,0.624 0.244,0.933l-0.157,0.042Zm92.662,1.835l-0.155,-0.048c0.096,-0.306 0.192,-0.616 0.282,-0.923l0.157,0.045c-0.091,0.309 -0.186,0.62 -0.284,0.926Zm-92.115,0.022c-0.097,-0.308 -0.193,-0.62 -0.283,-0.926l0.157,-0.045c0.089,0.306 0.184,0.616 0.282,0.923l-0.156,0.048Zm91.49,1.819l-0.154,-0.055c0.11,-0.302 0.218,-0.609 0.322,-0.914l0.154,0.052c-0.103,0.305 -0.212,0.613 -0.322,0.917Zm-90.866,0.014c-0.11,-0.302 -0.218,-0.609 -0.321,-0.913l0.154,-0.052c0.103,0.303 0.211,0.61 0.32,0.911l-0.153,0.054Zm90.166,1.799l-0.152,-0.061c0.122,-0.298 0.243,-0.601 0.358,-0.9l0.153,0.057c-0.116,0.301 -0.237,0.604 -0.359,0.904Zm-89.467,0.008c-0.122,-0.297 -0.243,-0.601 -0.359,-0.9l0.153,-0.057c0.115,0.298 0.235,0.599 0.357,0.897l-0.151,0.06Zm0.77,1.77c-0.134,-0.291 -0.266,-0.587 -0.394,-0.881l0.15,-0.064c0.127,0.294 0.259,0.589 0.393,0.879l-0.149,0.066Zm87.922,0.003l-0.149,-0.066c0.135,-0.293 0.267,-0.591 0.395,-0.884l0.15,0.063c-0.128,0.295 -0.261,0.593 -0.396,0.887Zm-87.079,1.736c-0.147,-0.286 -0.291,-0.577 -0.43,-0.864l0.147,-0.071c0.138,0.287 0.282,0.577 0.428,0.863l-0.145,0.072Zm86.231,0.012l-0.146,-0.072c0.147,-0.287 0.292,-0.578 0.432,-0.866l0.147,0.069c-0.141,0.29 -0.286,0.582 -0.433,0.869Zm-85.318,1.693c-0.157,-0.279 -0.314,-0.565 -0.465,-0.847l0.144,-0.076c0.151,0.282 0.307,0.566 0.464,0.845l-0.143,0.078Zm84.399,0.021l-0.142,-0.079c0.158,-0.28 0.314,-0.566 0.466,-0.849l0.144,0.076c-0.152,0.284 -0.309,0.57 -0.468,0.852Zm-83.416,1.646c-0.168,-0.273 -0.337,-0.552 -0.5,-0.828l0.141,-0.082c0.163,0.276 0.33,0.554 0.498,0.826l-0.139,0.084Zm82.429,0.027l-0.14,-0.084c0.17,-0.275 0.338,-0.554 0.501,-0.829l0.141,0.081c-0.163,0.276 -0.332,0.556 -0.502,0.832Zm-81.378,1.6c-0.18,-0.267 -0.36,-0.539 -0.534,-0.808l0.138,-0.087c0.173,0.269 0.352,0.54 0.531,0.806l-0.135,0.089Zm80.322,0.032l-0.136,-0.09c0.181,-0.267 0.36,-0.539 0.534,-0.808l0.138,0.087c-0.175,0.27 -0.355,0.543 -0.536,0.811Zm-79.205,1.553c-0.191,-0.26 -0.382,-0.524 -0.567,-0.787l0.134,-0.092c0.184,0.262 0.374,0.525 0.565,0.784l-0.132,0.095Zm78.084,0.034l-0.132,-0.095c0.191,-0.259 0.382,-0.523 0.566,-0.785l0.135,0.092c-0.186,0.263 -0.377,0.528 -0.569,0.788Zm-76.903,1.505c-0.201,-0.25 -0.402,-0.507 -0.599,-0.763l0.13,-0.098c0.196,0.256 0.397,0.512 0.597,0.761l-0.128,0.1Zm75.718,0.037l-0.128,-0.1c0.201,-0.252 0.403,-0.508 0.599,-0.763l0.129,0.098c-0.196,0.256 -0.398,0.513 -0.6,0.765Zm-74.475,1.454c-0.212,-0.242 -0.423,-0.492 -0.629,-0.739l0.125,-0.103c0.206,0.247 0.417,0.495 0.627,0.738l-0.123,0.104Zm73.229,0.038l-0.123,-0.106c0.211,-0.243 0.422,-0.491 0.628,-0.737l0.126,0.102c-0.206,0.247 -0.419,0.496 -0.631,0.741Zm-71.926,1.403c-0.221,-0.233 -0.443,-0.474 -0.659,-0.713l0.121,-0.108c0.216,0.238 0.437,0.478 0.657,0.712l-0.119,0.109Zm70.621,0.037l-0.12,-0.11c0.221,-0.234 0.443,-0.473 0.658,-0.711l0.122,0.108c-0.217,0.239 -0.439,0.479 -0.66,0.713Zm-69.26,1.352c-0.23,-0.226 -0.461,-0.456 -0.688,-0.687l0.117,-0.112c0.226,0.229 0.456,0.46 0.686,0.685l-0.115,0.114Zm67.897,0.036l-0.115,-0.115c0.23,-0.225 0.461,-0.455 0.686,-0.685l0.117,0.113c-0.225,0.23 -0.457,0.46 -0.688,0.687Zm-66.48,1.298c-0.238,-0.217 -0.479,-0.438 -0.715,-0.66l0.112,-0.117c0.236,0.221 0.475,0.443 0.713,0.658l-0.11,0.119Zm65.061,0.033l-0.11,-0.119c0.239,-0.215 0.479,-0.435 0.714,-0.656l0.112,0.117c-0.235,0.221 -0.476,0.443 -0.716,0.658Zm-63.59,1.243c-0.248,-0.207 -0.498,-0.419 -0.742,-0.631l0.107,-0.121c0.244,0.212 0.492,0.422 0.74,0.629l-0.105,0.123Zm62.12,0.031l-0.105,-0.124c0.247,-0.205 0.496,-0.416 0.739,-0.627l0.108,0.121c-0.244,0.212 -0.494,0.424 -0.742,0.63Zm-60.598,1.186c-0.257,-0.197 -0.515,-0.399 -0.768,-0.601l0.103,-0.126c0.251,0.202 0.509,0.404 0.764,0.599l-0.099,0.128Zm59.077,0.027l-0.099,-0.127c0.255,-0.196 0.512,-0.397 0.763,-0.597l0.103,0.125c-0.252,0.202 -0.51,0.403 -0.767,0.599Zm-57.506,1.128c-0.265,-0.186 -0.532,-0.378 -0.792,-0.569l0.097,-0.13c0.26,0.191 0.525,0.382 0.789,0.568l-0.094,0.131Zm55.938,0.025l-0.095,-0.132c0.263,-0.186 0.528,-0.376 0.788,-0.566l0.096,0.129c-0.259,0.191 -0.525,0.382 -0.789,0.569Zm-54.321,1.068c-0.272,-0.176 -0.547,-0.357 -0.815,-0.538l0.092,-0.134c0.267,0.181 0.541,0.362 0.811,0.537l-0.088,0.135Zm52.708,0.019l-0.09,-0.136c0.271,-0.174 0.543,-0.354 0.81,-0.533l0.091,0.133c-0.267,0.18 -0.54,0.361 -0.811,0.536Zm-51.047,1.008c-0.279,-0.166 -0.56,-0.335 -0.836,-0.505l0.086,-0.138c0.275,0.17 0.556,0.34 0.833,0.504l-0.083,0.139Zm49.39,0.014l-0.083,-0.138c0.275,-0.163 0.555,-0.332 0.83,-0.501l0.086,0.136c-0.276,0.171 -0.556,0.34 -0.833,0.503Zm-47.687,0.944c-0.285,-0.152 -0.573,-0.31 -0.857,-0.47l0.081,-0.141c0.282,0.159 0.57,0.317 0.853,0.47l-0.077,0.141Zm45.991,0.01l-0.078,-0.141c0.284,-0.152 0.569,-0.309 0.85,-0.468l0.081,0.141c-0.282,0.158 -0.569,0.316 -0.853,0.468Zm-44.25,0.881c-0.292,-0.142 -0.587,-0.288 -0.876,-0.437l0.075,-0.143c0.288,0.147 0.581,0.294 0.873,0.435l-0.072,0.145Zm42.517,0.005l-0.072,-0.144c0.289,-0.141 0.581,-0.286 0.869,-0.433l0.074,0.143c-0.288,0.148 -0.58,0.293 -0.871,0.434Zm-1.767,0.815l-0.066,-0.147c0.295,-0.129 0.593,-0.263 0.885,-0.398l0.069,0.146c-0.293,0.136 -0.591,0.269 -0.888,0.399Zm-38.973,0c-0.297,-0.13 -0.597,-0.265 -0.893,-0.401l0.069,-0.146c0.294,0.135 0.593,0.27 0.89,0.4l-0.066,0.147Zm37.175,0.743l-0.06,-0.15c0.299,-0.117 0.602,-0.238 0.9,-0.361l0.062,0.149c-0.298,0.123 -0.602,0.245 -0.902,0.362Zm-35.365,0.005c-0.304,-0.118 -0.609,-0.241 -0.908,-0.365l0.062,-0.149c0.298,0.124 0.604,0.246 0.906,0.364l-0.06,0.15Zm33.531,0.667l-0.053,-0.152c0.305,-0.104 0.613,-0.215 0.917,-0.326l0.057,0.151c-0.305,0.112 -0.615,0.223 -0.921,0.327Zm-31.69,0.007c-0.308,-0.106 -0.618,-0.216 -0.924,-0.328l0.057,-0.151c0.304,0.112 0.614,0.222 0.921,0.326l-0.054,0.153Zm29.829,0.591l-0.047,-0.154c0.309,-0.092 0.622,-0.189 0.93,-0.289l0.051,0.154c-0.31,0.099 -0.624,0.196 -0.934,0.289Zm-27.961,0.008c-0.313,-0.093 -0.628,-0.191 -0.937,-0.29l0.05,-0.154c0.308,0.1 0.622,0.196 0.934,0.29l-0.047,0.154Zm26.077,0.514l-0.04,-0.156c0.313,-0.08 0.63,-0.165 0.941,-0.25l0.044,0.155c-0.312,0.086 -0.63,0.171 -0.945,0.251Zm-24.194,0.007c-0.312,-0.08 -0.631,-0.164 -0.944,-0.251l0.044,-0.155c0.312,0.086 0.629,0.17 0.941,0.249l-0.041,0.157Zm22.291,0.439l-0.034,-0.158c0.316,-0.068 0.636,-0.139 0.951,-0.212l0.037,0.157c-0.316,0.074 -0.636,0.145 -0.954,0.213Zm-20.387,0.006c-0.316,-0.067 -0.637,-0.139 -0.954,-0.213l0.038,-0.157c0.316,0.074 0.636,0.145 0.95,0.212l-0.034,0.158Zm18.467,0.363l-0.028,-0.159c0.319,-0.055 0.642,-0.113 0.958,-0.174l0.032,0.158c-0.318,0.061 -0.642,0.12 -0.962,0.175Zm-16.546,0.004c-0.321,-0.055 -0.645,-0.113 -0.962,-0.174l0.031,-0.158c0.316,0.06 0.639,0.119 0.959,0.173l-0.028,0.159Zm14.612,0.287l-0.022,-0.161c0.321,-0.041 0.647,-0.087 0.965,-0.135l0.025,0.16c-0.32,0.048 -0.646,0.094 -0.968,0.136Zm-12.678,0.003c-0.323,-0.042 -0.648,-0.087 -0.969,-0.135l0.025,-0.159c0.319,0.047 0.643,0.092 0.965,0.134l-0.021,0.16Zm10.734,0.21l-0.015,-0.161c0.322,-0.028 0.648,-0.06 0.97,-0.096l0.018,0.16c-0.323,0.035 -0.651,0.068 -0.973,0.097Zm-8.79,0.002c-0.323,-0.029 -0.651,-0.061 -0.973,-0.096l0.018,-0.16c0.321,0.035 0.647,0.067 0.969,0.096l-0.014,0.16Zm6.839,0.133l-0.008,-0.161c0.322,-0.015 0.65,-0.035 0.972,-0.057l0.012,0.16c-0.324,0.023 -0.653,0.042 -0.976,0.058Zm-4.888,0.002c-0.324,-0.016 -0.652,-0.035 -0.976,-0.058l0.011,-0.161c0.323,0.023 0.65,0.041 0.973,0.058l-0.008,0.161Zm2.934,0.057l-0.002,-0.162c0.323,-0.003 0.65,-0.009 0.974,-0.019l0.004,0.161c-0.324,0.01 -0.652,0.016 -0.976,0.02Zm-0.979,0c-0.325,-0.003 -0.654,-0.009 -0.978,-0.019l0.006,-0.161c0.322,0.01 0.649,0.016 0.974,0.019l-0.002,0.161Z" style="fill:#f59496;fill-rule:nonzero;"/><path d="M68.795,16.023c-24.522,0 -44.472,19.728 -44.472,43.977c-0,24.25 19.95,43.978 44.472,43.978c24.522,-0 44.472,-19.728 44.472,-43.978c0,-24.249 -19.95,-43.977 -44.472,-43.977Zm0,88.036c-6.015,-0 -11.849,-1.165 -17.342,-3.463c-5.305,-2.219 -10.07,-5.396 -14.162,-9.442c-4.092,-4.046 -7.304,-8.758 -9.548,-14.004c-2.324,-5.432 -3.502,-11.202 -3.502,-17.15c0,-5.947 1.178,-11.717 3.502,-17.149c2.244,-5.246 5.456,-9.958 9.548,-14.005c4.092,-4.046 8.857,-7.222 14.162,-9.441c5.493,-2.298 11.327,-3.463 17.342,-3.463c6.015,0 11.85,1.165 17.343,3.463c5.305,2.219 10.07,5.395 14.161,9.441c4.092,4.047 7.305,8.759 9.549,14.005c2.323,5.432 3.502,11.202 3.502,17.149c-0,5.948 -1.179,11.718 -3.502,17.15c-2.244,5.246 -5.457,9.958 -9.549,14.004c-4.091,4.046 -8.856,7.223 -14.161,9.442c-5.493,2.298 -11.328,3.463 -17.343,3.463Z" style="fill:#f59496;fill-rule:nonzero;"/><path d="M71.031,88.738l0.007,-0c0.12,-0.003 0.217,-0.096 0.227,-0.214l0.77,-9.889l2.466,6.03c0.036,0.087 0.122,0.145 0.217,0.145l2.989,-0c0.13,-0 0.234,-0.104 0.234,-0.232c0,-0.127 -0.104,-0.231 -0.234,-0.231l-2.831,-0l-2.78,-6.8c-0.041,-0.1 -0.145,-0.158 -0.253,-0.142c-0.108,0.017 -0.189,0.104 -0.198,0.211l-0.678,8.712l-1.098,-7.936c-0.016,-0.109 -0.106,-0.193 -0.218,-0.2c-0.11,-0.008 -0.211,0.064 -0.24,0.171l-1.448,5.281l-3.684,0l-1.891,-6.078c-0.032,-0.104 -0.133,-0.17 -0.242,-0.163c-0.108,0.008 -0.198,0.09 -0.213,0.196l-0.782,5.105l-1.465,-3.068c-0.043,-0.089 -0.138,-0.14 -0.236,-0.131c-0.098,0.01 -0.18,0.08 -0.204,0.175l-1.467,5.867l-0.613,-7.931c-0.009,-0.113 -0.099,-0.203 -0.214,-0.213c-0.114,-0.01 -0.219,0.065 -0.247,0.175l-1.581,6.28l-2.759,-6.316c-0.04,-0.092 -0.136,-0.148 -0.237,-0.138c-0.101,0.009 -0.184,0.081 -0.206,0.179l-1.599,7.033l-0.938,-3.071c-0.025,-0.082 -0.095,-0.145 -0.181,-0.16c-0.086,-0.016 -0.174,0.016 -0.228,0.084l-1.723,2.175l-8.405,0c-0.129,0 -0.234,0.104 -0.234,0.232c0,0.128 0.105,0.231 0.234,0.231l8.519,0c0.073,0 0.14,-0.032 0.184,-0.088l1.516,-1.913l1.065,3.486c0.031,0.1 0.127,0.168 0.233,0.164c0.106,-0.004 0.197,-0.078 0.22,-0.18l1.636,-7.197l2.748,6.291c0.039,0.091 0.134,0.147 0.234,0.139c0.1,-0.008 0.183,-0.078 0.208,-0.175l1.399,-5.553l0.613,7.938c0.009,0.113 0.1,0.204 0.214,0.213c0.115,0.01 0.22,-0.064 0.247,-0.175l1.659,-6.635l1.512,3.166c0.044,0.092 0.144,0.145 0.246,0.131c0.102,-0.015 0.182,-0.094 0.198,-0.195l0.743,-4.853l1.641,5.273c0.03,0.097 0.121,0.163 0.224,0.163l4.035,0c0.106,0 0.198,-0.069 0.226,-0.17l1.193,-4.352l1.238,8.953c0.016,0.115 0.116,0.2 0.232,0.2Z" style="fill:#fbcecb;fill-rule:nonzero;"/><path d="M48.998,75.783l-20.97,14.187c-0.558,0.377 -1.319,0.235 -1.7,-0.316l-18.975,-27.426c-0.381,-0.552 -0.239,-1.305 0.319,-1.682l20.97,-14.186c0.558,-0.378 1.319,-0.236 1.7,0.315l18.975,27.426c0.381,0.552 0.239,1.305 -0.319,1.682l-0,0Z" style="fill:#9f9995;fill-rule:nonzero;"/><path d="M27.37,88.8l-18.841,-27.234l20.763,-14.047l18.842,27.234l-20.764,14.047Z" style="fill:#f1f2f2;fill-rule:nonzero;"/><path d="M27.653,73.014l-5.088,3.443l-3.481,-5.032l5.088,-3.442l3.481,5.031Z" style="fill:#d1d3d4;fill-rule:nonzero;"/><path d="M32.227,79.626l-5.087,3.442l-3.481,-5.031l5.088,-3.441l3.48,5.03Z" style="fill:#d1d3d4;fill-rule:nonzero;"/><path d="M30.184,55.793l-8.638,5.844l-0.746,-1.078l8.638,-5.844l0.746,1.078Z" style="fill:#d1d3d4;fill-rule:nonzero;"/><path d="M31.446,57.618l-8.638,5.844l-0.746,-1.078l8.638,-5.844l0.746,1.078Z" style="fill:#d1d3d4;fill-rule:nonzero;"/><path d="M34.758,62.405l-8.638,5.844l-0.746,-1.078l8.638,-5.844l0.746,1.078Z" style="fill:#d1d3d4;fill-rule:nonzero;"/><path d="M36.02,64.23l-8.638,5.844l-0.745,-1.078l8.638,-5.844l0.745,1.078Z" style="fill:#d1d3d4;fill-rule:nonzero;"/><path d="M39.342,69.032l-8.638,5.844l-0.746,-1.078l8.639,-5.844l0.745,1.078Z" style="fill:#d1d3d4;fill-rule:nonzero;"/><path d="M40.604,70.854l-8.637,5.844l-0.746,-1.078l8.637,-5.844l0.746,1.078Z" style="fill:#d1d3d4;fill-rule:nonzero;"/><path d="M117.853,68.973c-0,12.019 -9.853,21.763 -22.008,21.763c-12.154,-0 -22.007,-9.744 -22.007,-21.763c-0,-12.019 22.007,-36.076 22.007,-36.076c-0,0 22.008,24.057 22.008,36.076Z" style="fill:#ac0404;fill-rule:nonzero;"/><path d="M73.838,68.975l-0,-0.015l-0,0.015Zm-0,-0.02l-0,-0.013l-0,0.013Zm-0,-0.016l-0,-0.016l-0,0.016Zm-0,-0.019l-0,-0.013l-0,0.013Zm-0,-0.017l-0,-0.032l-0,0.032Zm-0,-0.036c0.001,-0.004 0.001,-0.009 0.001,-0.013c-0,0.004 -0,0.009 -0.001,0.013Zm0.001,-0.016l-0,-0.016l-0,0.016Zm-0,-0.019l-0,-0.014l-0,0.014Zm-0,-0.018c0,-0.005 0,-0.01 0,-0.015c0,0.005 0,0.01 -0,0.015Zm0,-0.016l0,-0.015l0,0.015Zm0,-0.02c0.001,-0.004 0.001,-0.008 0.001,-0.013c-0,0.005 -0,0.008 -0.001,0.013Zm0.001,-0.016l-0,-0.016l-0,0.016Zm0.001,-0.02l-0,-0.012l-0,0.012Zm-0,-0.017c-0,-0.005 0,-0.01 0,-0.015c0,0.005 -0,0.01 -0,0.015Zm0,-0.017l0,-0.015l0,0.015Zm0.001,-0.019l-0,-0.012l-0,0.012Zm-0,-0.017c-0,-0.005 0.001,-0.01 0.001,-0.015c-0,0.005 -0.001,0.011 -0.001,0.015Zm0.001,-0.02c-0,-0.004 0,-0.007 0,-0.011c0,0.003 -0,0.008 -0,0.011Zm0,-0.017c0,-0.004 0,-0.008 0.001,-0.013c-0.001,0.004 -0.001,0.009 -0.001,0.013Zm0.001,-0.018c0,-0.005 0,-0.008 0.001,-0.013c-0.001,0.005 -0.001,0.008 -0.001,0.013Zm0.001,-0.019l-0,-0.01l-0,0.01Zm0,-0.016c0,-0.004 0,-0.009 0.001,-0.014c-0.001,0.005 -0.001,0.01 -0.001,0.014Zm0.001,-0.021c0,-0.003 0,-0.006 0.001,-0.009c-0.001,0.002 -0.001,0.006 -0.001,0.009Zm0.001,-0.016c-0,-0.004 -0,-0.009 0,-0.013c-0,0.004 -0,0.009 -0,0.013Zm0,-0.019c0,-0.003 0.001,-0.007 0.001,-0.011c0,0.004 -0.001,0.008 -0.001,0.011Zm0.001,-0.018c0.001,-0.003 0.001,-0.006 0.001,-0.01c-0,0.003 -0.001,0.007 -0.001,0.01Zm0.001,-0.016c0,-0.005 0,-0.01 0,-0.015c0,0.005 0,0.011 -0,0.015Zm0.001,-0.021l0,-0.009l0,0.009Zm0.001,-0.016c-0,-0.004 0.001,-0.008 0.001,-0.012c-0,0.004 -0.001,0.008 -0.001,0.012Zm0.001,-0.02c0,-0.003 0,-0.007 0,-0.011c0,0.004 0,0.007 -0,0.011Zm0.001,-0.018c0,-0.003 0,-0.006 0,-0.009c0,0.003 0,0.006 0,0.009Zm0,-0.015c0,-0.005 0.001,-0.01 0.001,-0.014c0,0.004 -0.001,0.009 -0.001,0.014Zm0.002,-0.022c-0,-0.003 -0,-0.006 0.001,-0.008c-0.001,0.003 -0.001,0.004 -0.001,0.008Zm0.001,-0.017c-0,-0.002 0,-0.004 0,-0.006c0,0.002 -0,0.005 -0,0.006Zm0.001,-0.022c0,-0.002 0.001,-0.004 0.001,-0.006c-0,0.002 -0.001,0.004 -0.001,0.006Zm0.001,-0.015l0,-0.006l0,0.006Zm0.002,-0.025l-0,-0.004l-0,0.004Zm0,-0.013c0,-0.002 0,-0.004 0.001,-0.006c0,0.001 -0.001,0.004 -0.001,0.006Zm0.002,-0.016l-0,-0.005l-0,0.005Zm0.001,-0.023l0,-0.005l0,0.005Zm0.001,-0.015c0.001,-0.002 0.001,-0.003 0.001,-0.005c-0,0.002 -0,0.003 -0.001,0.005Zm0.002,-0.039c0.001,-0.001 0.001,-0.002 0.001,-0.004c0,0.002 0,0.002 -0.001,0.004Zm0.005,-0.054c-0,-0 0,-0.001 0,-0.001l-0,0.001Zm0.003,-0.039l0,-0.002l0,0.002Z" style="fill:#e0b9cc;fill-rule:nonzero;"/><path d="M97.412,88.779l-0.437,0l0.014,-0.235c0.141,0.081 0.282,0.159 0.423,0.235Zm-1.102,0l-9.6,0c-0.828,-0.374 -1.628,-0.797 -2.396,-1.265c-0.028,-0.017 -0.056,-0.034 -0.083,-0.051c-1.342,-0.827 -2.588,-1.791 -3.716,-2.875l9.896,-0.315c1.877,1.319 3.903,2.531 5.886,3.838c0.004,0.003 0.008,0.005 0.013,0.009l-0,0.659Zm-17.976,-6.621c-2.821,-3.659 -4.496,-8.228 -4.496,-13.184l-0,-0.108c0.001,-0.005 0.001,-0.009 0.001,-0.014l-0,-0.039c0,-0.005 0,-0.011 0,-0.016l0,-0.021c0.001,-0.004 0.001,-0.008 0.001,-0.012l-0,-0.019c-0,-0.002 0.001,-0.003 0.001,-0.004l-0,-0.017c-0,-0.005 0,-0.011 0,-0.016l0,-0.016c0,-0.001 0.001,-0.003 0.001,-0.005l-0,-0.016c-0,-0.005 0.001,-0.011 0.001,-0.015l-0,-0.005c-0,-0.003 0,-0.008 0,-0.011l0,-0.006c0,-0.005 0,-0.009 0.001,-0.013l0,-0.006c0,-0.004 0,-0.007 0.001,-0.012l-0,-0.016c0,-0.002 0,-0.004 0,-0.006c0,-0.005 0,-0.01 0.001,-0.014l0,-0.007c0,-0.003 0,-0.007 0.001,-0.01l-0,-0.006c-0,-0.004 -0,-0.009 0,-0.014l0,-0.005c0,-0.004 0.001,-0.008 0.001,-0.012l0,-0.006c0,-0.003 0.001,-0.007 0.001,-0.01l-0,-0.006c0,-0.005 0,-0.01 0,-0.015c0.001,-0.002 0.001,-0.004 0.001,-0.006l0,-0.009c0.001,-0.003 0.001,-0.005 0.001,-0.008c-0,-0.003 0.001,-0.007 0.001,-0.011l-0,-0.008c0,-0.004 0,-0.007 0,-0.011c0,-0.002 0.001,-0.005 0.001,-0.007c0,-0.003 0,-0.006 0,-0.009l0,-0.007c0,-0.004 0.001,-0.009 0.001,-0.014c0,-0.002 0.001,-0.005 0.001,-0.008c-0,-0.003 -0,-0.004 0.001,-0.007l-0,-0.009c-0,-0.002 0,-0.005 0,-0.006c0,-0.006 0.001,-0.011 0.001,-0.016c0,-0.003 0.001,-0.004 0.001,-0.007c-0,-0.003 -0,-0.006 0,-0.009l0,-0.006c0.001,-0.006 0.001,-0.012 0.002,-0.018l-0,-0.004c0,-0.004 0,-0.007 0,-0.01c0,-0.002 0.001,-0.004 0.001,-0.006c0,-0.003 0,-0.006 0.001,-0.009l-0,-0.005c0,-0.006 0,-0.012 0.001,-0.019l0,-0.004c0.001,-0.004 0.001,-0.007 0.001,-0.011c0.001,-0.001 0.001,-0.002 0.001,-0.004c0,-0.011 0.001,-0.023 0.001,-0.035c0.001,-0.001 0.001,-0.001 0.001,-0.003c0.002,-0.017 0.003,-0.034 0.004,-0.05l0,-0.001c0.001,-0.013 0.002,-0.026 0.003,-0.038l0,-0.002c0.283,-3.491 2.184,-7.845 4.759,-12.289c0.237,0.132 0.473,0.224 0.709,0.287l-1.008,26.061Z" style="fill:#ac0404;fill-rule:nonzero;"/><path d="M96.265,35.098c2.399,2.696 9.644,15.532 11.438,18.896c3.739,7.004 5.78,15.334 5.246,23.265c-0.042,0.617 -0.128,1.224 -0.247,1.821c2.148,-3.197 3.4,-7.032 3.4,-11.158c-0,-10.026 -16.504,-29.079 -19.837,-32.824Z" style="fill:#ef6266;fill-rule:nonzero;"/><path d="M117.134,92.289l-109.385,-0c-0.981,-0 -1.775,-0.786 -1.775,-1.756c-0,-0.969 0.794,-1.755 1.775,-1.755l16.79,0l0.03,1.61l5.355,-0.098c0.617,-0.011 1.205,-0.144 1.74,-0.374c0.348,0.347 0.83,0.562 1.364,0.562l6.445,-0l-0.053,0.055l0.2,0c-0.02,-0.018 -0.039,-0.036 -0.059,-0.055l4.056,-0c0.206,-0 0.406,-0.032 0.591,-0.092c0.062,0.05 0.125,0.099 0.187,0.147l0.148,0c-0.077,-0.06 -0.155,-0.122 -0.232,-0.182c0.658,-0.253 1.139,-0.853 1.214,-1.573l10.309,0c0.187,0.082 0.375,0.164 0.564,0.242c1.483,0.621 3,1.125 4.547,1.513l0.322,0c-1.81,-0.436 -3.559,-1.026 -5.234,-1.755l25.525,0c-1.675,0.729 -3.423,1.319 -5.234,1.755l0.322,0c1.546,-0.388 3.064,-0.892 4.547,-1.513c0.189,-0.078 0.377,-0.16 0.564,-0.242l4.953,0c0.46,0.208 0.928,0.4 1.404,0.577c-0.049,0.032 -0.099,0.064 -0.149,0.096l0.079,0.119c0.079,-0.05 0.159,-0.101 0.239,-0.154c2.358,0.854 4.905,1.32 7.562,1.32l0.086,-0c1.218,-0.005 2.414,-0.108 3.577,-0.3l0,0.053l2.405,-0l0,-0.18l-0.027,0c-0.029,-0.152 -0.068,-0.274 -0.115,-0.371c1.108,-0.306 2.181,-0.695 3.21,-1.16l12.153,0c0.981,0 1.776,0.786 1.776,1.755c0,0.97 -0.795,1.756 -1.776,1.756Zm-29.898,-2.386c-0.243,0.148 -0.492,0.294 -0.739,0.435l0.072,0.124c0.248,-0.142 0.498,-0.289 0.742,-0.437l-0.075,-0.122Zm-36.896,-0.008l-0.075,0.121c0.245,0.149 0.496,0.297 0.746,0.439l0.072,-0.123c-0.248,-0.142 -0.498,-0.289 -0.743,-0.437Zm-1.45,-0.926l-0.081,0.117c0.238,0.16 0.481,0.32 0.722,0.474l0.079,-0.119c-0.241,-0.154 -0.483,-0.313 -0.72,-0.472Z" style="fill:#e0b9cc;fill-rule:nonzero;"/><path d="M76.646,90.533l-0.322,0c1.81,-0.436 3.559,-1.026 5.234,-1.755l0.199,0c-0.187,0.082 -0.375,0.164 -0.564,0.242c-1.483,0.621 -3.001,1.125 -4.547,1.513Zm-15.38,0l-0.322,0c-1.546,-0.388 -3.063,-0.892 -4.546,-1.513c-0.189,-0.078 -0.377,-0.16 -0.564,-0.242l0.199,0c1.675,0.729 3.424,1.319 5.233,1.755Z" style="fill:#de8789;fill-rule:nonzero;"/><path d="M86.569,90.464l-0.073,-0.123c0.248,-0.141 0.497,-0.288 0.74,-0.436l0.075,0.123c-0.244,0.147 -0.494,0.294 -0.742,0.436Zm-35.558,-0.007c-0.25,-0.142 -0.501,-0.29 -0.746,-0.438l0.075,-0.122c0.245,0.148 0.494,0.295 0.743,0.437l-0.072,0.123Zm37.033,-0.884l-0.079,-0.12c0.05,-0.031 0.1,-0.063 0.149,-0.096c0.056,0.021 0.113,0.042 0.169,0.062c-0.08,0.052 -0.16,0.103 -0.239,0.154Zm-38.513,-0.01c-0.242,-0.155 -0.484,-0.314 -0.722,-0.474l0.081,-0.117c0.237,0.159 0.479,0.317 0.72,0.471l-0.079,0.12Z" style="fill:#de8789;fill-rule:nonzero;"/><path d="M39.62,90.536l-0.2,-0l0.053,-0.056l0.088,0c0.02,0.019 0.039,0.037 0.059,0.056Z" style="fill:#de8789;fill-rule:nonzero;"/><path d="M44.543,90.534l-0.148,0c-0.063,-0.048 -0.125,-0.098 -0.187,-0.147c0.035,-0.011 0.069,-0.023 0.102,-0.036c0.078,0.061 0.156,0.123 0.233,0.183Z" style="fill:#de8789;fill-rule:nonzero;"/><path d="M95.845,90.736l0.02,-0l-0.02,-0Zm0.027,-0l0.013,-0l-0.013,-0Zm0.02,-0l0.014,-0l-0.014,-0Zm0.019,-0l0.018,-0l-0.018,-0Zm0.02,-0c1.219,-0.005 2.414,-0.108 3.577,-0.301l0,0.001c-1.163,0.192 -2.359,0.295 -3.577,0.3Zm5.84,-0.798c-0.351,-0.725 -1.155,-0.071 -1.624,-0.714l0,-0.446l4.834,0c-1.03,0.465 -2.102,0.854 -3.21,1.16Zm-2.263,-0.27c-0.713,-0.235 -1.413,-0.528 -2.095,-0.89l2.069,0l0.026,0.431l0,0.459Z" style="fill:#d83136;fill-rule:nonzero;"/><path d="M95.845,90.736c-2.657,-0 -5.204,-0.466 -7.562,-1.32c-0.057,-0.02 -0.113,-0.04 -0.169,-0.061c-0.476,-0.177 -0.945,-0.369 -1.404,-0.577l9.6,0l-0,0.446c-0.532,0.73 -1.496,-0.21 -1.739,1.085l-0.027,0l-0,0.18l2.404,-0l0,-1.278l0.027,-0.433l0.437,0c0.683,0.362 1.383,0.655 2.096,0.89l0,0.767c-1.163,0.193 -2.358,0.296 -3.577,0.301l-0.086,-0Z" style="fill:#c72d31;fill-rule:nonzero;"/><path d="M105.287,56.852c-0,0.279 -0.099,0.517 -0.297,0.713l-7.685,7.599l-1.443,1.427c-0.198,0.196 -0.439,0.294 -0.722,0.294c-0.283,0 -0.524,-0.098 -0.722,-0.294l-1.443,-1.427l-3.842,-3.799c-0.198,-0.196 -0.298,-0.434 -0.298,-0.714c0,-0.28 0.1,-0.518 0.298,-0.714l1.443,-1.427c0.198,-0.196 0.439,-0.294 0.722,-0.294c0.283,-0 0.524,0.098 0.722,0.294l3.12,3.096l6.962,-6.895c0.198,-0.197 0.439,-0.294 0.722,-0.294c0.283,-0 0.524,0.097 0.722,0.294l1.444,1.427c0.198,0.196 0.297,0.434 0.297,0.714Z" style="fill:#fff;fill-rule:nonzero;"/><path d="M90.875,90.478l-0.15,-7.873l-13.027,0.415l0.47,7.458l12.707,0Z" style="fill:#009acf;fill-rule:nonzero;"/><path d="M87.115,52.182l3.664,32.08l-12.542,0.399l1.26,-32.568l7.618,0.089Z" style="fill:#edddcd;fill-rule:nonzero;"/><path d="M74.162,45.367c-0.389,-1.412 -1.951,-5.167 -0.945,-6.366c0.697,-0.831 1.345,0.386 2.101,1.603c0.633,1.019 1.343,2.039 2.221,1.854c-0.258,-2.403 -2.174,-6.654 -0.77,-8.981c1.254,-2.078 1.654,0.889 1.978,2.032c0.32,1.131 0.468,3.528 1.446,4.31c1.037,-0.989 0.18,-3.982 0.136,-5.363c-0.031,-1.006 -0.012,-4.148 1.263,-4.515c2.971,-0.855 0.724,8.334 2.471,9.395c2.064,-1.077 1.858,-5.868 2.675,-7.876c0.396,-0.974 1.001,-2.968 2.123,-2.114c0.831,0.634 0.725,3.455 0.7,4.396c-0.056,2.182 -1.29,5.481 -0.44,7.614c1.56,3.91 2.984,-1.209 4.671,-1.349c3.259,-0.269 -0.824,7.809 -1.298,8.882c-0.762,1.727 -1.194,3.681 -2.669,4.91c-2.132,1.774 -4.453,2.044 -7.113,2.191c-1.553,0.085 -2.879,0.597 -4.269,-0.292c-3.121,-1.996 -3.471,-6.958 -4.241,-10.178c-0.011,-0.047 -0.025,-0.098 -0.04,-0.153Z" style="fill:#edddcd;fill-rule:nonzero;"/><path d="M81.941,73.94c-0.806,0.026 -1.481,-0.6 -1.507,-1.397c-0.026,-0.798 0.607,-1.466 1.413,-1.492l4.426,-0.14c0.806,-0.026 1.481,0.6 1.507,1.398c0.026,0.798 -0.607,1.465 -1.414,1.491l-4.425,0.14Z" style="fill:#fff;fill-rule:nonzero;"/><path d="M77.977,85.574c-1.1,0.035 -2.021,-0.818 -2.056,-1.906l-0.039,-1.182c-0.035,-1.088 0.827,-1.998 1.928,-2.033l12.718,-0.404c1.1,-0.035 2.02,0.818 2.056,1.906l0.039,1.182c0.034,1.088 -0.828,1.998 -1.928,2.033l-12.718,0.404Z" style="fill:#c4e8f2;fill-rule:nonzero;"/><path d="M83.239,52.846c-0.073,-0.171 -0.137,-0.341 -0.194,-0.51c0.073,0.18 0.14,0.352 0.194,0.51Z" style="fill:#d7cabb;fill-rule:nonzero;"/><path d="M83.045,52.338c-0.522,-1.286 -0.671,-3.866 0.252,-5.548l1.401,-1.346c0.089,-0.039 0.181,-0.074 0.278,-0.105c-0.065,0.01 -0.133,0.022 -0.206,0.036l0.038,-0.036l-0,0l1.29,-0.074c-1.497,0.726 -3.527,2.552 -3.053,7.073Zm-5.765,-2.969c0.287,-0.828 0.804,-1.622 1.488,-2.324c0.246,0.299 0.438,0.532 0.438,0.532l0.829,-0.669l3.121,-2.219l0.425,0.084l0,0.164l0.588,-0l-0.743,0.807c-0.844,0.278 -1.83,0.671 -2.769,1.129c-0.145,0.015 -0.323,0.091 -0.555,0.267c0.003,0.003 0.007,0.006 0.01,0.01c-1.289,0.679 -2.41,1.466 -2.832,2.219Zm2.369,-2.857c-0.096,-0 -0.176,-0.019 -0.247,-0.051c0.514,-0.427 1.094,-0.806 1.719,-1.119l-1.429,1.169c-0.015,0.001 -0.029,0.001 -0.043,0.001Z" style="fill:#d7cabb;fill-rule:nonzero;"/><path d="M55.845,81.507c-0,0.763 -0.627,1.383 -1.399,1.383c-0.773,-0 -1.399,-0.62 -1.399,-1.383l0,-9.656c0,-0.764 0.626,-1.383 1.399,-1.383c0.772,-0 1.399,0.619 1.399,1.383l-0,9.656Z" style="fill:#fff;fill-rule:nonzero;"/><path d="M58.632,31.409l-8.372,0c-0.226,0 -0.408,-0.181 -0.408,-0.403c-0,-0.223 0.182,-0.404 0.408,-0.404l3.16,0c0.047,-0.52 0.488,-0.927 1.026,-0.927c0.537,-0 0.979,0.407 1.025,0.927l3.161,0c0.225,0 0.408,0.181 0.408,0.404c0,0.222 -0.183,0.403 -0.408,0.403Zm11.484,0.422l-7.045,-0c-0.132,-1.321 -1.258,-2.352 -2.628,-2.352l-2.429,-0c-0.457,-0.783 -1.311,-1.31 -2.29,-1.31l-2.556,-0c-0.979,-0 -1.833,0.527 -2.29,1.31l-2.429,-0c-1.37,-0 -2.497,1.031 -2.629,2.352l-7.044,-0c-1.459,-0 -2.642,1.169 -2.642,2.612l-0,40.242c-0,1.443 1.183,2.613 2.642,2.613l12.419,-0c0.148,0.528 0.636,0.915 1.217,0.915l4.067,0c0.581,0 1.07,-0.387 1.218,-0.915l12.419,-0c1.459,-0 2.641,-1.17 2.641,-2.613l0,-40.242c0,-1.443 -1.182,-2.612 -2.641,-2.612Z" style="fill:#fff;fill-rule:nonzero;"/><path d="M70.332,72.018c-0,1.252 -1.027,2.267 -2.293,2.267l-27.186,-0c-1.266,-0 -2.292,-1.015 -2.292,-2.267l-0,-34.909c-0,-1.252 1.026,-2.266 2.292,-2.266l27.186,-0c1.266,-0 2.293,1.014 2.293,2.266l-0,34.909Z" style="fill:#c8e7e1;fill-rule:nonzero;"/><path d="M65.787,45.845c-1.808,-0.834 -3.615,-1.549 -5.483,-2.085c-3.796,-1.013 -6.869,1.668 -10.424,2.503c-2.229,0.536 -4.579,0.416 -6.929,-0.239c-1.708,-0.434 -3.14,-1.455 -4.39,-2.682l-0,28.675c-0,1.252 1.026,2.267 2.292,2.267l27.186,0c1.266,0 2.293,-1.015 2.293,-2.267l-0,-25.622c-1.596,0.222 -3.187,0.151 -4.545,-0.55Z" style="fill:#ac0404;fill-rule:nonzero;"/><path d="M81.346,90.481c-0.186,-0 -0.33,-0.015 -0.411,-0.025l-24.428,0c-2.009,0 -2.738,-1.619 -2.738,-2.708l-0,-4.976l1.354,0l-0,4.976c0,-0 0.009,0.39 0.202,0.751c0.227,0.421 0.602,0.618 1.182,0.618l24.537,-0l0.06,0.011c0.003,0 0.776,0.121 1.297,-0.316c0.374,-0.313 0.563,-0.869 0.563,-1.653l-0,-13.261l1.354,0l-0,13.261c-0,1.204 -0.355,2.108 -1.057,2.687c-0.647,0.535 -1.424,0.635 -1.915,0.635Z" style="fill:#fff;fill-rule:nonzero;"/><path d="M59.063,52.593l-2.625,-0l0,-2.597c0,-0.971 -0.796,-1.759 -1.779,-1.759l-0.427,0c-0.982,0 -1.778,0.788 -1.778,1.759l-0,2.597l-2.626,-0c-0.983,-0 -1.779,0.787 -1.779,1.759l-0,0.422c-0,0.972 0.796,1.759 1.779,1.759l2.626,0l-0,2.596c-0,0.972 0.796,1.76 1.778,1.76l0.427,-0c0.983,-0 1.779,-0.788 1.779,-1.76l0,-2.596l2.625,0c0.983,0 1.78,-0.787 1.78,-1.759l-0,-0.422c-0,-0.972 -0.797,-1.759 -1.78,-1.759Z" style="fill:#fff;fill-rule:nonzero;"/><path d="M55.392,79.827c0,0.517 -0.423,0.936 -0.946,0.936c-0.523,-0 -0.947,-0.419 -0.947,-0.936l0,-6.537c0,-0.517 0.424,-0.936 0.947,-0.936c0.523,0 0.946,0.419 0.946,0.936l0,6.537Z" style="fill:#ac0404;fill-rule:nonzero;"/><path d="M81.357,90.013c-0.196,0 -0.339,-0.019 -0.391,-0.027l-24.459,0c-2.238,0 -2.264,-2.217 -2.264,-2.24l-0,-7.35l0.406,0l-0,7.35c-0,0.075 0.029,1.839 1.858,1.839l24.495,-0l0.017,0.003c0.01,0.001 0.984,0.164 1.681,-0.414c0.489,-0.405 0.738,-1.084 0.738,-2.017l-0,-6.393l0.406,-0l-0,6.393c-0,1.06 -0.298,1.843 -0.887,2.328c-0.537,0.444 -1.188,0.528 -1.601,0.528l0.001,0Z" style="fill:#f15f64;fill-rule:nonzero;"/><path d="M29.924,90.29c2.528,-0.046 4.558,-2.129 4.511,-4.629l0,-0c-0.046,-2.499 -2.153,-4.507 -4.681,-4.461l-5.355,0.098l0.17,9.09l5.355,-0.098Z" style="fill:#ac0404;fill-rule:nonzero;"/><path d="M29.247,78.43l-1.778,2.977c-0.721,1.208 1.887,4.053 5.826,6.353c3.939,2.3 7.717,3.186 8.439,1.978l1.777,-2.978l-14.264,-8.33Z" style="fill:#bc9f30;fill-rule:nonzero;"/><path d="M43.511,86.759c-0.722,1.208 -4.499,0.322 -8.438,-1.978c-3.939,-2.3 -6.548,-5.144 -5.826,-6.352c0.722,-1.208 4.5,-0.323 8.439,1.977c3.938,2.301 6.547,5.145 5.825,6.353Z" style="fill:#f8ef5c;fill-rule:nonzero;"/><path d="M29.247,78.428c-0.047,0.079 -0.079,0.166 -0.098,0.259l14.18,8.281c0.073,-0.061 0.135,-0.131 0.183,-0.21c0.047,-0.08 0.079,-0.167 0.099,-0.26l-14.182,-8.281c-0.073,0.062 -0.134,0.131 -0.182,0.211Z" style="fill:#bc9f30;fill-rule:nonzero;"/><path d="M45.525,88.78l-3.082,0c-0.03,-0.027 -0.06,-0.054 -0.09,-0.081l0.069,-0.116l0.335,0l-0,-0.56l0.755,-1.263c0.014,-0.024 0.027,-0.049 0.038,-0.074l0.067,0c1.06,0 1.919,0.849 1.919,1.897c-0,0.066 -0.004,0.132 -0.011,0.197Zm-3.217,0l-0.003,0l0.001,-0.002c0,0.001 0.001,0.002 0.002,0.002Z" style="fill:#e0b9cc;fill-rule:nonzero;"/><path d="M42.443,88.78l-0.135,-0c-0.001,-0.001 -0.002,-0.001 -0.002,-0.002l0.047,-0.079c0.03,0.027 0.06,0.054 0.09,0.081Z" style="fill:#de8789;fill-rule:nonzero;"/><path d="M35.22,88.779l-1.964,-0c0.205,-0.226 0.387,-0.472 0.544,-0.733c0.479,0.266 0.954,0.511 1.42,0.733Z" style="fill:#e0b9cc;fill-rule:nonzero;"/><path d="M43.617,90.478l-4.056,-0c-0.016,-0.014 -0.031,-0.028 -0.046,-0.043l-0.042,0.043l-6.446,-0c-0.533,-0 -1.016,-0.215 -1.364,-0.562c0.611,-0.264 1.153,-0.655 1.593,-1.138l1.963,0c2.023,0.964 3.866,1.497 5.094,1.497c0.701,0 1.202,-0.174 1.421,-0.54l0.571,-0.957l0.002,0c0.619,0.558 1.252,1.093 1.901,1.608c-0.186,0.06 -0.385,0.092 -0.591,0.092Zm0.693,-0.127c-0.639,-0.506 -1.261,-1.03 -1.867,-1.573l3.082,0c-0.075,0.72 -0.557,1.32 -1.215,1.573Z" style="fill:#ceaabc;fill-rule:nonzero;"/><path d="M39.561,90.479l-0.088,0l0.042,-0.043c0.015,0.015 0.03,0.029 0.046,0.043Z" style="fill:#cc7c7f;fill-rule:nonzero;"/><path d="M44.208,90.386c-0.649,-0.515 -1.282,-1.05 -1.9,-1.608l0.135,0c0.606,0.543 1.228,1.067 1.867,1.573c-0.033,0.012 -0.067,0.025 -0.102,0.035Z" style="fill:#cc7c7f;fill-rule:nonzero;"/><path d="M31.664,89.916c-0.343,-0.343 -0.555,-0.815 -0.555,-1.335c-0,-0.683 0.365,-1.282 0.912,-1.616c0.406,0.269 0.832,0.534 1.274,0.792c0.169,0.099 0.337,0.194 0.505,0.288c-0.157,0.262 -0.339,0.507 -0.544,0.733c-0.439,0.483 -0.982,0.874 -1.592,1.138Z" style="fill:#d6565c;fill-rule:nonzero;"/><path d="M40.313,90.277c-1.228,0 -3.07,-0.532 -5.093,-1.496c-0.466,-0.222 -0.941,-0.467 -1.42,-0.733c-0.168,-0.094 -0.336,-0.19 -0.505,-0.288c-0.442,-0.258 -0.868,-0.523 -1.273,-0.793c0.292,-0.178 0.637,-0.28 1.005,-0.28l2.533,-0l-0,-1.627c0.566,0.316 1.126,0.6 1.672,0.853l-0,2.671l5.19,-0l-0.069,0.116l-0.047,0.079l-0.001,0.002l-0.571,0.957c-0.219,0.366 -0.719,0.54 -1.421,0.539Zm2.444,-2.253l-0,-0.789c0.348,-0.08 0.604,-0.233 0.748,-0.463l-0,-0.001c0,-0.001 0.001,-0.002 0.002,-0.003c0,-0 0,-0.002 0.001,-0.002c0,-0.001 0.001,-0.001 0.001,-0.002c0,-0.001 0.002,-0.002 0.003,-0.004l-0.755,1.264Z" style="fill:#ab912a;fill-rule:nonzero;"/><path d="M42.757,87.233l-0,-0.548l0.085,-0l0.487,0.284c0.07,-0.058 0.129,-0.125 0.176,-0.199c-0.144,0.23 -0.4,0.383 -0.748,0.463Zm0.748,-0.464c0,-0.001 0.001,-0.002 0.002,-0.003c-0.001,0.001 -0.002,0.002 -0.002,0.003Zm0.003,-0.005c0.001,-0.001 0.001,-0.001 0.001,-0.002c-0,0.001 -0.001,0.001 -0.001,0.002Zm0.004,-0.006c0.014,-0.023 0.027,-0.048 0.038,-0.073c-0.011,0.025 -0.024,0.05 -0.038,0.073Zm-6.28,-0.846c-0.546,-0.254 -1.106,-0.538 -1.672,-0.854l-0,-1.258l1.672,0l-0,2.112Z" style="fill:#e2d955;fill-rule:nonzero;"/><path d="M43.329,86.97l-0.487,-0.284l0.708,0c-0.011,0.025 -0.024,0.05 -0.039,0.074c-0,0.001 -0.002,0.003 -0.002,0.004c-0,0 -0,0 -0.001,0.001c-0.001,0.001 -0.001,0.002 -0.001,0.003c-0.001,0.001 -0.002,0.001 -0.002,0.003l-0,0c-0.047,0.075 -0.106,0.141 -0.176,0.199Z" style="fill:#ab912a;fill-rule:nonzero;"/><path d="M36.134,53.88l-0.808,-0l0.808,-0Z" style="fill:#ddcad7;fill-rule:nonzero;"/><path d="M34.869,55.581l-1.175,-1.698c0.016,-0.002 0.032,-0.003 0.048,-0.003l1.584,-0l0.006,0.008c-0.262,0.056 -0.463,0.37 -0.463,0.751l0,0.942Z" style="fill:#918c87;fill-rule:nonzero;"/><path d="M34.869,78.985c-0.583,-0.249 -1.144,-0.457 -1.672,-0.623l0,-2.494l1.672,-1.131l0,4.248Zm-1.672,-4.7l0,-1.095l1.672,-1.132l0,1.096l-1.672,1.131Zm0,-2.678l0,-5.466l1.672,-1.132l0,5.467l-1.672,1.131Zm0,-7.049l0,-1.096l1.561,-1.056l-0.746,-1.078l-0.815,0.551l0,-7.24c0,-0.397 0.219,-0.723 0.497,-0.756l1.175,1.698l0,7.846l-1.672,1.131Z" style="fill:#dcddde;fill-rule:nonzero;"/><path d="M33.197,63.461l0,-1.583l0.815,-0.551l0.746,1.078l-1.561,1.056Z" style="fill:#c0c1c4;fill-rule:nonzero;"/><path d="M33.197,66.138l0,-1.582l1.672,-1.131l0,1.582l-1.672,1.131Z" style="fill:#c0c1c4;fill-rule:nonzero;"/><path d="M33.197,73.187l0,-1.582l1.672,-1.131l0,1.582l-1.672,1.131Z" style="fill:#c0c1c4;fill-rule:nonzero;"/><path d="M33.197,75.865l0,-1.582l1.672,-1.132l0,1.583l-1.672,1.131Z" style="fill:#c0c1c4;fill-rule:nonzero;"/><path d="M38.56,53.878l-2.426,-0l0.516,-0l0,-2.99l1.288,-0l0,-5.301c0,-0.209 0.172,-0.379 0.384,-0.379c0.09,-0 0.173,0.03 0.238,0.082l0,8.588Z" style="fill:#e6e7e8;fill-rule:nonzero;"/><path d="M42.902,53.878l-4.341,-0l-0,-8.588c0.088,0.069 0.145,0.177 0.145,0.297l0,5.301l1.288,0l0,2.99l2.908,-0Z" style="fill:#da565b;fill-rule:nonzero;"/><path d="M32.781,83.801l-1.672,0c-0,-0.54 0.229,-1.029 0.596,-1.375c0.351,0.297 0.731,0.598 1.138,0.896c-0.041,0.153 -0.062,0.314 -0.062,0.479Z" style="fill:#ab912a;fill-rule:nonzero;"/><path d="M32.843,83.321c-0.407,-0.298 -0.787,-0.598 -1.137,-0.895c0.344,-0.324 0.809,-0.522 1.321,-0.522l0.17,-0l0,-0.852l1.46,0.852c-0.874,0.019 -1.603,0.615 -1.814,1.417Zm2.026,-1.927l-1.672,-0.976l0,-2.058c0.528,0.166 1.089,0.375 1.672,0.623l0,2.411Z" style="fill:#e2d955;fill-rule:nonzero;"/><path d="M34.657,81.906l-1.46,-0.852l0,-0.634l1.672,0.976l0,0.51l-0.17,-0c-0.014,-0 -0.028,-0 -0.042,0Z" style="fill:#ab912a;fill-rule:nonzero;"/><rect x="38.322" y="50.889" width="3.344" height="3.694" style="fill:#9f9995;fill-rule:nonzero;"/><path d="M39.611,45.587c-0,-0.209 0.171,-0.379 0.383,-0.379c0.213,-0 0.384,0.17 0.384,0.379l-0,6.878c-0,0.21 -0.171,0.379 -0.384,0.379c-0.212,0 -0.383,-0.169 -0.383,-0.379l-0,-6.878Z" style="fill:#9f9995;fill-rule:nonzero;"/><path d="M32.781,88.583c-0,-1.048 0.859,-1.897 1.918,-1.897l10.59,0c1.06,0 1.918,0.849 1.918,1.897c0,1.048 -0.858,1.897 -1.918,1.897l-10.59,0c-1.059,0 -1.918,-0.849 -1.918,-1.897Z" style="fill:#fff;fill-rule:nonzero;"/><rect x="37.232" y="80.865" width="5.525" height="7.716" style="fill:#fff;fill-rule:nonzero;"/><path d="M32.781,83.802l14.426,0c0,-1.047 -0.858,-1.897 -1.918,-1.897l-0.17,0l0,-27.266c0,-0.419 -0.243,-0.759 -0.545,-0.759l-9.16,-0c-0.301,-0 -0.545,0.34 -0.545,0.759l0,27.266l-0.17,0c-1.059,0 -1.918,0.85 -1.918,1.897Z" style="fill:#fff;fill-rule:nonzero;"/><rect x="37.232" y="83.8" width="5.525" height="0.923" style="fill:#d5d3d3;fill-rule:nonzero;"/><rect x="42.143" y="78.729" width="2.976" height="0.456" style="fill:#9f9995;fill-rule:nonzero;"/><rect x="42.143" y="73.722" width="2.976" height="0.456" style="fill:#9f9995;fill-rule:nonzero;"/><rect x="42.143" y="68.713" width="2.976" height="0.455" style="fill:#9f9995;fill-rule:nonzero;"/><rect x="42.143" y="63.706" width="2.976" height="0.455" style="fill:#9f9995;fill-rule:nonzero;"/><rect x="42.143" y="58.696" width="2.976" height="0.456" style="fill:#9f9995;fill-rule:nonzero;"/><path d="M100.147,88.778l-0.666,0l-0.297,-4.813l-0.01,-0.06l-0.442,0.06l-0,-0.695l1.114,0.106l0.484,-0.937l0.054,0.937l0.43,-0.148l-0,0.456l-0.663,0.089l-0.004,0.192l-0,4.813Zm-3.158,-0.235c-0.228,-0.133 -0.455,-0.274 -0.679,-0.424l-0,-4.059l-0.773,0.154l0.865,-9.475l-1.309,1.063c-0.18,0.146 -0.392,0.219 -0.59,0.219c-0.196,-0 -0.378,-0.073 -0.499,-0.218c-0.032,-0.039 -0.058,-0.079 -0.079,-0.121l-1.407,-2.134l-0.533,0.252c-0.034,0.017 -0.07,0.024 -0.106,0.024c-0.092,0 -0.18,-0.05 -0.221,-0.138c-0.059,-0.12 -0.008,-0.266 0.115,-0.324l0.276,-0.13c-0.117,-0.116 -0.18,-0.22 -0.207,-0.311l-0.148,0.069l-0.304,0.144c-0.059,-0.12 -0.007,-0.266 0.115,-0.323l0.02,-0.01l-1.526,-3.149c-0.023,-0.048 -0.014,-0.1 0.021,-0.117l0.336,-0.159l-0.168,-0.345l0.149,-0.071l-0.296,-0.612c-0.012,-0.024 -0.001,-0.053 0.023,-0.065c0.006,-0.003 0.014,-0.005 0.021,-0.005c0.018,0 0.036,0.011 0.044,0.028l0.297,0.612l0.149,-0.07l0.167,0.345l0.336,-0.159c0.007,-0.004 0.015,-0.005 0.022,-0.005c0.031,-0 0.064,0.024 0.083,0.063l0.508,1.047l0.008,0.017l0.832,1.718l0.024,0.049l0.154,0.317l0.019,-0.009c0.035,-0.016 0.071,-0.024 0.106,-0.024c0.092,0 0.18,0.051 0.222,0.138l-0.304,0.144l-0.069,0.033c0.069,0.111 0.11,0.234 0.103,0.36l0.21,-0.099c0.034,-0.016 0.07,-0.024 0.106,-0.024c0.091,0 0.179,0.051 0.221,0.138c0.059,0.121 0.007,0.266 -0.115,0.324l-0.257,0.122l1.39,1.269l0.003,-0.004c0.74,-0.75 1.321,-2.092 1.321,-2.092c0.26,-0.353 0.55,-0.486 0.825,-0.486c0.018,-0 0.035,0 0.052,0.001l0,-0.005l0.682,-0c0.025,-0.099 0.049,-0.164 0.053,-0.172l0.133,0.049c-0,0.003 -0.017,0.049 -0.037,0.123l0.391,-0l-0,-0.149c-0.027,0.001 -0.055,0.001 -0.083,0.001c-0.971,0 -1.758,-0.777 -1.758,-1.737c0.055,0.01 0.104,0.015 0.147,0.015c0.361,-0 0.335,-0.334 0.367,-0.71c-0.08,-0.006 -0.127,-0.011 -0.127,-0.011c-0,0 -0,-0.894 0.829,-1.319c0.347,-0.177 0.789,-0.235 1.178,-0.235c0.516,-0 0.94,0.102 0.928,0.166c0.649,0.288 1.102,0.933 1.102,1.682c-0,0.875 -0.616,1.607 -1.443,1.795c-0.008,0.162 -0.014,0.332 -0.019,0.502l0.979,-0l0.005,0.003l0.001,-0c0.03,-0.002 0.061,-0.003 0.091,-0.003c0.08,0 0.156,0.007 0.226,0.022c0.028,0.005 0.057,0.013 0.087,0.022l-1.65,0l-0.322,6.487l2.147,-0l-2.147,-0l0,1.619l0.39,0l-0.284,3.062l0.128,0.013l-0.234,0.081l-0.054,-0.938l-0.484,0.938l-0.377,-0.036l-0.115,0.669l-0.283,4.578Zm1.77,-16.991c-0.009,0.001 -0.018,0.003 -0.027,0.003l-0,0.471l0.01,-0c0.004,-0.16 0.01,-0.321 0.017,-0.474Z" style="fill:#d83136;fill-rule:nonzero;"/><path d="M96.975,88.778l-0.665,0l-0,-0.659c0.224,0.15 0.451,0.291 0.679,0.424l-0.014,0.235Z" style="fill:#c72d31;fill-rule:nonzero;"/><path d="M101.913,90.489l-2.405,0l0,-0.053c0.769,-0.127 1.523,-0.294 2.263,-0.498c0.047,0.097 0.086,0.219 0.115,0.372l0.027,-0l-0,0.179Z" style="fill:#ceaabc;fill-rule:nonzero;"/><path d="M99.508,90.436l0,-0.001c0.551,-0.092 1.095,-0.203 1.631,-0.334c-0.55,-0.115 -1.095,-0.258 -1.631,-0.433l0,-0.459l-0.027,-0.431l0.666,0l-0,0.446c0.469,0.643 1.273,-0.011 1.624,0.714c-0.74,0.204 -1.494,0.371 -2.263,0.498Z" style="fill:#c72d31;fill-rule:nonzero;"/><path d="M96.948,90.489l-2.405,-0l0,-0.18l0.028,0c0.243,-1.295 1.207,-0.355 1.739,-1.085l-0,-0.446l0.665,0l-0.027,0.433l0,1.278Zm2.56,-0.054l0,-0.767c0.536,0.175 1.081,0.318 1.631,0.433c-0.536,0.131 -1.08,0.242 -1.631,0.334Z" style="fill:#b7282c;fill-rule:nonzero;"/><path d="M100.891,79.629l-2.158,0.11l-0.325,3.501l1.438,0.137l0.484,-0.937l0.054,0.937l1.515,-0.523l-1.008,-3.225Z" style="fill:#88b7bd;fill-rule:nonzero;"/><path d="M98.302,78.556l4.018,0l0.145,-6.191l-0.519,-0.295l-3.322,-0l-0.322,6.486Z" style="fill:#40beac;fill-rule:nonzero;"/><path d="M99.846,72.147c-0,0.264 0.217,0.479 0.484,0.479c0.267,-0 0.483,-0.215 0.483,-0.479l0,-0.571c0,-0.265 -0.216,-0.478 -0.483,-0.478c-0.267,-0 -0.484,0.213 -0.484,0.478l-0,0.571Z" style="fill:#f0dcc8;fill-rule:nonzero;"/><path d="M98.006,70.186c-0,0.96 0.787,1.737 1.757,1.737c0.971,0 1.758,-0.777 1.758,-1.737c-0,-0.96 -0.788,-1.779 -1.758,-1.739c-2.041,0.086 -0.672,1.937 -1.757,1.739Z" style="fill:#f0dcc8;fill-rule:nonzero;"/><path d="M96.086,75.85c-0.242,-0.292 -0.183,-0.665 0.341,-1.195c0.739,-0.749 1.32,-2.092 1.32,-2.092c0.718,-0.977 1.669,-0.275 1.891,0.29c0.137,0.348 0.096,0.92 -0.264,1.212l-2.199,1.784c-0.36,0.291 -0.847,0.291 -1.089,0.001Z" style="fill:#d7edee;fill-rule:nonzero;"/><path d="M94.797,73.172l2.67,2.437l-1.38,0.238l-1.596,-2.421l0.306,-0.254Z" style="fill:#d7edee;fill-rule:nonzero;"/><path d="M93.953,72.071c-0.233,-0.012 -0.372,0.091 -0.39,0.194c-0.018,0.102 0.085,0.205 0.336,0.193c0.396,-0.017 -0.412,0.302 0.341,0.917c0.351,0.287 0.335,0.198 0.557,-0.203c0.291,-0.524 -0.361,-1.075 -0.844,-1.101Z" style="fill:#f0dcc8;fill-rule:nonzero;"/><rect x="98.302" y="78.559" width="4.018" height="1.62" style="fill:#00b195;fill-rule:nonzero;"/><path d="M96.625,90.534l2.405,0l0,-1.299l-0.638,0.035c-0.555,0.76 -1.58,-0.295 -1.767,1.264Z" style="fill:#a1978e;fill-rule:nonzero;"/><path d="M99.355,84.01l-0.963,-0l-0.089,-3.834l1.71,0l-0.658,3.834Z" style="fill:#00b195;fill-rule:nonzero;"/><path d="M99.029,89.271l-0.637,0l-0,-5.26l0.963,0l-0.326,5.26Z" style="fill:#00b195;fill-rule:nonzero;"/><rect x="96.625" y="90.354" width="2.405" height="0.179" style="fill:#a1978e;fill-rule:nonzero;"/><path d="M103.995,90.534l-2.405,0l0,-1.299l0.639,0.035c0.554,0.76 1.579,-0.295 1.766,1.264Z" style="fill:#a1978e;fill-rule:nonzero;"/><path d="M101.266,84.01l0.963,-0l0.089,-3.834l-1.711,0l0.659,3.834Z" style="fill:#00b195;fill-rule:nonzero;"/><path d="M101.591,89.271l0.638,0l-0,-5.26l-0.963,0l0.325,5.26Z" style="fill:#00b195;fill-rule:nonzero;"/><rect x="101.59" y="90.354" width="2.405" height="0.179" style="fill:#a1978e;fill-rule:nonzero;"/><path d="M98.552,70.881l1.209,-0c0.054,0.534 -0.745,1.101 -1.209,-0Z" style="fill:#fff;fill-rule:nonzero;"/><path d="M99.221,68.163c0.807,-0.412 2.127,-0.181 2.106,-0.069c0.649,0.288 1.102,0.932 1.102,1.682c0,0.984 -0.78,1.787 -1.761,1.84c0.032,-0.127 0.05,-0.26 0.05,-0.396c-0,-0.085 -0.007,-0.168 -0.019,-0.249c0.071,0.037 0.151,0.058 0.237,0.058c0.28,0 0.507,-0.224 0.507,-0.501c0,-0.277 -0.227,-0.502 -0.507,-0.502c-0.216,0 -0.4,0.134 -0.473,0.323c-0.144,-0.453 -0.049,-0.788 -0.049,-0.788c-0.519,0.057 -2.022,-0.079 -2.022,-0.079c-0,0 -0,-0.894 0.829,-1.319Z" style="fill:#414042;fill-rule:nonzero;"/><path d="M99.846,72.07l-1.113,-0l-1.114,12.188l1.255,-0.249l0.972,-11.939Z" style="fill:#d7edee;fill-rule:nonzero;"/><path d="M100.813,72.076l0,11.935l2.171,-0.292l-1.032,-11.643l-1.139,-0Z" style="fill:#d7edee;fill-rule:nonzero;"/><path d="M102.558,78.919l-0.195,-2.202l0,-0l0.195,2.202Z" style="fill:#c52d31;"/><path d="M102.364,76.719l-0.312,-3.512l0.312,3.511l-0,0.001Z" style="fill:#339f90;fill-rule:nonzero;"/><path d="M100.89,80.772l1.057,-6.003l-0.516,-1.879l0.621,0.315l0.311,3.512l0.195,2.202l-1.668,1.853Z" style="fill:#b2c4c7;fill-rule:nonzero;"/><path d="M102.864,76.673c-0.379,0.042 -0.662,-0.211 -0.825,-0.934c-0.231,-1.023 -1.05,-2.237 -1.05,-2.237c-0.436,-1.128 0.679,-1.532 1.28,-1.407c0.369,0.076 0.83,0.423 0.881,0.88l0.309,2.797c0.05,0.457 -0.216,0.861 -0.595,0.901Z" style="fill:#d7edee;fill-rule:nonzero;"/><path d="M100.98,80.427l1.312,-4.627l1.126,0.378l-2.058,4.37l-0.38,-0.121Z" style="fill:#d7edee;fill-rule:nonzero;"/><path d="M100.226,81.118c-0.365,0.27 0.595,1.094 0.975,0.845c0.381,-0.249 0.666,-0.804 0.415,-1.18c-0.252,-0.376 -0.602,-0.42 -1.046,-0.294c-0.582,0.164 0.044,0.345 -0.344,0.629Z" style="fill:#f0dcc8;fill-rule:nonzero;"/><path d="M101.051,70.565l-0.143,-0.013c-0,0.012 -0.093,1.099 -0.089,1.968c0.001,0.186 -0.05,0.329 -0.15,0.424c-0.197,0.186 -0.548,0.168 -0.756,0.158c-0.108,-0.006 -0.153,-0.008 -0.187,0.009c-0.051,0.023 -0.062,0.074 -0.114,0.318c-0.038,0.174 -0.211,0.463 -0.412,0.765l0.191,0c0.178,-0.286 0.322,-0.56 0.361,-0.736c0.019,-0.087 0.039,-0.178 0.051,-0.22c0.024,0.001 0.066,0.003 0.102,0.005c0.217,0.011 0.621,0.032 0.863,-0.196c0.13,-0.124 0.196,-0.301 0.194,-0.528c-0.004,-0.863 0.088,-1.943 0.089,-1.954Z" style="fill:#fff;fill-rule:nonzero;"/><path d="M99.734,73.241l0.046,-0.134c-0.151,-0.051 -0.254,-0.139 -0.317,-0.27c-0.169,-0.353 0.028,-0.881 0.03,-0.887l-0.134,-0.05c-0.009,0.025 -0.221,0.59 -0.026,0.997c0.079,0.166 0.214,0.281 0.401,0.344Z" style="fill:#fff;fill-rule:nonzero;"/><path d="M100.727,70.65c-0,0.127 0.104,0.229 0.232,0.229c0.128,0 0.232,-0.102 0.232,-0.229c-0,-0.127 -0.104,-0.229 -0.232,-0.229c-0.128,-0 -0.232,0.102 -0.232,0.229Z" style="fill:#fff;fill-rule:nonzero;"/><path d="M19.66,74.785l3.048,-0.492c-0,0 0.341,-1.086 0.288,-1.004c-0.053,0.083 0.202,0.852 0.202,0.852l2.369,-1.27l-1.643,-2.984l-3.286,0.463l-0.978,4.435Z" style="fill:#d7edee;fill-rule:nonzero;"/><path d="M24.883,80.111c0.553,0.758 1.761,0.503 1.761,1.261l-1.761,-0l0,-0.009c0,0 -0.096,-0.524 -0.208,-0.524c-0.111,-0 -0.202,0.09 -0.202,0.2l0.005,0.333l-0.231,-0l-0,-1.295l0.636,0.034Z" style="fill:#f9a05d;fill-rule:nonzero;"/><path d="M25.324,67.98c0.354,-0.135 0.571,-0.206 0.359,-0.926c-0.299,-1.015 -0.813,-2.364 -1.001,-2.895c-0.187,-0.531 -0.359,-0.833 -1.093,-0.519c-0.43,0.184 -0.397,0.767 -0.23,1.194l1.159,2.637c0.167,0.428 0.451,0.645 0.806,0.509Z" style="fill:#d7edee;fill-rule:nonzero;"/><path d="M29.232,66.363l-3.924,0.379l-0.268,1.348l4.335,-1.359l-0.143,-0.368Z" style="fill:#d7edee;fill-rule:nonzero;"/><path d="M29.8,65.609c0.226,-0.338 1.021,0.473 0.814,0.823c-0.207,0.35 -0.696,0.63 -1.05,0.426c-0.353,-0.205 -0.41,-0.513 -0.318,-0.914c0.12,-0.523 0.314,0.023 0.554,-0.335Z" style="fill:#f0dcc8;fill-rule:nonzero;"/><path d="M25.008,60.269c0.041,-0.03 0.058,-0.064 0.065,-0.112c0.02,-0.313 -0.182,-0.535 -0.437,-0.291c-0.129,0.127 -0.175,0.133 -0.37,0.009c-0.828,-0.527 -1.861,-0.519 -1.984,-0.446c-0.752,-0.079 -1.617,0.795 -1.722,1.535c-0.138,0.971 0.518,1.871 1.479,2.057c-0.013,-0.13 -0.012,-0.263 0.007,-0.398c0.012,-0.084 0.03,-0.165 0.054,-0.243c-0.075,0.027 -0.158,0.037 -0.242,0.025c-0.277,-0.038 -0.47,-0.291 -0.431,-0.565c0.039,-0.273 0.295,-0.463 0.571,-0.425c0.214,0.03 0.377,0.187 0.422,0.384c0.074,-0.153 0.394,-0.239 0.54,-0.885c0.059,-0.015 0.111,-0.042 0.152,-0.083c-0.042,0.383 0.728,0.405 0.867,0.121c-0.101,0.192 0.124,0.247 0.272,0.244c0.194,0.014 0.34,-0.063 0.427,-0.244c0.113,0.33 0.485,0.127 0.591,-0.101c0.113,-0.275 -0.085,-0.436 -0.261,-0.582Z" style="fill:#f26d78;fill-rule:nonzero;"/><path d="M23.148,63.546l0.792,10.996l2.147,-1.22l-1.786,-6.536l-0.232,-3.314l-0.921,0.074Z" style="fill:#d7edee;fill-rule:nonzero;"/><path d="M28.568,65.064l-0.094,-0.041c-0.017,0.038 -0.063,0.055 -0.102,0.038c-0.038,-0.017 -0.056,-0.062 -0.038,-0.101l-0.094,-0.041l-0.288,0.299l0.291,0.129l0.291,0.129l0.034,-0.412Z" style="fill:#faa719;fill-rule:nonzero;"/><path d="M27.86,70.008l-2.881,-1.277c-0.076,-0.034 -0.111,-0.123 -0.076,-0.198l1.707,-3.769c0.035,-0.075 0.125,-0.109 0.201,-0.075l2.881,1.277c0.077,0.033 0.111,0.122 0.077,0.198l-1.708,3.768c-0.034,0.076 -0.124,0.11 -0.201,0.076Z" style="fill:#9f9995;fill-rule:nonzero;"/><path d="M25.062,68.587l1.695,-3.741l2.853,1.264l-1.696,3.741l-2.852,-1.264Z" style="fill:#f1f2f2;fill-rule:nonzero;"/><path d="M28.372,65.061c-0.038,-0.017 -0.056,-0.063 -0.038,-0.101c0.017,-0.038 0.063,-0.055 0.101,-0.038c0.039,0.017 0.056,0.062 0.039,0.1c-0.017,0.039 -0.063,0.056 -0.102,0.039Zm0.114,-0.251c-0.101,-0.045 -0.22,0 -0.265,0.1c-0.046,0.1 -0,0.218 0.101,0.263c0.101,0.044 0.22,-0 0.265,-0.1c0.045,-0.101 0,-0.218 -0.101,-0.263Z" style="fill:#fdc013;fill-rule:nonzero;"/><path d="M28.718,65.929l0.177,-0.392l-1.229,-0.545l-0.178,0.392l1.23,0.545Z" style="fill:#fdc013;fill-rule:nonzero;"/><path d="M27.183,66.684l-0.699,-0.309l0.314,-0.692l0.699,0.31l-0.314,0.691Z" style="fill:#d1d3d4;fill-rule:nonzero;"/><path d="M26.772,67.593l-0.699,-0.31l0.313,-0.691l0.699,0.309l-0.313,0.692Z" style="fill:#d1d3d4;fill-rule:nonzero;"/><path d="M26.36,68.501l-0.699,-0.31l0.313,-0.691l0.699,0.31l-0.313,0.691Z" style="fill:#d1d3d4;fill-rule:nonzero;"/><path d="M28.781,66.741l-1.186,-0.526l0.067,-0.148l1.187,0.526l-0.068,0.148Z" style="fill:#d1d3d4;fill-rule:nonzero;"/><path d="M28.668,66.99l-1.187,-0.526l0.067,-0.148l1.187,0.526l-0.067,0.148Z" style="fill:#d1d3d4;fill-rule:nonzero;"/><path d="M28.37,67.649l-1.187,-0.525l0.067,-0.148l1.187,0.525l-0.067,0.148Z" style="fill:#d1d3d4;fill-rule:nonzero;"/><path d="M28.256,67.898l-1.187,-0.526l0.067,-0.148l1.187,0.526l-0.067,0.148Z" style="fill:#d1d3d4;fill-rule:nonzero;"/><path d="M27.957,68.558l-1.187,-0.526l0.067,-0.148l1.187,0.526l-0.067,0.148Z" style="fill:#d1d3d4;fill-rule:nonzero;"/><path d="M27.843,68.81l-1.186,-0.526l0.067,-0.149l1.187,0.527l-0.068,0.148Z" style="fill:#d1d3d4;fill-rule:nonzero;"/><path d="M92.271,69.077l0.386,-0.183l0.207,0.427l-0.387,0.183l-0.206,-0.427Z" style="fill:#9f9995;fill-rule:nonzero;"/><path d="M92.123,68.393c-0.011,-0.025 -0.001,-0.054 0.024,-0.065c0.023,-0.012 0.053,-0.002 0.065,0.023l0.384,0.794c0.013,0.024 0.001,0.053 -0.022,0.065c-0.025,0.011 -0.054,0.001 -0.066,-0.023l-0.385,-0.794Z" style="fill:#9f9995;fill-rule:nonzero;"/><path d="M93.74,73.733c-0.059,-0.121 -0.007,-0.266 0.115,-0.324l1.223,-0.58c0.122,-0.058 0.269,-0.006 0.328,0.114c0.058,0.121 0.006,0.266 -0.116,0.325l-1.223,0.579c-0.122,0.058 -0.268,0.007 -0.327,-0.114Z" style="fill:#fff;fill-rule:nonzero;"/><path d="M93.822,72.598l0.638,-0.302l0.432,0.89l-0.638,0.303l-0.432,-0.891Z" style="fill:#fff;fill-rule:nonzero;"/><path d="M93.776,73.037l1.058,-0.501l0.304,-0.144c-0.059,-0.121 -0.206,-0.172 -0.328,-0.114l-0.019,0.009l-1.526,-3.148c-0.024,-0.049 -0.071,-0.075 -0.105,-0.058l-1.058,0.501c-0.035,0.016 -0.044,0.069 -0.021,0.118l1.526,3.148l-0.02,0.01c-0.122,0.057 -0.174,0.203 -0.115,0.323l0.304,-0.144Z" style="fill:#fff;fill-rule:nonzero;"/><path d="M94.038,73.043l-0.05,-0.103l0.05,0.103Z" style="fill:#cbbaaa;fill-rule:nonzero;"/><path d="M94.038,73.044l-0.05,-0.102l-0.002,-0.004l0.638,-0.303l0.051,0.107l-0.637,0.302Z" style="fill:#d5d3d3;fill-rule:nonzero;"/><path d="M94.269,72.083l0.344,-0.162l0.026,0.052l-0.344,0.163l-0.026,-0.053Z" style="fill:#9f9995;fill-rule:nonzero;"/><path d="M93.989,71.503l0.344,-0.162l0.026,0.052l-0.344,0.163l-0.026,-0.053Z" style="fill:#9f9995;fill-rule:nonzero;"/><path d="M93.709,70.926l0.344,-0.163l0.025,0.053l-0.344,0.163l-0.025,-0.053Z" style="fill:#9f9995;fill-rule:nonzero;"/><path d="M93.429,70.346l0.344,-0.163l0.025,0.053l-0.343,0.163l-0.026,-0.053Z" style="fill:#9f9995;fill-rule:nonzero;"/><path d="M93.149,69.769l0.344,-0.163l0.025,0.053l-0.344,0.163l-0.025,-0.053Z" style="fill:#9f9995;fill-rule:nonzero;"/><path d="M57.264,31.479l0.359,1.1l-1.484,0l-0.644,-0.608l-0.352,-0.405l0.277,-0.536l0.843,-0.066l1.001,0.515Z" style="fill:#87b8bd;fill-rule:nonzero;"/><path d="M51.613,28.459c0.298,-0.138 0.762,-0.527 1.066,-1.022c0.429,-0.699 1.342,-1.395 1.342,-1.395c0.479,-0.577 -0.114,-1.301 -0.59,-1.357c-0.292,-0.035 -0.721,0.107 -0.874,0.433l-1.123,2.483c-0.384,0.71 0.179,0.858 0.179,0.858Z" style="fill:#d7edee;fill-rule:nonzero;"/><path d="M55.192,30.039l-2.501,0l0.471,-2.543l0.044,-2.816l2.22,-0l0.254,2.555l-0.375,0.573l-0.113,2.231Z" style="fill:#40beac;fill-rule:nonzero;"/><rect x="52.691" y="30.041" width="2.502" height="1.243" style="fill:#00b195;fill-rule:nonzero;"/><path d="M56.581,32.688l0.757,-0.377l-4.648,-2.27c0,-0 -0.925,1.955 0.428,2.149c1.353,0.195 3.463,0.498 3.463,0.498Z" style="fill:#00b195;fill-rule:nonzero;"/><path d="M55.618,36.69l0.549,0.14l1.178,-4.53l-0.829,-0.211l-0.898,4.601Z" style="fill:#00b195;fill-rule:nonzero;"/><path d="M56.167,36.831c0.307,0.777 1.408,0.822 1.238,1.477c-0.412,-0.105 -1.06,-0.27 -1.522,-0.388l0.003,-0.007c-0,0 0.034,-0.475 -0.062,-0.499c-0.097,-0.025 -0.195,0.033 -0.22,0.129l-0.07,0.288c-0.125,-0.031 -0.2,-0.051 -0.2,-0.051l0.291,-1.118l0.542,0.169Z" style="fill:#414042;fill-rule:nonzero;"/><path d="M58.673,31.479l0.144,-0.835l-3.625,-0.603l-0.301,1.436l3.782,0.002Z" style="fill:#00b195;fill-rule:nonzero;"/><path d="M58.124,35.283l0.567,0.02l0.125,-4.658l-0.808,-0.047l0.116,4.685Z" style="fill:#00b195;fill-rule:nonzero;"/><path d="M58.707,35.353c0.468,0.694 1.554,0.505 1.528,1.181c-0.425,-0.015 -1.094,-0.04 -1.57,-0.056l0.001,-0.008c-0,-0 -0.068,-0.471 -0.168,-0.475c-0.1,-0.003 -0.184,0.074 -0.187,0.172l-0.007,0.297c-0.128,-0.004 -0.206,-0.007 -0.206,-0.007l0.043,-1.155l0.566,0.051Z" style="fill:#414042;fill-rule:nonzero;"/><path d="M53.895,24.774l0.046,7.804l-2.328,0l1.593,-7.898l0.996,-0l-0.307,0.094Z" style="fill:#d7edee;fill-rule:nonzero;"/><path d="M52.485,28.258l0.152,-0.754l0,-0l-0.152,0.754Z" style="fill:#bb97a6;fill-rule:nonzero;"/><path d="M52.464,28.36l0.021,-0.103l-0.021,0.103Z" style="fill:#bdb9b9;fill-rule:nonzero;"/><path d="M54.034,29.404c-0.009,-0 -0.052,-0.009 -0.112,-0.022l-0.002,-0.364l0.176,0.156l-0.001,0.032c-0.014,0.06 -0.045,0.193 -0.059,0.198c-0,-0 -0.001,-0 -0.002,-0Z" style="fill:#389384;fill-rule:nonzero;"/><path d="M53.922,29.382c-0.114,-0.025 -0.29,-0.066 -0.413,-0.096c-0.252,-0.225 -0.629,-0.429 -0.836,-0.533c-0.004,-0.003 -0.006,-0.007 -0.009,-0.01c-0.035,-0.042 -0.129,-0.161 -0.221,-0.278l0.021,-0.106l0.021,-0.103l0.152,-0.754l0,-0.001l0.113,0.488l1.17,1.029l0.002,0.364Z" style="fill:#a4afb1;fill-rule:nonzero;"/><path d="M51.925,31.036l0.087,-0.433l-0.087,0.433Z" style="fill:#bb97a6;fill-rule:nonzero;"/><path d="M51.849,31.408l0.076,-0.374l-0.076,0.374Z" style="fill:#b8a5ae;fill-rule:nonzero;"/><path d="M51.613,32.578l0.236,-1.17l-0.236,1.17Zm0.399,-1.977l0.389,-1.931l-0.389,1.931Z" style="fill:#bdb9b9;fill-rule:nonzero;"/><path d="M51.613,32.578l0.236,-1.17l0.076,-0.375l0.087,-0.432l0.389,-1.931l0.122,0.011c0,0 0.059,0.027 0.151,0.072c0.108,0.112 0.695,0.5 0.695,0.5c0,-0 0.059,0.014 0.141,0.033c0.149,0.134 0.255,0.275 0.258,0.408c-0,0 -0.853,-0.164 -1.139,-0.164c-0.023,0 -0.043,0.001 -0.058,0.004c-0.2,0.03 -0.958,3.044 -0.958,3.044Z" style="fill:#a4afb1;fill-rule:nonzero;"/><path d="M53.509,29.288c-0.081,-0.02 -0.14,-0.034 -0.14,-0.034c-0,-0 -0.587,-0.388 -0.696,-0.499c0.207,0.103 0.584,0.307 0.836,0.533Z" style="fill:#808788;fill-rule:nonzero;"/><path d="M54.668,24.739c-0,0.211 -0.173,0.382 -0.387,0.382c-0.213,0 -0.386,-0.171 -0.386,-0.382l0,-0.457c0,-0.211 0.173,-0.382 0.386,-0.382c0.214,0 0.387,0.171 0.387,0.382l-0,0.457Z" style="fill:#f0dcc8;fill-rule:nonzero;"/><path d="M56.659,27.199c-0.278,-0.802 -0.615,-1.622 -0.785,-2.041c-0.17,-0.418 -0.319,-0.654 -0.895,-0.375c-0.338,0.163 -0.29,0.628 -0.14,0.965l1.028,2.069c0.15,0.336 0.367,0.492 0.646,0.371c-0,-0 0.342,-0.421 0.146,-0.989Z" style="fill:#d7edee;fill-rule:nonzero;"/><path d="M54.668,24.662l0.525,5.377l1.727,0.288l-1.686,-5.665l-0.566,-0Z" style="fill:#d7edee;fill-rule:nonzero;"/><path d="M53.886,29.265l-2.111,-2.013l-0.162,1.207l2.154,1.237l0.119,-0.431Z" style="fill:#d7edee;fill-rule:nonzero;"/><path d="M54.607,30.005c0.138,0.325 0.216,-0.189 0.18,-0.54c-0.036,-0.35 -0.331,-0.322 -0.686,-0.286c-0.354,0.036 -0.335,-0.053 -0.408,0.297c-0.096,0.457 0.773,0.192 0.914,0.529Z" style="fill:#f0dcc8;fill-rule:nonzero;"/><path d="M59.369,24.949l-2.542,0c-0.034,0 -0.061,0.027 -0.061,0.061l-0,1.201c-0,0.033 0.027,0.061 0.061,0.061l0.237,-0l0,-0.804c0,-0.034 0.028,-0.061 0.062,-0.061l1.955,-0c0.034,-0 0.062,0.027 0.062,0.061l-0,0.804l0.226,-0c0.034,-0 0.062,-0.028 0.062,-0.061l-0,-1.201c-0,-0.034 -0.028,-0.061 -0.062,-0.061Z" style="fill:#f1f2f2;fill-rule:nonzero;"/><path d="M61.756,27.147c-0,0.085 -0.069,0.153 -0.155,0.153l-7.006,0c-0.085,0 -0.155,-0.068 -0.155,-0.153c0,-0.085 0.07,-0.153 0.155,-0.153l7.006,-0c0.086,-0 0.155,0.068 0.155,0.153Z" style="fill:#f1f2f2;fill-rule:nonzero;"/><path d="M61,25.752l-5.803,-0c-0.535,-0 -0.597,0.625 -0.597,0.661l-0,0.597c-0,0.035 0.028,0.064 0.062,0.064l6.873,0c0.034,0 0.061,-0.029 0.061,-0.064l-0,-0.597c-0,-0.036 -0.061,-0.661 -0.596,-0.661Z" style="fill:#f1f2f2;fill-rule:nonzero;"/><path d="M54.647,27.302l-0,2.161c-0,0.035 0.056,0.656 0.546,0.656l5.812,-0c0.489,-0 0.546,-0.621 0.546,-0.656l-0,-2.161l-6.904,-0Z" style="fill:#f1f2f2;fill-rule:nonzero;"/><path d="M58.764,28.719l-0.468,0l-0,-0.463c-0,-0.034 -0.027,-0.061 -0.061,-0.061l-0.31,0c-0.034,0 -0.061,0.027 -0.061,0.061l-0,0.463l-0.468,0c-0.034,0 -0.062,0.027 -0.062,0.061l-0,0.306c-0,0.033 0.028,0.06 0.062,0.06l0.468,0l-0,0.463c-0,0.034 0.027,0.061 0.061,0.061l0.31,0c0.034,0 0.061,-0.027 0.061,-0.061l-0,-0.463l0.468,0c0.034,0 0.062,-0.027 0.062,-0.06l0,-0.306c0,-0.034 -0.028,-0.061 -0.062,-0.061Z" style="fill:#009acf;fill-rule:nonzero;"/><rect x="56.766" y="25.611" width="0.298" height="0.143" style="fill:#dcddde;fill-rule:nonzero;"/><path d="M59.133,25.611l-0,0.143l-0,-0.143Z" style="fill:#e0b9cc;fill-rule:nonzero;"/><rect x="59.143" y="25.611" width="0.288" height="0.143" style="fill:#dcddde;fill-rule:nonzero;"/><path d="M61.55,27.296l-2.705,-0l2.705,-0Zm-4.199,-0l-2.705,-0l2.705,-0Z" style="fill:#dcddde;fill-rule:nonzero;"/><path d="M61.55,27.377l-2.702,0c-0.001,-0.025 -0.002,-0.05 -0.003,-0.075l2.705,-0l0,0.075Zm-4.201,0l-2.703,0l0,-0.075l2.705,-0c-0.001,0.025 -0.002,0.05 -0.002,0.075Z" style="fill:#dcddde;fill-rule:nonzero;"/><path d="M61.596,26.909l0,0.08l0,-0.08Z" style="fill:#e0b9cc;fill-rule:nonzero;"/><path d="M61.596,26.989l-2.762,0c-0.002,-0.027 -0.002,-0.054 -0.004,-0.08l2.766,-0l-0,0.08Z" style="fill:#dcddde;fill-rule:nonzero;"/><path d="M54.595,26.909l0,0.08l0,-0.08Z" style="fill:#3aad9d;fill-rule:nonzero;"/><path d="M57.363,26.989l-2.763,0l-0,-0.08l2.766,-0c-0.001,0.026 -0.002,0.053 -0.003,0.08Z" style="fill:#dcddde;fill-rule:nonzero;"/><path d="M58.845,27.297l-1.493,-0c0.001,-0.074 0.004,-0.149 0.007,-0.221l1.478,-0c0.003,0.072 0.005,0.147 0.008,0.221Z" style="fill:#dcddde;fill-rule:nonzero;"/><path d="M58.837,27.075l-1.478,0c0.001,-0.029 0.003,-0.058 0.004,-0.087l1.471,0c0.001,0.029 0.002,0.058 0.003,0.087Z" style="fill:#dcddde;fill-rule:nonzero;"/><path d="M58.795,28.035l-1.393,-0c-0.038,-0 -0.07,-0.022 -0.07,-0.048c0,-0 0.006,-0.29 0.017,-0.612l1.499,-0c0.009,0.322 0.016,0.612 0.016,0.612c-0,0.026 -0.031,0.048 -0.069,0.048Z" style="fill:#dcddde;fill-rule:nonzero;"/><path d="M58.845,27.296l-1.493,-0l1.493,-0Z" style="fill:#cacbcd;fill-rule:nonzero;"/><path d="M58.848,27.377l-1.499,0c0.001,-0.025 0.001,-0.05 0.003,-0.075l1.493,-0c0.001,0.025 0.002,0.05 0.003,0.075Z" style="fill:#cacbcd;fill-rule:nonzero;"/><path d="M58.83,26.909l-1.463,-0c0.01,-0.223 0.022,-0.393 0.035,-0.393l1.393,0c0.013,0 0.025,0.17 0.035,0.393Z" style="fill:#dcddde;fill-rule:nonzero;"/><path d="M58.834,26.989l-1.471,0c0.001,-0.027 0.002,-0.054 0.003,-0.08l1.464,-0c0.001,0.026 0.002,0.053 0.004,0.08Z" style="fill:#cacbcd;fill-rule:nonzero;"/><path d="M58.782,27.86c0,0.033 -0.028,0.061 -0.061,0.061l-1.246,-0c-0.034,-0 -0.061,-0.028 -0.061,-0.061l-0,-1.822c-0,-0.033 0.027,-0.061 0.061,-0.061l1.246,0c0.033,0 0.061,0.028 0.061,0.061l0,1.822Z" style="fill:#f1f2f2;fill-rule:nonzero;"/><path d="M55.918,22.93c0.158,0.748 -0.326,1.481 -1.082,1.637c-0.756,0.157 -1.497,-0.322 -1.656,-1.07c-0.158,-0.747 0.32,-1.512 1.083,-1.637c1.603,-0.263 0.842,1.4 1.655,1.07Z" style="fill:#f0dcc8;fill-rule:nonzero;"/><path d="M55.715,23.613l-0.588,0.122c0.029,0.265 0.476,0.461 0.588,-0.122Z" style="fill:#fff;fill-rule:nonzero;"/><path d="M55.92,21.898c0.029,-0.029 0.039,-0.058 0.039,-0.096c-0.02,-0.25 -0.204,-0.403 -0.379,-0.183c-0.087,0.116 -0.123,0.125 -0.291,0.048c-0.714,-0.326 -1.53,-0.206 -1.618,-0.134c-0.604,0.019 -1.19,0.805 -1.19,1.402c-0,0.782 0.62,1.422 1.401,1.464c-0.026,-0.101 -0.039,-0.207 -0.039,-0.316c-0,-0.067 0.004,-0.133 0.015,-0.198c-0.057,0.03 -0.121,0.047 -0.189,0.047c-0.223,-0 -0.404,-0.179 -0.404,-0.399c0,-0.221 0.181,-0.399 0.404,-0.399c0.172,-0 0.319,0.107 0.376,0.257c0.041,-0.129 0.285,-0.232 0.329,-0.759c0.044,-0.019 0.082,-0.045 0.11,-0.082c0.01,0.307 0.621,0.24 0.698,-0c-0.058,0.163 0.126,0.182 0.243,0.163c0.155,-0.01 0.261,-0.086 0.311,-0.24c0.125,0.249 0.397,0.048 0.455,-0.144c0.058,-0.23 -0.116,-0.335 -0.271,-0.431Z" style="fill:#703e18;fill-rule:nonzero;"/><path d="M52.668,22.934c-0.616,0.925 -1.356,0.107 -1.644,1.134c-0.4,-0.483 -0.523,-1.187 -0.324,-1.687c0.191,-0.479 0.533,-0.716 1.067,-0.767c1.103,-0.105 1.201,0.871 0.901,1.32Z" style="fill:#703e18;fill-rule:nonzero;"/><path d="M85.378,37.589c-0.117,-0.348 -0.228,-0.716 -0.228,-0.716c0,0 0.194,-0.011 0.466,-0.023c-0.071,0.257 -0.15,0.505 -0.238,0.739Z" style="fill:#e0b9cc;fill-rule:nonzero;"/><path d="M81.488,48.55c0,-0 -0.906,-0.923 -1.376,-1.402c0.179,-0.094 0.362,-0.186 0.545,-0.276c0.018,-0.002 0.035,-0.002 0.051,-0.002c0.219,-0 0.363,0.145 0.513,0.291c0.151,0.147 0.308,0.292 0.558,0.292c0.031,0 0.065,-0.002 0.101,-0.007l-0.012,-0.012l1.558,-1.692c0.515,-0.169 0.977,-0.296 1.343,-0.368l-0.071,0.069c-0.62,0.274 -1.076,0.755 -1.401,1.345l-1.042,1.001l0.013,0.012l-0.78,0.749Zm4.61,-3.287c0.822,-0.398 1.484,-0.466 1.484,-0.466c-0.231,-0.077 -0.462,-0.142 -0.694,-0.197l-0.055,-1.004l0.053,-2.021l0.058,-0.142l-0.036,-0.692l0.036,-1.399l-0.614,0l0,-0.015c-0.018,0.001 -0.036,0.003 -0.054,0.003c-0.638,-0 -1.154,-0.511 -1.154,-1.14c0.036,0.006 0.069,0.009 0.096,0.009c0.214,0 0.221,-0.178 0.236,-0.394c-0.025,-0.069 -0.051,-0.142 -0.076,-0.217c0.088,-0.234 0.167,-0.482 0.238,-0.74c0.417,-0.02 1.016,-0.046 1.37,-0.046c0.18,0 0.296,0.007 0.293,0.024c0.426,0.189 0.723,0.612 0.723,1.104c-0,0.606 -0.45,1.107 -1.037,1.195l-0,0.301l0.497,0c0.081,-0.038 0.168,-0.055 0.256,-0.055c0.098,-0 0.197,0.021 0.289,0.055l0.013,0l0,0.006c0.134,0.053 0.252,0.135 0.329,0.223c0.161,0.186 0.26,0.548 0.102,0.806l-0.448,0.729l0.017,0.327l-0.057,0.142l-0.053,2.021l0.041,0.76l0.059,0.713l-1.912,0.11Z" style="fill:#d7cabb;fill-rule:nonzero;"/><path d="M80.112,47.15c-0.004,-0.004 -0.007,-0.007 -0.01,-0.01c0.232,-0.176 0.41,-0.252 0.555,-0.267c-0.183,0.09 -0.366,0.183 -0.545,0.277Zm3.185,-0.36c0.324,-0.591 0.781,-1.071 1.401,-1.346l-1.401,1.346Zm0.129,-1.046l0.743,-0.807l0.245,-0l0.647,0.127l-0.01,-0.127l1.855,-0l-0.018,-0.336c0.231,0.055 0.463,0.121 0.693,0.198c0,-0 -0.661,0.067 -1.483,0.466l-1.29,0.074l-0,-0l-0.039,0.036c-0.366,0.073 -0.828,0.199 -1.343,0.369Z" style="fill:#c6baae;fill-rule:nonzero;"/><path d="M78.768,47.045c-0.268,-0.324 -0.599,-0.726 -0.82,-0.993c0.251,-0.157 0.437,-0.218 0.584,-0.218c0.247,0 0.385,0.17 0.531,0.339c0.098,0.112 0.199,0.225 0.339,0.288c-0.225,0.186 -0.436,0.381 -0.634,0.584Zm2.353,-1.703l1.039,-0.849l0.816,0.161c-0.648,0.163 -1.272,0.397 -1.855,0.688Z" style="fill:#d7cabb;fill-rule:nonzero;"/><path d="M79.206,47.574c0,0 -0.192,-0.233 -0.438,-0.531c0.198,-0.203 0.409,-0.399 0.634,-0.585c0.071,0.032 0.151,0.051 0.247,0.051c0.014,0 0.028,-0 0.043,-0.001l1.429,-1.168c0.583,-0.291 1.207,-0.526 1.855,-0.689l0.18,0.035l-3.121,2.22l-0.829,0.668Z" style="fill:#c6baae;fill-rule:nonzero;"/><path d="M82.502,43.631c0.018,-0.02 0.037,-0.039 0.056,-0.057c0.04,-0.035 0.095,-0.051 0.157,-0.051c0.075,0 0.161,0.023 0.245,0.059l1.241,-1.538l-0.003,1.112c-0.186,0.151 -0.378,0.301 -0.559,0.441l-0.058,-0l0,0.015l-1.079,0.019Z" style="fill:#d7cabb;fill-rule:nonzero;"/><path d="M83.585,42.19c-0.214,-0.129 -0.259,-0.372 -0.052,-0.813c0.293,-0.623 0.358,-1.579 0.358,-1.579c0.229,-0.759 0.972,-0.529 1.234,-0.227c0.161,0.186 0.262,0.549 0.103,0.807l-0.97,1.577c-0.158,0.258 -0.459,0.363 -0.673,0.235Z" style="fill:#fff;fill-rule:nonzero;"/><path d="M84.197,43.598l2.636,-0l0.111,-4.255l-2.143,-0c0,-0 -0.064,1.33 -0.596,1.346l-0.008,2.909Z" style="fill:#fff;fill-rule:nonzero;"/><path d="M85.253,39.393c0,0.173 0.142,0.313 0.317,0.313c0.175,0 0.317,-0.14 0.317,-0.313l0,-0.375c0,-0.174 -0.142,-0.314 -0.317,-0.314c-0.175,-0 -0.317,0.14 -0.317,0.314l0,0.375Z" style="fill:#f0dcc8;fill-rule:nonzero;"/><path d="M79.025,47.056c0.467,0.476 1.386,1.411 1.386,1.411l0.78,-0.749l-0.389,-0.355c-0.776,0.113 -0.734,-1.096 -1.777,-0.307Z" style="fill:#483522;fill-rule:nonzero;"/><path d="M84.045,38.105c0,0.63 0.516,1.14 1.154,1.14c0.636,0 1.152,-0.51 1.152,-1.14c0,-0.63 -0.516,-1.167 -1.152,-1.14c-1.339,0.056 -0.442,1.27 -1.154,1.14Z" style="fill:#f0dcc8;fill-rule:nonzero;"/><path d="M84.073,36.787c0,0 2.143,-0.119 2.129,-0.045c0.426,0.188 0.723,0.611 0.723,1.103c0,0.646 -0.511,1.173 -1.155,1.207c0.021,-0.083 0.033,-0.17 0.033,-0.26c-0,-0.055 -0.004,-0.11 -0.013,-0.163c0.047,0.024 0.099,0.038 0.156,0.038c0.183,0 0.333,-0.147 0.333,-0.329c0,-0.181 -0.15,-0.329 -0.333,-0.329c-0.142,0 -0.263,0.088 -0.31,0.212c-0.035,-0.108 -0.219,-0.648 -0.336,-0.716c-0.206,-0.119 -0.83,0.169 -0.923,0.215c-0.14,-0.39 -0.304,-0.933 -0.304,-0.933Z" style="fill:#483522;fill-rule:nonzero;"/><path d="M81.46,44.02l2.006,-2.486c-0,0 0.663,0.192 0.731,0.474c0.067,0.282 -2.542,2.185 -2.542,2.185l-0.195,-0.173Z" style="fill:#fff;fill-rule:nonzero;"/><path d="M82.201,43.939c0.209,-0.212 -0.498,-0.649 -0.719,-0.45c-0.221,0.199 -0.349,0.588 -0.148,0.806c0.202,0.219 0.433,0.212 0.709,0.086c0.36,-0.164 -0.065,-0.219 0.158,-0.442Z" style="fill:#f0dcc8;fill-rule:nonzero;"/><path d="M83.581,44.937l3.325,-0l-0.073,-1.341l-3.252,0l0,1.341Z" style="fill:#292e72;fill-rule:nonzero;"/><path d="M83.666,44.468l0.065,0.785l3.202,-0.185l-0.115,-1.395l-3.152,0.795Z" style="fill:#292e72;fill-rule:nonzero;"/><path d="M80.791,47.35l0.368,0.374l3.156,-3.032l-0.555,-0.565l-2.969,3.223Z" style="fill:#292e72;fill-rule:nonzero;"/><path d="M76.871,45.968c0.425,0.514 1.259,1.524 1.259,1.524l0.842,-0.679l-0.356,-0.387c-0.784,0.047 -0.636,-1.155 -1.745,-0.458Z" style="fill:#483522;fill-rule:nonzero;"/><path d="M81.736,44.409l0.289,-0.77l2.92,-0.051l0.117,1.475l-3.326,-0.654Z" style="fill:#292e72;fill-rule:nonzero;"/><path d="M78.948,46.829l-0.332,-0.404l3.409,-2.788l0.214,0.852l-3.291,2.34Z" style="fill:#292e72;fill-rule:nonzero;"/><path d="M84.404,38.56l0.793,0c0.035,0.351 -0.489,0.723 -0.793,0Z" style="fill:#fff;fill-rule:nonzero;"/><path d="M86.886,41.575l0.022,-0.835l0.036,0.692l-0.058,0.143Z" style="fill:#b4aa9f;fill-rule:nonzero;"/><path d="M84.284,43.595l-0.086,0l2.153,-3.415l0.547,0.39l0.009,0.171l-0.022,0.834l-0.385,0.945l-1.2,1.05l-1.016,0.025Z" style="fill:#d1d3d4;fill-rule:nonzero;"/><path d="M84.197,43.596l0.087,0l-0.087,0Z" style="fill:#202260;fill-rule:nonzero;"/><path d="M85.732,42.19c-0.214,-0.129 -0.259,-0.372 -0.052,-0.813c0.293,-0.623 0.358,-1.579 0.358,-1.579c0.229,-0.759 0.972,-0.529 1.234,-0.227c0.161,0.186 0.261,0.549 0.102,0.807l-0.969,1.577c-0.158,0.258 -0.46,0.363 -0.673,0.235Z" style="fill:#fff;fill-rule:nonzero;"/><path d="M83.739,44.152l1.85,-2.548c0,0 0.79,0.002 0.857,0.284c0.066,0.282 -2.512,2.437 -2.512,2.437l-0.195,-0.173Z" style="fill:#fff;fill-rule:nonzero;"/><path d="M84.511,44.07c0.21,-0.211 -0.497,-0.648 -0.718,-0.449c-0.221,0.199 -0.35,0.587 -0.148,0.806c0.202,0.219 0.433,0.212 0.708,0.086c0.36,-0.164 -0.064,-0.219 0.158,-0.443Z" style="fill:#f0dcc8;fill-rule:nonzero;"/><path d="M33.192,38.37c0,-0 0.246,1.748 1.935,1.913c-1.689,0.165 -1.935,1.913 -1.935,1.913c0,-0 -0.245,-1.748 -1.934,-1.913c1.689,-0.165 1.934,-1.913 1.934,-1.913Z" style="fill:#fdc013;fill-rule:nonzero;"/><path d="M31.508,41.036c0,-0 0.136,0.97 1.073,1.061c-0.937,0.092 -1.073,1.062 -1.073,1.062c0,-0 -0.136,-0.97 -1.073,-1.062c0.937,-0.091 1.073,-1.061 1.073,-1.061Z" style="fill:#fdc013;fill-rule:nonzero;"/></g></svg>