<svg xmlns="http://www.w3.org/2000/svg" viewBox="0 0 394 384" xmlns:v="https://vecta.io/nano"><path d="M315.8 113.5c-18.3-7.6-38.7-8.8-58.9-3.5-20.9 5.4-41.6 17.5-61.4 36-91.8 85.7-110.2 179.8-110.9 183.8-1.4 7.6 3.2 11.7 7.9 17.8 2.9 3.7 1.6 6.1 5.8 7.9 2.7 1.1 8.1 5.9 11.1 6.1 44.7 2.6 84.4.8 118-5.5 30.2-5.6 56.3-15 77.6-27.8 41.1-24.7 57.3-57.5 65.9-80 9.4-24.5 8.9-53.2-1.3-78.6-10.4-25.9-30-46.3-53.8-56.2h0z" opacity=".42" fill="#ba0d0d"/><path d="M107 347.3c-2.5-1-4.7-2.8-6.2-5.2-44.3-69.3-66-129.6-64.5-179.2 1.3-43.8 20.3-71.4 34.4-88.4 25.5-30.6 70.5-41.9 107-26.8 15.7 6.5 65.1 34.1 44.6 118.1-28.8 117.7-98.7 176.9-101.6 179.4-3 2.5-6.9 3.5-10.7 3-1-.2-2-.5-3-.9z" fill="#f20833"/><path d="M172.7 60.1c29.8 12.3 50.6 45.4 36.6 102.5-28.1 114.7-97.2 172.2-97.2 172.2C13.8 181.1 54.5 115 81.1 83.1c22.2-26.6 61.5-35.4 91.6-23M183 35.3C141.1 18 89.6 30.9 60.5 65.9 45 84.4 24.4 114.5 22.9 162.5c-.8 24.9 3.9 52.2 13.7 81.3 10.9 32.3 28.7 67.8 52.9 105.6 3 4.7 7.4 8.3 12.4 10.4 2 .8 4 1.4 6.1 1.7 7.6 1.2 15.4-1 21.3-5.9 3.1-2.6 76.3-64.6 106.1-186.5 7.9-32.5 6.8-61.1-3.3-84.9-9.5-22.7-26.5-39.6-49.1-48.9h0z" fill="#ba0d0d"/><circle cx="130.7" cy="123.4" r="29.4" fill="#fff"/></svg>