<svg xmlns="http://www.w3.org/2000/svg" xmlns:xlink="http://www.w3.org/1999/xlink" viewBox="0 0 1366 768" xmlns:v="https://vecta.io/nano"><path d="M513.3 351.2s6.7 43.4 4.3 42.2c-2.4-1.3-6.9 16.4-7.6 17.6-.6 1.2-26.1 27.5-28.5 30.3s-51.7 23.7-55.6 25.4-72-21.3-72-21.3l10.3-45.7s35.2-62.9 32.1-62.9 10.9-24.7 14.1-24.7c3.3-.1 19-4.2 15.4-6.1s9.4-9 9.4-9l21-.4 20.9 14.4 36.2 40.2z" fill="#590111"/><radialGradient id="A" cx="454.182" cy="372.717" r="45.975" fx="448.887" fy="364.385" gradientTransform="matrix(0.9714 0.2376 -0.1048 0.4285 52.0763 105.0957)" gradientUnits="userSpaceOnUse"><stop offset=".086" stop-color="#f00833"/><stop offset=".502" stop-color="#f20833"/><stop offset=".609" stop-color="#e40730"/><stop offset=".855" stop-color="#c90529"/><stop offset="1" stop-color="#bf0427"/></radialGradient><path d="M513.2 394.4a49.26 49.26 0 0 0-3-6.7c-6.5-12.1-18.6-24.1-33.8-32.1l-.9-.4c-18.2-9.4-40.8-13-63.3-4.2-1.1.4-2.1.8-3.2 1.3l.5.3.1.1c-8.9 5.8-14.1 24.8-14.8 25.3l33.7 21.7 55.4 12 9.6-4.8c2.8-6.1 22.4-4.9 19.7-12.5z" fill="url(#A)"/><linearGradient id="B" gradientUnits="userSpaceOnUse" x1="319.962" y1="394.129" x2="483.645" y2="467.546"><stop offset=".086" stop-color="#f00833"/><stop offset=".502" stop-color="#f20833"/><stop offset=".572" stop-color="#e40730"/><stop offset=".732" stop-color="#c90529"/><stop offset=".826" stop-color="#bf0427"/><stop offset=".865" stop-color="#c20428"/><stop offset=".889" stop-color="#ca052a"/><stop offset=".91" stop-color="#d9062d"/><stop offset=".928" stop-color="#ee0832"/><stop offset=".93" stop-color="#f00833"/><stop offset="1" stop-color="#bf0427"/></linearGradient><path d="M518.3 391.4c0-15-35.5 15.8-79.4 2.7-23.5-7-49-27.3-57-40.7-76 60.4-89.3 109.7-90.1 112.7s-.3 6.3 1.4 8.9c1 1.6 2.5 2.9 4.1 3.7 1.1.6 2.2.9 3.4 1.1 66 9.6 117.9 5.4 154.1-12.3 31.9-15.6 51.2-52.5 59-68.7 0-.2 9.6-15.7 4.5-7.4z" fill="url(#B)"/><path d="M435.3 297.1l37.9 26.8c28.1 14.5 40.1 53.9 25.6 83.9-14.7 30.3-49.9 82.5-196.5 61.3 0 0 19.4-70.3 94.8-129.4 30.5-23.9 57-25.6 76.1-15.7m10-19.5c-14.3-7.4-30.7-9.8-47.4-7-17.3 2.9-34.8 11.3-52.2 24.9-80.1 62.8-101.5 137.6-102.4 140.8-1.7 6 1.7 9.7 5.2 14.9 2.1 3.2.9 5.1 4.2 6.8 2.1 1.1 6.1 5.4 8.6 5.7 36 5.2 68.2 6.5 95.7 3.8 24.8-2.4 46.5-8.2 64.7-17.1 34.9-17.1 50.3-42.5 58.8-60.1 9.3-19.2 10.9-42.4 4.4-63.6-6.6-21.6-21-39.5-39.6-49.1h0z" fill="#ba0d0d"/><path d="M298.1 478.9c-2-1-3.6-2.6-4.7-4.6-31-59.1-44.3-109.3-39.6-149.4 4.1-35.3 21.4-56.3 34-69.1 22.7-23 59.9-28.9 88.4-14.2 12.2 6.3 50.3 32.1 27.8 98.6-31.5 93.1-92.1 136.1-94.7 137.9s-5.8 2.4-8.8 1.6c-.8-.1-1.6-.4-2.4-.8z" fill="#f20833"/><path d="M371.2 251.3c23.3 12 37.7 40.2 22.5 85.4-30.7 90.8-90.5 132.5-90.5 132.5-68.8-131.2-31.3-181.7-7.6-205.7 19.8-20 52.2-24.3 75.6-12.2m10-19.4c-32.6-16.9-75.2-10-101.2 16.2-13.7 13.9-32.5 36.9-37 75.5-2.3 20.1-.5 42.5 5.4 66.7 6.6 26.9 18.5 56.8 35.4 89 2.1 4 5.4 7.2 9.3 9.3a19.78 19.78 0 0 0 4.8 1.8c6.1 1.5 12.5.3 17.7-3.3 2.7-1.9 66.2-46.9 98.8-143.4 8.7-25.7 9.8-48.9 3.3-68.9-6.2-18.9-18.8-33.7-36.5-42.9h0z" fill="#ba0d0d"/><path d="M565.1 413.4V311.3h22.5v81.8h50.9v20.3h-73.4zm92.2-86.8v-19.7h23.3v19.7h-23.3zm.6 86.8v-78.2h22.2v78.2h-22.2zm85.8-88.3a28.08 28.08 0 0 0-5.3-.5c-5.4 0-8 2.8-8 8.5v3.1h17.9v18.1h-17.6v59.2h-22.2v-59.2h-9.2v-18.2h9.2v-5c0-8.7 2.1-15 6.2-19s10.1-6.1 18-6.1c3.5 0 6.5.2 9 .6s4.7.9 6.8 1.6v18.4c-1.7-.7-3.3-1.2-4.8-1.5zm93.4 54.1c0 .8-.1 1.7-.2 2.8h-54.4c1.1 5.1 3.3 8.9 6.6 11.5 3.4 2.6 7.5 3.9 12.5 3.9 3.7 0 7-.6 9.9-1.9s5.9-3.3 9-6.1l12.7 11.2c-3.7 4.6-8.2 8.1-13.4 10.7-5.3 2.6-11.4 3.9-18.5 3.9-5.8 0-11.3-1-16.3-2.9a37.58 37.58 0 0 1-13-8.3 38.73 38.73 0 0 1-8.5-12.8c-2-4.9-3.1-10.4-3.1-16.4v-.3c0-5.5.9-10.8 2.8-15.8s4.5-9.3 8-13c3.4-3.7 7.5-6.6 12.2-8.8 4.7-2.1 9.9-3.2 15.7-3.2 6.5 0 12.2 1.2 16.9 3.5s8.7 5.5 11.9 9.4 5.5 8.5 7 13.6a56.26 56.26 0 0 1 2.3 16v.3c0 1 0 2-.1 2.7zm-26.8-23.1c-2.8-3.1-6.6-4.6-11.2-4.6s-8.4 1.5-11.3 4.5-4.7 7.1-5.6 12.1h33.4c-.7-4.9-2.4-8.9-5.3-12z" fill="#fff"/><path d="M936.6 391.7c-2 5-4.6 9.2-7.9 12.7s-7 6.1-11.3 7.8c-4.3 1.8-8.8 2.6-13.4 2.6-5.9 0-10.8-1.2-14.7-3.5-3.8-2.3-7.1-5-9.7-8.1v10.1h-22.2V306.9h22.2v39.4c2.7-3.7 6-6.7 9.8-9 3.8-2.4 8.7-3.5 14.5-3.5 4.6 0 9 .9 13.3 2.6 4.3 1.8 8.1 4.4 11.4 7.8 3.3 3.5 6 7.7 8 12.7s3 10.8 3 17.3v.3c0 6.4-1 12.2-3 17.2zm-19.2-17.6c0-3.2-.5-6.2-1.5-8.9s-2.4-5-4.2-6.9c-1.7-1.9-3.8-3.4-6.1-4.4s-4.7-1.5-7.4-1.5c-2.6 0-5.1.5-7.4 1.5s-4.3 2.5-6 4.4-3.1 4.2-4.1 6.9-1.5 5.7-1.5 8.9v.3c0 3.2.5 6.2 1.5 8.9s2.4 5 4.1 6.9 3.7 3.4 6 4.4 4.7 1.5 7.4 1.5c2.6 0 5.1-.5 7.4-1.5s4.3-2.5 6.1-4.4 3.1-4.2 4.2-6.8c1-2.6 1.5-5.6 1.5-9v-.3zm88.1 39.3v-8.5c-2.7 3-6 5.4-9.8 7.2s-8.4 2.7-13.9 2.7c-3.7 0-7.2-.5-10.4-1.5-3.3-1-6.1-2.6-8.5-4.6s-4.4-4.5-5.8-7.5-2.1-6.4-2.1-10.3v-.3c0-4.3.8-8 2.3-11.1 1.6-3.1 3.7-5.7 6.5-7.7s6.1-3.6 9.9-4.6 8.1-1.5 12.8-1.5c4 0 7.5.3 10.4.9 3 .6 5.9 1.4 8.7 2.3v-1.3c0-4.7-1.4-8.2-4.2-10.6s-7-3.6-12.5-3.6c-4.3 0-8 .4-11.3 1.1s-6.7 1.8-10.3 3.1l-5.5-16.9c4.3-1.8 8.8-3.4 13.4-4.5 4.7-1.2 10.3-1.8 16.9-1.8 12.2 0 21 3 26.5 8.9s8.3 14.2 8.3 24.8v45.4h-21.4zm.5-31.5c-1.9-.9-4.1-1.6-6.5-2.1s-4.9-.8-7.7-.8c-4.8 0-8.5.9-11.2 2.8-2.7 1.8-4.1 4.5-4.1 8v.3c0 3 1.1 5.4 3.4 7 2.2 1.7 5.2 2.5 8.8 2.5 5.3 0 9.5-1.3 12.6-3.8 3.2-2.5 4.7-5.8 4.7-9.9v-4zm93.3 31.5v-43.5c0-5.2-1.2-9.2-3.5-11.9s-5.6-4-9.9-4-7.7 1.3-10.1 4-3.7 6.6-3.7 11.9v43.5h-22.2v-78.2h22.2v11.2c1.3-1.7 2.6-3.3 4.2-4.8 1.5-1.5 3.2-2.9 5-4 1.8-1.2 3.9-2.1 6.1-2.8s4.8-1 7.6-1c8.5 0 15 2.6 19.6 7.7 4.6 5.2 6.9 12.3 6.9 21.3v50.6h-22.2zm95.6 0l-20.4-31.9-7.7 8.2v23.8h-22.2V306.9h22.2v56.7l26-28.4h26.5l-29.8 30.8 30.8 47.4h-25.4z" fill="#f20833"/><g fill="#fff"><path d="M591.1 473.2c-1 .7-2.2 1.2-3.4 1.7s-2.5.9-3.9 1.2-2.8.4-4.4.4c-2.7 0-5.2-.5-7.4-1.4a17.26 17.26 0 0 1-5.7-3.8c-1.6-1.6-2.8-3.5-3.6-5.7-.9-2.2-1.3-4.5-1.3-7.1 0-2.4.4-4.8 1.3-6.9.9-2.2 2.1-4.1 3.7-5.7s3.5-2.9 5.7-3.9 4.6-1.4 7.2-1.4c1.5 0 2.9.1 4.1.3s2.4.5 3.4.9a14.02 14.02 0 0 1 3 1.5c.9.6 1.9 1.2 2.8 2l-3.9 4.6c-.7-.6-1.3-1.1-2-1.5-.7-.5-1.4-.9-2.2-1.2s-1.6-.6-2.5-.7c-.9-.2-1.9-.3-3-.3-1.6 0-3.1.3-4.4 1a9.51 9.51 0 0 0-3.6 2.7c-1 1.1-1.8 2.4-2.4 3.9s-.9 3.1-.9 4.8c0 1.8.3 3.4.8 5 .6 1.5 1.4 2.8 2.4 4 1 1.1 2.3 2 3.7 2.6s3.1.9 4.8.9 3.2-.2 4.6-.7 2.7-1.1 3.7-1.9V462h-8.9v-5.3H594v14.6c-.9.5-1.8 1.2-2.9 1.9zm18.4-27.5V440h6.5v5.7h-6.5zm.3 30.2v-26.2h6.1v26.2h-6.1z"/><use xlink:href="#D"/><path d="M675.1 469.9c1.4 1.1 3 1.7 5 1.7 1.5 0 2.8-.3 3.9-.8s2.2-1.3 3.2-2.3l3.5 3.1c-1.3 1.5-2.8 2.7-4.5 3.6s-3.8 1.3-6.2 1.3c-1.9 0-3.6-.3-5.3-1-1.6-.7-3.1-1.6-4.3-2.8s-2.2-2.6-2.9-4.3-1-3.5-1-5.6c0-1.9.3-3.7.9-5.3.6-1.7 1.5-3.1 2.7-4.3 1.1-1.2 2.5-2.2 4-3a12.74 12.74 0 0 1 5.2-1.1c2.1 0 3.9.4 5.5 1.1 1.6.8 2.9 1.8 3.9 3.1s1.8 2.8 2.4 4.5c.5 1.7.8 3.5.8 5.4v.8c0 .3 0 .5-.1.8h-19.2c.3 2.3 1.2 3.9 2.5 5.1zm10.8-8.9c-.1-1-.3-1.9-.6-2.7s-.8-1.6-1.3-2.2c-.6-.6-1.2-1.1-2-1.5s-1.7-.5-2.7-.5c-1.8 0-3.4.6-4.6 1.9s-1.9 2.9-2.2 5h13.4zm44-19.8h6v29.2h18.3v5.5h-24.3v-34.7zm38.3 4.5V440h6.5v5.7h-6.5zm.2 30.2v-26.2h6.1v26.2h-6.1zm36.3-26v5h-6.8v21h-6.1v-21h-3.3v-5h3.3V448c0-2.9.7-5.1 2.1-6.5s3.4-2.1 6-2.1c1.1 0 2 .1 2.7.2.8.1 1.5.3 2.1.5v5.1l-1.7-.5c-.5-.1-1.1-.2-1.8-.2-2.3 0-3.5 1.3-3.5 4v1.4h7z"/><use xlink:href="#E"/><path d="M854 475.9v-6.8h6.6v6.8H854zm51.1-23.9c.2.5.7 1 1.3 1.4s1.5.8 2.5 1.2c1.1.4 2.4.7 4.1 1.1l4.8 1.5c1.4.6 2.6 1.2 3.5 2.1.9.8 1.6 1.8 2.1 2.8.5 1.1.7 2.3.7 3.8 0 1.7-.3 3.1-.9 4.4s-1.5 2.4-2.5 3.3a10.32 10.32 0 0 1-3.9 2c-1.5.5-3.2.7-5 .7-2.7 0-5.2-.5-7.7-1.4-2.4-.9-4.7-2.3-6.8-4.2l3.7-4.4c1.7 1.5 3.4 2.6 5.1 3.3 1.7.8 3.7 1.2 5.9 1.2 1.9 0 3.4-.4 4.5-1.2s1.7-1.9 1.7-3.2c0-.6-.1-1.2-.3-1.7s-.6-.9-1.2-1.4c-.6-.4-1.4-.8-2.4-1.2s-2.3-.7-4-1.1a36.95 36.95 0 0 1-4.9-1.4c-1.4-.5-2.7-1.2-3.6-2-1-.8-1.7-1.8-2.2-2.9s-.8-2.5-.8-4.1c0-1.5.3-2.9.9-4.1s1.4-2.3 2.4-3.2 2.3-1.6 3.7-2.1c1.5-.5 3-.7 4.8-.7 2.5 0 4.8.4 6.9 1.1s3.9 1.8 5.7 3.2l-3.3 4.6c-1.6-1.2-3.2-2-4.7-2.7-1.6-.6-3.1-.9-4.7-.9-1.8 0-3.2.4-4.2 1.2s-1.5 1.8-1.5 3c0 .9.1 1.5.3 2zm49.8 23.9v-3.2c-.9 1.1-2 2-3.4 2.7s-3.1 1.1-5.1 1.1c-1.3 0-2.4-.2-3.6-.5-1.1-.3-2.1-.9-3-1.5-.8-.7-1.5-1.5-2-2.5s-.8-2.2-.8-3.5v-.1c0-1.4.3-2.7.8-3.7.5-1.1 1.3-1.9 2.2-2.6s2.1-1.2 3.4-1.6c1.3-.3 2.7-.5 4.2-.5 1.6 0 2.9.1 4 .3s2.2.5 3.2.8v-.6c0-1.8-.6-3.2-1.7-4.2s-2.7-1.4-4.8-1.4c-1.5 0-2.8.1-4 .4s-2.3.7-3.5 1.2l-1.6-4.8c1.5-.7 2.9-1.2 4.5-1.6 1.5-.4 3.4-.6 5.5-.6 3.9 0 6.8 1 8.7 2.9s2.8 4.7 2.8 8.2v15.5h-5.8zm.2-11.1c-.8-.3-1.7-.5-2.7-.7s-2.1-.3-3.3-.3c-1.9 0-3.4.4-4.4 1.1-1.1.7-1.6 1.8-1.6 3.1v.1c0 1.3.5 2.2 1.5 2.9s2.2 1 3.6 1c1 0 1.9-.1 2.8-.4.8-.3 1.6-.6 2.2-1.1s1.1-1.1 1.5-1.7c.3-.7.5-1.4.5-2.3v-1.7z"/><use xlink:href="#D" x="343.4"/><path d="M1018.5 469.9c1.4 1.1 3 1.7 5 1.7 1.5 0 2.8-.3 3.9-.8s2.2-1.3 3.2-2.3l3.5 3.1c-1.3 1.5-2.8 2.7-4.5 3.6s-3.8 1.3-6.2 1.3c-1.9 0-3.6-.3-5.3-1-1.6-.7-3.1-1.6-4.3-2.8s-2.2-2.6-2.9-4.3-1-3.5-1-5.6c0-1.9.3-3.7.9-5.3.6-1.7 1.5-3.1 2.7-4.3 1.1-1.2 2.5-2.2 4-3a12.74 12.74 0 0 1 5.2-1.1c2.1 0 3.9.4 5.5 1.1 1.6.8 2.9 1.8 3.9 3.1s1.8 2.8 2.4 4.5c.5 1.7.8 3.5.8 5.4v.8c0 .3 0 .5-.1.8H1016c.3 2.3 1.2 3.9 2.5 5.1zm10.8-8.9c-.1-1-.3-1.9-.6-2.7s-.8-1.6-1.3-2.2c-.6-.6-1.2-1.1-2-1.5s-1.7-.5-2.7-.5c-1.8 0-3.4.6-4.6 1.9s-1.9 2.9-2.2 5h13.4zm44-19.8h6v29.2h18.3v5.5h-24.3v-34.7zm38.3 4.5V440h6.5v5.7h-6.5zm.2 30.2v-26.2h6.1v26.2h-6.1z"/><use xlink:href="#D" x="502"/><use xlink:href="#E" x="353.3"/><path d="M1226.1 471.8c-.5 1-1.2 1.9-2.1 2.6s-1.9 1.2-3.1 1.5-2.5.5-3.8.5c-1.9 0-3.8-.3-5.7-1s-3.7-1.6-5.4-2.9l2.7-4.1c1.4 1.1 2.9 1.9 4.3 2.4 1.5.5 2.9.8 4.2.8s2.3-.3 3-.8 1.1-1.2 1.1-2.1v-.1c0-.5-.2-.9-.5-1.3s-.7-.7-1.3-1c-.5-.3-1.2-.5-1.9-.7l-2.2-.7-2.9-1c-1-.4-1.8-.8-2.6-1.4s-1.4-1.3-1.9-2.1-.7-1.9-.7-3.1v-.1c0-1.2.2-2.3.7-3.3s1.1-1.8 2-2.5c.8-.7 1.8-1.2 3-1.6 1.1-.4 2.4-.5 3.6-.5 1.7 0 3.3.3 5 .8s3.2 1.3 4.6 2.2l-2.4 4.3c-1.3-.8-2.5-1.4-3.8-1.8s-2.5-.7-3.6-.7c-1.2 0-2.1.2-2.7.7s-1 1.1-1 1.9v.1c0 .5.2.9.5 1.2s.8.7 1.3.9c.5.3 1.2.5 1.9.8l2.2.7 2.9 1c1 .4 1.8.9 2.6 1.5s1.4 1.3 1.9 2.1.7 1.8.7 3v.1c.2 1.4-.1 2.6-.6 3.7z"/></g><defs ><path id="D" d="M649.9 449.7h6.3l-10.7 26.4h-5.4l-10.8-26.4h6.4l7 19.2 7.2-19.2z"/><path id="E" d="M823.9 469.9c1.4 1.1 3 1.7 5 1.7 1.5 0 2.8-.3 3.9-.8s2.2-1.3 3.2-2.3l3.5 3.1c-1.3 1.5-2.8 2.7-4.5 3.6s-3.8 1.3-6.2 1.3c-1.9 0-3.6-.3-5.3-1-1.6-.7-3.1-1.6-4.3-2.8s-2.2-2.6-2.9-4.3-1-3.5-1-5.6c0-1.9.3-3.7.9-5.3.6-1.7 1.5-3.1 2.7-4.3 1.1-1.2 2.5-2.2 4-3a12.74 12.74 0 0 1 5.2-1.1c2.1 0 3.9.4 5.5 1.1 1.6.8 2.9 1.8 3.9 3.1s1.8 2.8 2.4 4.5c.5 1.7.8 3.5.8 5.4v.8c0 .3 0 .5-.1.8h-19.2c.3 2.3 1.1 3.9 2.5 5.1zm10.8-8.9c-.1-1-.3-1.9-.6-2.7s-.8-1.6-1.3-2.2c-.6-.6-1.2-1.1-2-1.5s-1.7-.5-2.7-.5c-1.8 0-3.4.6-4.6 1.9s-1.9 2.9-2.2 5h13.4z"/></defs></svg>