<svg xmlns="http://www.w3.org/2000/svg" xmlns:xlink="http://www.w3.org/1999/xlink" viewBox="0 0 1366 768" xmlns:v="https://vecta.io/nano"><path d="M821.8 487c-.6.4-1.2.7-1.9 1s-1.4.5-2.2.7-1.6.2-2.5.2c-1.6 0-3-.3-4.2-.8-1.3-.5-2.4-1.2-3.2-2.2-.9-.9-1.6-2-2.1-3.2s-.7-2.6-.7-4.1c0-1.4.3-2.7.8-4 .5-1.2 1.2-2.3 2.1-3.3.9-.9 2-1.7 3.2-2.2 1.3-.5 2.6-.8 4.1-.8.9 0 1.7.1 2.4.2s1.4.3 2 .5 1.2.5 1.7.8a15.26 15.26 0 0 1 1.6 1.1l-2.2 2.6-1.2-.9c-.4-.3-.8-.5-1.2-.7s-.9-.3-1.4-.4-1.1-.2-1.7-.2c-.9 0-1.8.2-2.5.6-.8.4-1.5.9-2 1.5-.6.6-1 1.4-1.4 2.2s-.5 1.8-.5 2.7a8.21 8.21 0 0 0 .5 2.8c.3.9.8 1.6 1.4 2.3.6.6 1.3 1.1 2.1 1.5s1.7.5 2.8.5c.9 0 1.8-.1 2.7-.4.8-.3 1.5-.6 2.1-1.1v-3.7H815v-3h8.5v8.3c-.5.7-1.1 1.1-1.7 1.5zm9.7-15.7V468h3.7v3.3h-3.7zm.1 17.2v-15h3.5v15h-3.5zm22.1-14.9h3.6l-6.1 15.1h-3.1l-6.2-15.1h3.7l4 11 4.1-11z"/><use xlink:href="#D"/><path d="M896.9 468.7h3.5v16.7h10.4v3.1h-13.9v-19.8zm21.1 2.6V468h3.7v3.3H918zm.1 17.2v-15h3.5v15h-3.5zm19.9-14.8v2.8h-3.9v12h-3.5v-12h-1.9v-2.9h1.9v-1.1c0-1.7.4-2.9 1.2-3.7s1.9-1.2 3.4-1.2c.6 0 1.1 0 1.6.1l1.2.3v2.9l-1-.3c-.3-.1-.7-.1-1-.1-1.3 0-2 .8-2 2.3v.8h4zm10.1 11.4c.8.7 1.7 1 2.8 1 .9 0 1.6-.2 2.2-.5a6.78 6.78 0 0 0 1.8-1.3l2 1.8c-.7.8-1.6 1.5-2.6 2s-2.2.8-3.6.8c-1.1 0-2.1-.2-3-.6s-1.7-.9-2.4-1.6-1.2-1.5-1.6-2.5a8.29 8.29 0 0 1-.6-3.2c0-1.1.2-2.1.5-3 .4-.9.9-1.8 1.5-2.5.7-.7 1.4-1.3 2.3-1.7s1.9-.6 3-.6c1.2 0 2.2.2 3.1.7.9.4 1.6 1 2.2 1.8.6.7 1 1.6 1.3 2.6s.5 2 .5 3.1v1h-11c.4 1.1.9 2 1.6 2.7zm6.2-5.1c-.1-.5-.2-1.1-.4-1.5-.2-.5-.4-.9-.8-1.2a4.44 4.44 0 0 0-1.1-.8c-.4-.2-1-.3-1.5-.3-1.1 0-1.9.4-2.6 1.1s-1.1 1.7-1.3 2.9h7.7zm10.2 8.5v-3.9h3.8v3.9h-3.8zm27.6-13.6c.1.3.4.5.7.8.4.2.8.5 1.5.7l2.3.7 2.8.9c.8.3 1.5.7 2 1.2s.9 1 1.2 1.6.4 1.3.4 2.2-.2 1.8-.5 2.5a4.54 4.54 0 0 1-1.5 1.9c-.6.5-1.4.9-2.2 1.2-.9.3-1.8.4-2.9.4-1.5 0-3-.3-4.4-.8s-2.7-1.3-3.9-2.4l2.1-2.5c1 .8 1.9 1.5 2.9 1.9s2.1.7 3.3.7c1.1 0 1.9-.2 2.6-.7.6-.5 1-1.1 1-1.8 0-.4-.1-.7-.2-1s-.4-.5-.7-.8c-.3-.2-.8-.5-1.4-.7l-2.3-.7c-1.1-.2-2-.5-2.8-.8s-1.5-.7-2.1-1.1c-.6-.5-1-1-1.3-1.6s-.4-1.4-.4-2.4c0-.9.2-1.7.5-2.4s.8-1.3 1.4-1.8 1.3-.9 2.1-1.2 1.7-.4 2.7-.4c1.5 0 2.8.2 3.9.6s2.3 1 3.3 1.9l-1.9 2.6c-.9-.7-1.8-1.2-2.7-1.5s-1.8-.5-2.7-.5c-1 0-1.8.2-2.4.7s-.9 1-.9 1.7c.3.3.3.6.5.9zm27.6 13.6v-1.8c-.5.6-1.2 1.1-2 1.5s-1.8.6-2.9.6c-.7 0-1.4-.1-2-.3s-1.2-.5-1.7-.9-.9-.9-1.2-1.4c-.3-.6-.4-1.2-.4-2v-.1a4.65 4.65 0 0 1 .5-2.1c.3-.6.7-1.1 1.3-1.5.5-.4 1.2-.7 1.9-.9s1.6-.3 2.4-.3c.9 0 1.7.1 2.3.2s1.2.3 1.8.5v-.4c0-1-.3-1.8-1-2.4-.6-.5-1.5-.8-2.7-.8-.9 0-1.6.1-2.3.3s-1.3.4-2 .7l-.9-2.8c.8-.4 1.7-.7 2.6-.9s1.9-.3 3.1-.3c2.2 0 3.9.6 5 1.7s1.6 2.7 1.6 4.7v8.9h-3.4zm.1-6.3c-.4-.2-1-.3-1.5-.4-.6-.1-1.2-.2-1.9-.2-1.1 0-1.9.2-2.5.6s-.9 1-.9 1.8v.1c0 .7.3 1.3.8 1.6.6.4 1.2.6 2.1.6.6 0 1.1-.1 1.6-.2.5-.2.9-.4 1.3-.6.4-.3.6-.6.8-1s.3-.8.3-1.3v-1zm21-8.6h3.6l-6.1 15.1h-3.1l-6.2-15.1h3.7l4 11 4.1-11z"/><use xlink:href="#D" x="187.1"/><path d="M1084 468.7h3.5v16.7h10.4v3.1H1084v-19.8zm21 2.6V468h3.7v3.3h-3.7zm.2 17.2v-15h3.5v15h-3.5zm22.1-14.9h3.6l-6.1 15.1h-3.1l-6.2-15.1h3.7l4 11 4.1-11zm13.6 11.5c.8.7 1.7 1 2.8 1 .9 0 1.6-.2 2.2-.5a6.78 6.78 0 0 0 1.8-1.3l2 1.8c-.7.8-1.6 1.5-2.6 2s-2.2.8-3.6.8c-1.1 0-2.1-.2-3-.6s-1.7-.9-2.4-1.6-1.2-1.5-1.6-2.5a8.29 8.29 0 0 1-.6-3.2c0-1.1.2-2.1.5-3 .4-.9.9-1.8 1.5-2.5.7-.7 1.4-1.3 2.3-1.7s1.9-.6 3-.6c1.2 0 2.2.2 3.1.7.9.4 1.6 1 2.2 1.8.6.7 1 1.6 1.3 2.6s.5 2 .5 3.1v1h-11c.3 1.1.8 2 1.6 2.7zm6.1-5.1c-.1-.5-.2-1.1-.4-1.5-.2-.5-.4-.9-.8-1.2a4.44 4.44 0 0 0-1.1-.8c-.4-.2-1-.3-1.5-.3-1.1 0-1.9.4-2.6 1.1s-1.1 1.7-1.3 2.9h7.7zm21 6.2c-.3.6-.7 1.1-1.2 1.5s-1.1.7-1.8.9-1.4.3-2.2.3a9.6 9.6 0 0 1-3.3-.6c-1.1-.4-2.1-.9-3.1-1.7l1.5-2.3c.8.6 1.6 1.1 2.5 1.4.8.3 1.6.5 2.4.5.7 0 1.3-.1 1.7-.4s.6-.7.6-1.2v-.1c0-.3-.1-.5-.3-.7s-.4-.4-.7-.6-.7-.3-1.1-.4-.8-.3-1.3-.4l-1.7-.6a5.3 5.3 0 0 1-1.5-.8c-.4-.3-.8-.7-1.1-1.2s-.4-1.1-.4-1.8v-.1c0-.7.1-1.3.4-1.9s.7-1 1.1-1.4c.5-.4 1.1-.7 1.7-.9.7-.2 1.3-.3 2.1-.3.9 0 1.9.2 2.9.5s1.8.7 2.6 1.2l-1.4 2.4c-.7-.4-1.4-.8-2.2-1-.7-.3-1.4-.4-2-.4-.7 0-1.2.1-1.5.4-.4.3-.6.6-.6 1.1v.1c0 .3.1.5.3.7s.4.4.8.5c.3.2.7.3 1.1.5.4.1.8.3 1.3.4l1.6.6c.5.2 1 .5 1.5.8.4.3.8.7 1.1 1.2s.4 1 .4 1.7v.1c.2.7.1 1.4-.2 2z"/><path d="M464.6 376.1s6.6 42.7 4.2 41.5-6.8 16.1-7.4 17.3-25.7 27.1-28.1 29.9-50.9 23.4-54.7 25-70.9-21-70.9-21l10.2-45s34.6-61.9 31.6-61.9 10.7-24.3 13.9-24.3c3.2-.1 18.7-4.2 15.2-6s9.2-8.8 9.2-8.8l20.7-.4 20.6 14.2 35.5 39.5z" fill="#590111"/><radialGradient id="A" cx="406.418" cy="397.266" r="45.254" fx="401.206" fy="389.064" gradientTransform="matrix(0.9714 0.2376 -0.1048 0.4285 53.2813 130.4762)" gradientUnits="userSpaceOnUse"><stop offset=".086" stop-color="#f00833"/><stop offset=".502" stop-color="#f20833"/><stop offset=".609" stop-color="#e40730"/><stop offset=".855" stop-color="#c90529"/><stop offset="1" stop-color="#bf0427"/></radialGradient><path d="M464.5 418.6c-.8-2.2-1.8-4.4-3-6.6-6.4-11.9-18.3-23.7-33.2-31.6l-.8-.4c-17.9-9.3-40.1-12.8-62.3-4.1-1 .4-2.1.8-3.1 1.3l.5.3h.1c-8.8 5.7-13.8 24.4-14.6 24.9l33.2 21.3 54.5 11.8 9.5-4.7c2.6-5.9 21.9-4.8 19.2-12.2z" fill="url(#A)"/><linearGradient id="B" gradientUnits="userSpaceOnUse" x1="274.301" y1="418.342" x2="435.419" y2="490.608"><stop offset=".086" stop-color="#f00833"/><stop offset=".502" stop-color="#f20833"/><stop offset=".572" stop-color="#e40730"/><stop offset=".732" stop-color="#c90529"/><stop offset=".826" stop-color="#bf0427"/><stop offset=".865" stop-color="#c20428"/><stop offset=".889" stop-color="#ca052a"/><stop offset=".91" stop-color="#d9062d"/><stop offset=".928" stop-color="#ee0832"/><stop offset=".93" stop-color="#f00833"/><stop offset="1" stop-color="#bf0427"/></linearGradient><path d="M469.5 415.7c0-14.7-35 15.6-78.2 2.7-23.2-6.9-48.2-26.8-56.1-40.1-74.9 59.4-87.9 108-88.7 110.9-.8 3-.3 6.2 1.4 8.7 1 1.6 2.4 2.8 4.1 3.7 1.1.5 2.2.9 3.4 1.1 65 9.4 116 5.4 151.6-12.1 31.4-15.4 50.4-51.7 58.1-67.6.1-.2 9.4-15.5 4.4-7.3z" fill="url(#B)"/><path d="M387.8 322.8l37.3 26.4c27.6 14.3 39.5 53.1 25.2 82.6-14.5 29.9-49.2 81.2-193.4 60.3 0 0 19.1-69.2 93.3-127.4 30-23.6 56.1-25.2 74.9-15.5m9.9-19.1c-14.1-7.3-30.2-9.6-46.7-6.8-17 2.9-34.3 11.1-51.3 24.5-78.9 61.8-99.9 135.5-100.8 138.6-1.6 5.9 1.7 9.5 5.1 14.7 2.1 3.1.9 5 4.1 6.7 2.1 1.1 6 5.3 8.4 5.6 35.4 5.1 67.1 6.4 94.2 3.7 24.4-2.4 45.8-8.1 63.7-16.8 34.4-16.8 49.5-41.8 57.9-59.1 9.2-18.9 10.7-41.7 4.3-62.6-6.4-21.4-20.7-39.1-38.9-48.5h0z" fill="#ba0d0d"/><path d="M252.8 501.8c-1.9-1-3.5-2.6-4.6-4.6-30.5-58.2-43.6-107.6-39-147 4.1-34.7 21-55.4 33.5-68 22.4-22.6 59-28.5 87-14 12 6.2 49.5 31.6 27.4 97.1-31 91.7-90.6 134-93.2 135.8a10.35 10.35 0 0 1-8.7 1.6c-.8-.2-1.6-.5-2.4-.9z" fill="#f20833"/><path d="M324.8 277.8c22.9 11.8 37.1 39.6 22.1 84.1-30.2 89.4-89.1 130.4-89.1 130.4-67.8-129.2-30.8-179-7.5-202.5 19.5-19.7 51.4-24 74.5-12m9.8-19.1c-32.1-16.6-74-9.9-99.6 16-13.5 13.7-32.1 36.3-36.5 74.3-2.3 19.8-.5 41.8 5.3 65.6 6.5 26.4 18.2 55.9 34.8 87.6 2.1 3.9 5.3 7.1 9.2 9.1a19.78 19.78 0 0 0 4.8 1.8c6 1.5 12.3.3 17.4-3.2 2.6-1.8 65.1-46.2 97.2-141.2 8.5-25.3 9.6-48.1 3.2-67.8-6-18.6-18.4-33.2-35.8-42.2h0z" fill="#ba0d0d"/><path d="M515.6 437.3V336.8h22.1v80.6h50.1v20h-72.2zm90.8-85.4v-19.4h23v19.4h-23zm.6 85.4v-77h21.8v77H607zm84.4-86.9c-1.5-.3-3.3-.5-5.2-.5-5.3 0-7.9 2.8-7.9 8.3v3H696V379h-17.4v58.3h-21.8V379h-9v-18h9v-4.9c0-8.5 2-14.8 6.1-18.7 4.1-4 10-6 17.7-6 3.4 0 6.4.2 8.8.6s4.7.9 6.7 1.6v18.1c-1.6-.6-3.2-1-4.7-1.3zm91.9 53.3c0 .8-.1 1.7-.2 2.7h-53.6c1.1 5 3.2 8.7 6.5 11.3 3.3 2.5 7.4 3.8 12.3 3.8 3.6 0 6.9-.6 9.8-1.9 2.9-1.2 5.8-3.3 8.9-6l12.5 11.1c-3.6 4.5-8 8-13.2 10.6-5.2 2.5-11.2 3.8-18.2 3.8-5.7 0-11.1-1-16-2.9s-9.2-4.6-12.8-8.2c-3.6-3.5-6.4-7.7-8.4-12.6-2-4.8-3-10.2-3-16.2v-.2c0-5.5.9-10.6 2.8-15.5s4.5-9.1 7.8-12.8c3.4-3.6 7.3-6.5 12-8.6 4.6-2.1 9.8-3.2 15.4-3.2 6.4 0 12 1.1 16.7 3.4s8.6 5.4 11.7 9.3 5.4 8.3 6.9 13.4c1.5 5 2.2 10.3 2.2 15.7v.3c0 1 0 1.9-.1 2.7zM757 380.9c-2.8-3-6.5-4.5-11.1-4.5s-8.3 1.5-11.1 4.5-4.7 6.9-5.5 11.9h32.9c-.7-4.9-2.4-8.9-5.2-11.9z"/><path d="M881.3 416c-2 4.9-4.5 9.1-7.8 12.5-3.2 3.4-6.9 6-11.1 7.7s-8.6 2.6-13.2 2.6c-5.8 0-10.6-1.1-14.4-3.4s-7-4.9-9.5-8v10h-21.8V332.5h21.8v38.8c2.7-3.6 5.9-6.6 9.7-8.9s8.5-3.5 14.3-3.5c4.5 0 8.9.9 13.1 2.6s7.9 4.3 11.2 7.7 5.9 7.6 7.8 12.5c2 4.9 2.9 10.6 2.9 17v.3c-.1 6.4-1.1 12-3 17zm-18.9-17.3c0-3.2-.5-6.1-1.5-8.7s-2.4-4.9-4.1-6.8-3.7-3.3-6-4.3c-2.2-1-4.7-1.5-7.3-1.5s-5 .5-7.3 1.5c-2.2 1-4.2 2.5-5.9 4.3s-3 4.1-4 6.8c-1 2.6-1.5 5.6-1.5 8.7v.3c0 3.2.5 6.1 1.5 8.7s2.3 4.9 4 6.8 3.6 3.3 5.9 4.3c2.2 1 4.7 1.5 7.3 1.5s5-.5 7.3-1.5 4.2-2.5 6-4.3a21.54 21.54 0 0 0 4.1-6.7c1-2.6 1.5-5.5 1.5-8.8v-.3zm86.7 38.6V429c-2.7 3-5.9 5.3-9.6 7.1s-8.3 2.7-13.6 2.7c-3.6 0-7.1-.5-10.3-1.5s-6-2.5-8.4-4.5-4.3-4.5-5.7-7.4-2.1-6.3-2.1-10.1v-.3c0-4.2.8-7.8 2.3-10.9s3.7-5.6 6.4-7.6 6-3.5 9.8-4.5 8-1.5 12.6-1.5c3.9 0 7.3.3 10.3.9 2.9.6 5.8 1.3 8.5 2.3v-1.3c0-4.6-1.4-8.1-4.2-10.5s-6.9-3.6-12.3-3.6c-4.2 0-7.9.4-11.1 1.1a64.05 64.05 0 0 0-10.1 3.1l-5.5-16.7c4.2-1.8 8.6-3.3 13.2-4.5 4.6-1.1 10.1-1.7 16.7-1.7 12 0 20.7 2.9 26.1 8.8 5.5 5.8 8.2 14 8.2 24.4v44.7h-21.2zm.4-31c-1.9-.9-4-1.6-6.4-2.1-2.3-.5-4.9-.8-7.5-.8-4.7 0-8.4.9-11.1 2.7s-4 4.5-4 7.9v.3c0 3 1.1 5.3 3.3 6.9s5.1 2.4 8.6 2.4c5.2 0 9.3-1.2 12.4-3.7s4.7-5.7 4.7-9.8v-3.8zm91.9 31v-42.8c0-5.2-1.2-9-3.4-11.7-2.3-2.6-5.6-3.9-9.8-3.9s-7.5 1.3-10 3.9-3.7 6.5-3.7 11.7v42.8h-21.8v-77h21.8v11c1.2-1.6 2.6-3.2 4.1-4.7s3.1-2.8 5-4c1.8-1.2 3.8-2.1 6-2.7 2.2-.7 4.7-1 7.5-1 8.3 0 14.8 2.5 19.3 7.6s6.8 12.1 6.8 21v49.8h-21.8zm94.1 0l-20.1-31.4-7.6 8v23.4H1086V332.5h21.8v55.9l25.6-28h26.1l-29.3 30.3 30.3 46.7h-25z" fill="#f20833"/><defs ><path id="D" d="M867.3 485.1c.8.7 1.7 1 2.8 1 .9 0 1.6-.2 2.2-.5a6.78 6.78 0 0 0 1.8-1.3l2 1.8c-.7.8-1.6 1.5-2.6 2s-2.2.8-3.6.8c-1.1 0-2.1-.2-3-.6s-1.7-.9-2.4-1.6-1.2-1.5-1.6-2.5a8.29 8.29 0 0 1-.6-3.2c0-1.1.2-2.1.5-3 .4-.9.9-1.8 1.5-2.5.7-.7 1.4-1.3 2.3-1.7s1.9-.6 3-.6c1.2 0 2.2.2 3.1.7.9.4 1.6 1 2.2 1.8.6.7 1 1.6 1.3 2.6s.5 2 .5 3.1v1h-11c.3 1.1.8 2 1.6 2.7zm6.2-5.1c-.1-.5-.2-1.1-.4-1.5-.2-.5-.4-.9-.8-1.2a4.44 4.44 0 0 0-1.1-.8c-.4-.2-1-.3-1.5-.3-1.1 0-1.9.4-2.6 1.1s-1.1 1.7-1.3 2.9h7.7z"/></defs></svg>