<svg xmlns="http://www.w3.org/2000/svg" viewBox="0 0 892 256" xmlns:v="https://vecta.io/nano"><path d="M249 120.2s6 39 3.9 37.8c-2.2-1.1-6.2 14.7-6.8 15.8s-24.9 24-25.6 27.2c-2.2 10.5-44.2 25.8-47.7 27.3s-66.9-23.6-66.9-23.6l9.3-41s31.6-56.4 28.8-56.5c-2.7 0 9.8-22.1 12.7-22.2s17-3.8 13.9-5.4 16.6 5 16.6 5h12l17.5-.5 32.3 36.1z" fill="#590111"/><radialGradient id="A" cx="195.981" cy="139.503" r="41.269" fx="191.228" fy="132.024" gradientTransform="matrix(0.9714 0.2376 -0.1048 0.4285 20.2358 33.161)" gradientUnits="userSpaceOnUse"><stop offset=".086" stop-color="#f00833"/><stop offset=".502" stop-color="#f20833"/><stop offset=".609" stop-color="#e40730"/><stop offset=".855" stop-color="#c90529"/><stop offset="1" stop-color="#bf0427"/></radialGradient><path d="M249 159c-.7-2-1.6-4-2.7-6-5.8-10.8-16.7-21.6-30.3-28.8l-.8-.4c-16.4-8.5-36.6-11.7-56.8-3.8-.9.4-1.9.7-2.8 1.2l.5.3h.1c-8 5.2-12.6 22.3-13.3 22.7l30.3 19.4 49.7 10.8 8.6-4.3c2.3-5.4 19.9-4.4 17.5-11.1z" fill="url(#A)"/><linearGradient id="B" gradientUnits="userSpaceOnUse" x1="75.498" y1="158.724" x2="222.428" y2="224.626"><stop offset=".086" stop-color="#f00833"/><stop offset=".502" stop-color="#f20833"/><stop offset=".572" stop-color="#e40730"/><stop offset=".732" stop-color="#c90529"/><stop offset=".826" stop-color="#bf0427"/><stop offset=".865" stop-color="#c20428"/><stop offset=".889" stop-color="#ca052a"/><stop offset=".91" stop-color="#d9062d"/><stop offset=".928" stop-color="#ee0832"/><stop offset=".93" stop-color="#f00833"/><stop offset="1" stop-color="#bf0427"/></linearGradient><path d="M253.5 156.3c0-13.4-31.9 14.2-71.3 2.4-21.1-6.3-44-24.5-51.1-36.6-68.3 54.2-80.2 98.5-80.9 101.2s-.3 5.6 1.2 8c.9 1.4 2.2 2.6 3.7 3.3 1 .5 2 .8 3.1 1 59.3 8.6 105.8 4.9 138.3-11 28.6-14 45.9-47.2 53-61.7 0-.1 8.6-14 4-6.6z" fill="url(#B)"/><path d="M213 95.6c25.2 13 36 48.4 23 75.3-13.2 27.2-44.8 74.1-176.4 55 0 0 17.4-63.1 85.1-116.2 27.4-21.4 51.2-22.9 68.3-14.1m9-17.4c-12.8-6.6-27.5-8.8-42.6-6.2-15.5 2.6-31.3 10.1-46.8 22.3-72 56.4-91.1 123.6-91.9 126.4-1.5 5.4 1.6 8.7 4.6 13.4 1.9 2.9.8 4.5 3.8 6.1 1.9 1 5.5 4.8 7.7 5.1 32.3 4.7 61.2 5.8 85.9 3.4 22.2-2.2 41.8-7.3 58.1-15.3 31.4-15.4 45.2-38.1 52.8-53.9 8.3-17.2 9.8-38 4-57.1-5.9-19.5-18.9-35.6-35.6-44.2h0z" fill="#ba0d0d"/><path d="M55.9 234.8c-1.8-.9-3.2-2.4-4.2-4.2-27.8-53-39.8-98.1-35.6-134.1 3.7-31.7 19.2-50.6 30.5-62C67.1 14 100.4 8.6 126 21.8c11 5.7 45.1 28.8 25 88.5-28.2 83.6-82.7 122.2-85 123.8s-5.2 2.1-7.9 1.5c-.8-.2-1.5-.4-2.2-.8z" fill="#f20833"/><path d="M121.5 30.5c20.9 10.8 33.9 36.1 20.2 76.7-27.5 81.5-81.3 118.9-81.3 118.9C-1.3 108.4 32.3 63 53.6 41.5c17.8-18 46.8-21.9 67.9-11m9-17.4C101.2-2 63 4.1 39.7 27.7c-12.4 12.4-29.2 33-33.3 67.7-2.1 18-.5 38.2 4.9 59.9 5.9 24.1 16.6 51 31.8 79.9 1.9 3.6 4.8 6.5 8.4 8.3 1.4.7 2.8 1.3 4.3 1.6 5.5 1.3 11.2.3 15.8-3 2.4-1.7 59.4-42.1 88.7-128.7 7.8-23.1 8.8-43.9 2.9-61.8-5.5-17-16.8-30.3-32.7-38.5h0z" fill="#ba0d0d"/><path d="M295.6 189V97.3h20.2v73.5h45.7V189h-65.9zm82.7-77.9V93.4h21v17.7h-21zm.6 77.9v-70.2h19.9V189h-19.9zm76.9-79.3c-1.4-.3-3-.5-4.7-.5-4.8 0-7.2 2.5-7.2 7.6v2.7H460v16.2h-15.8V189h-19.9v-53.2H416v-16.4h8.2V115c0-7.8 1.9-13.5 5.6-17.1s9.1-5.4 16.2-5.4c3.1 0 5.8.2 8.1.5 2.2.3 4.3.8 6.1 1.4V111c-1.5-.6-3-1-4.4-1.3zm83.9 48.7c0 .7-.1 1.5-.2 2.5h-48.8c1 4.5 2.9 8 6 10.3 3 2.3 6.7 3.5 11.2 3.5 3.3 0 6.3-.6 8.9-1.7s5.3-3 8.1-5.5l11.4 10.1a34.95 34.95 0 0 1-12 9.6c-4.7 2.3-10.3 3.5-16.6 3.5-5.2 0-10.1-.9-14.6-2.6s-8.4-4.2-11.7-7.5c-3.3-3.2-5.8-7-7.7-11.5-1.8-4.4-2.7-9.3-2.7-14.7v-.4c0-5 .9-9.7 2.6-14.1 1.7-4.5 4.1-8.3 7.1-11.7 3.1-3.3 6.7-5.9 10.9-7.9 4.2-1.9 8.9-2.9 14.1-2.9 5.8 0 10.9 1 15.2 3.1a31.74 31.74 0 0 1 10.7 8.4c2.8 3.5 4.9 7.6 6.3 12.2s2 9.4 2 14.3v.3c-.1 1.1-.1 2-.2 2.7zm-24-20.8c-2.5-2.8-5.9-4.1-10.1-4.1s-7.6 1.4-10.1 4.1c-2.6 2.7-4.3 6.3-5 10.9h30c-.7-4.5-2.3-8.1-4.8-10.9z" fill="#fff"/><path d="M629 169.6c-1.8 4.5-4.1 8.3-7.1 11.4-2.9 3.1-6.3 5.4-10.1 7s-7.9 2.4-12 2.4c-5.3 0-9.7-1-13.2-3.1s-6.4-4.5-8.7-7.3v9.1H558V93.4h19.9v35.4c2.4-3.3 5.4-6 8.8-8.1s7.8-3.2 13-3.2c4.1 0 8.1.8 11.9 2.4s7.2 3.9 10.2 7 5.3 6.9 7.1 11.4 2.7 9.7 2.7 15.5v.3c.1 5.8-.8 11-2.6 15.5zm-17.2-15.8c0-2.9-.5-5.6-1.4-8s-2.2-4.5-3.7-6.2a18.95 18.95 0 0 0-5.4-4c-2.1-.9-4.3-1.4-6.6-1.4-2.4 0-4.6.5-6.6 1.4-2.1.9-3.8 2.2-5.4 4s-2.7 3.8-3.7 6.2c-.9 2.4-1.4 5.1-1.4 8v.3c0 2.9.5 5.6 1.4 8s2.1 4.5 3.7 6.2c1.5 1.7 3.3 3 5.4 4 2.1.9 4.3 1.4 6.6 1.4 2.4 0 4.6-.5 6.6-1.4 2.1-.9 3.9-2.2 5.4-4 1.6-1.7 2.8-3.8 3.7-6.1.9-2.4 1.4-5.1 1.4-8v-.4zm79.1 35.2v-7.6c-2.4 2.7-5.4 4.9-8.8 6.5s-7.5 2.4-12.4 2.4a32.39 32.39 0 0 1-9.4-1.4c-2.9-.9-5.5-2.3-7.7-4.1s-3.9-4.1-5.2-6.7c-1.3-2.7-1.9-5.7-1.9-9.2v-.3c0-3.8.7-7.2 2.1-10s3.3-5.1 5.8-6.9 5.5-3.2 8.9-4.1 7.3-1.4 11.5-1.4c3.6 0 6.7.3 9.4.8a49.71 49.71 0 0 1 7.8 2.1v-1.2c0-4.2-1.3-7.4-3.8-9.6s-6.3-3.3-11.3-3.3c-3.8 0-7.2.3-10.1 1s-6 1.6-9.2 2.8l-5-15.2c3.8-1.7 7.9-3 12-4.1 4.2-1 9.3-1.6 15.2-1.6 10.9 0 18.9 2.7 23.8 8 5 5.3 7.5 12.7 7.5 22.3V189h-19.2zm.4-28.3c-1.7-.8-3.7-1.4-5.8-1.9s-4.4-.7-6.9-.7c-4.3 0-7.6.8-10.1 2.5-2.4 1.7-3.7 4.1-3.7 7.2v.3c0 2.7 1 4.8 3 6.3s4.6 2.2 7.9 2.2c4.7 0 8.5-1.1 11.3-3.4s4.3-5.2 4.3-8.9v-3.6zm83.8 28.3v-39.1c0-4.7-1-8.3-3.1-10.6-2.1-2.4-5.1-3.6-8.9-3.6s-6.9 1.2-9.1 3.6-3.3 5.9-3.3 10.6V189h-19.9v-70.2h19.9v10c1.1-1.5 2.4-2.9 3.7-4.3 1.4-1.4 2.9-2.6 4.5-3.6 1.7-1.1 3.5-1.9 5.5-2.5s4.3-.9 6.8-.9c7.6 0 13.5 2.3 17.6 6.9s6.2 11 6.2 19.1V189h-19.9zm85.7 0l-18.3-28.7-6.9 7.3V189h-19.9V93.4h19.9v50.9l23.3-25.5h23.8L856 146.4l27.6 42.6h-22.8z" fill="#f20833"/></svg>